SplineFontDB: 3.2
FontName: SteMiAlfa-Regular
FullName: SteMi Alfa Regular
FamilyName: SteMi
Weight: Regular
Copyright: Copyright (c) 2012-2025, Krzysztof Smirnow\n
UComments: "PL: Font, kt+APMA-rego zadaniem jest umo+AXwA-liwienie tworzenia tekst+APMA-w przy pomocy stenograficznego pisma SteMi: +AAoA-https://www.stenografia.pl/blog/2013-02-28_kurs-stemi-lekcja-01/+AAoA-EN:+AKAA Font whose task is to enable the creation of texts using the SteMi shorthand script (Polish basically, but)"
FontLog: "v. 2.0 began in 2023+AAoA-v. 1.0 postponed in 2013+AAoA-v. 1.0 began in 2012"
Version: 002.200
ItalicAngle: 0
UnderlinePosition: -298
UnderlineWidth: 148
Ascent: 1365
Descent: 683
InvalidEm: 0
sfntRevision: 0x00020000
LayerCount: 3
Layer: 0 1 "Warstwa t+AUIA-a" 1
Layer: 1 1 "Plan pierwszy" 1
Layer: 2 0 "Warstwa t+AUIA-a 2" 1
HasVMetrics: 1
XUID: [1021 102 369710040 11306370]
BaseHoriz: 0
StyleMap: 0x0040
FSType: 0
OS2Version: 4
OS2_WeightWidthSlopeOnly: 0
OS2_UseTypoMetrics: 1
CreationTime: 1379607424
ModificationTime: 1718954251
PfmFamily: 17
TTFWeight: 300
TTFWidth: 3
LineGap: 270
VLineGap: 270
Panose: 2 0 5 3 0 0 0 0 0 0
OS2TypoAscent: 2000
OS2TypoAOffset: 0
OS2TypoDescent: -1000
OS2TypoDOffset: 0
OS2TypoLinegap: 270
OS2WinAscent: 3557
OS2WinAOffset: 0
OS2WinDescent: 1092
OS2WinDOffset: 0
HheadAscent: 3557
HheadAOffset: 0
HheadDescent: -1092
HheadDOffset: 0
OS2SubXSize: 1950
OS2SubYSize: 2100
OS2SubXOff: 0
OS2SubYOff: 420
OS2SupXSize: 1950
OS2SupYSize: 2100
OS2SupXOff: 0
OS2SupYOff: 1440
OS2StrikeYSize: 149
OS2StrikeYPos: 776
OS2CapHeight: 3432
OS2XHeight: 1520
OS2FamilyClass: 2560
OS2Vendor: 'KsMi'
OS2CodePages: 00000001.00000000
OS2UnicodeRanges: 00000007.02000000.04000000.00000000
MarkAttachClasses: 1
DEI: 91125
TtTable: prep
PUSHW_1
 511
SCANCTRL
PUSHB_1
 1
SCANTYPE
SVTCA[y-axis]
MPPEM
PUSHB_1
 8
LT
IF
PUSHB_2
 1
 1
INSTCTRL
EIF
PUSHB_2
 70
 6
CALL
IF
POP
PUSHB_1
 16
EIF
MPPEM
PUSHB_1
 20
GT
IF
POP
PUSHB_1
 128
EIF
SCVTCI
PUSHB_1
 6
CALL
NOT
IF
EIF
PUSHB_1
 20
CALL

StartChar: .notdef
Encoding: 1114112 -1 0
Width: 1500
VWidth: 3000
Flags: W
LayerCount: 3
Fore
SplineSet
150 0 m 1,0,-1
 150 1333 l 1,1,-1
 1350 1333 l 1,2,-1
 1350 0 l 1,3,-1
 150 0 l 1,0,-1
300 150 m 1,4,-1
 1200 150 l 1,5,-1
 1200 1183 l 1,6,-1
 300 1183 l 1,7,-1
 300 150 l 1,4,-1
EndSplineSet
Validated: 1
EndChar

StartChar: exclam
Encoding: 33 33 5
Width: 1825
GlyphClass: 2
Flags: W
LayerCount: 3
Fore
SplineSet
351 1340 m 5,0,-1
 351 260 l 1,1,2
 291 260 291 260 231 260 c 1,5,-1
 231 1340 l 5,6,7
 291 1340 291 1340 351 1340 c 5,0,-1
231 260 m 1025
231 260 m 132,-1,0
 231 285 231 285 249 302 c 4,1,2
 267 320 267 320 291 320 c 132,-1,3
 315 320 315 320 333 302.5 c 132,-1,4
 351 285 351 285 351 260.5 c 132,-1,5
 351 236 351 236 333.5 218 c 132,-1,6
 316 200 316 200 291 200 c 132,-1,7
 266 200 266 200 249 218 c 4,8,9
 231 235 231 235 231 260 c 132,-1,0
291 280 m 29,0,-1
 291 240 l 5,1,-1
 271 260 l 5,2,-1
 311 260 l 1029,3,-1
231 1340 m 132,-1,0
 231 1365 231 1365 249 1382 c 4,1,2
 267 1400 267 1400 291 1400 c 132,-1,3
 315 1400 315 1400 333 1382.5 c 132,-1,4
 351 1365 351 1365 351 1340.5 c 132,-1,5
 351 1316 351 1316 333.5 1298 c 132,-1,6
 316 1280 316 1280 291 1280 c 132,-1,7
 266 1280 266 1280 249 1298 c 4,8,9
 231 1315 231 1315 231 1340 c 132,-1,0
291 1360 m 29,0,-1
 291 1320 l 5,1,-1
 271 1340 l 5,2,-1
 311 1340 l 1029,3,-1
EndSplineSet
Refer: 18 46 N 1 0 0 1 21 -48 2
EndChar

StartChar: numbersign
Encoding: 35 35 7
Width: 701
GlyphClass: 2
Flags: W
LayerCount: 3
Fore
SplineSet
534.5 598 m 5,0,-1
 534.5 117 l 1,1,2
 474.5 117 474.5 117 414.5 117 c 1,5,-1
 414.5 598 l 5,6,7
 474.5 598 474.5 598 534.5 598 c 5,0,-1
414.5 117 m 1025
414.5 117 m 132,-1,0
 414.5 142 414.5 142 432.5 159 c 4,1,2
 450.5 177 450.5 177 474.5 177 c 132,-1,3
 498.5 177 498.5 177 516.5 159.5 c 132,-1,4
 534.5 142 534.5 142 534.5 117.5 c 132,-1,5
 534.5 93 534.5 93 517 75 c 132,-1,6
 499.5 57 499.5 57 474.5 57 c 132,-1,7
 449.5 57 449.5 57 432.5 75 c 4,8,9
 414.5 92 414.5 92 414.5 117 c 132,-1,0
474.5 137 m 29,0,-1
 474.5 97 l 5,1,-1
 454.5 117 l 5,2,-1
 494.5 117 l 1029,3,-1
414.5 598 m 132,-1,0
 414.5 623 414.5 623 432.5 640 c 4,1,2
 450.5 658 450.5 658 474.5 658 c 132,-1,3
 498.5 658 498.5 658 516.5 640.5 c 132,-1,4
 534.5 623 534.5 623 534.5 598.5 c 132,-1,5
 534.5 574 534.5 574 517 556 c 132,-1,6
 499.5 538 499.5 538 474.5 538 c 132,-1,7
 449.5 538 449.5 538 432.5 556 c 4,8,9
 414.5 573 414.5 573 414.5 598 c 132,-1,0
474.5 618 m 29,0,-1
 474.5 578 l 5,1,-1
 454.5 598 l 5,2,-1
 494.5 598 l 1029,3,-1
291.5 595 m 5,0,-1
 291.5 114 l 1,1,2
 231.5 114 231.5 114 171.5 114 c 1,5,-1
 171.5 595 l 5,6,7
 231.5 595 231.5 595 291.5 595 c 5,0,-1
171.5 114 m 1025
171.5 114 m 132,-1,0
 171.5 139 171.5 139 189.5 156 c 4,1,2
 207.5 174 207.5 174 231.5 174 c 132,-1,3
 255.5 174 255.5 174 273.5 156.5 c 132,-1,4
 291.5 139 291.5 139 291.5 114.5 c 132,-1,5
 291.5 90 291.5 90 274 72 c 132,-1,6
 256.5 54 256.5 54 231.5 54 c 132,-1,7
 206.5 54 206.5 54 189.5 72 c 4,8,9
 171.5 89 171.5 89 171.5 114 c 132,-1,0
231.5 134 m 29,0,-1
 231.5 94 l 5,1,-1
 211.5 114 l 5,2,-1
 251.5 114 l 1029,3,-1
171.5 595 m 132,-1,0
 171.5 620 171.5 620 189.5 637 c 4,1,2
 207.5 655 207.5 655 231.5 655 c 132,-1,3
 255.5 655 255.5 655 273.5 637.5 c 132,-1,4
 291.5 620 291.5 620 291.5 595.5 c 132,-1,5
 291.5 571 291.5 571 274 553 c 132,-1,6
 256.5 535 256.5 535 231.5 535 c 132,-1,7
 206.5 535 206.5 535 189.5 553 c 4,8,9
 171.5 570 171.5 570 171.5 595 c 132,-1,0
231.5 615 m 29,0,-1
 231.5 575 l 5,1,-1
 211.5 595 l 5,2,-1
 251.5 595 l 1029,3,-1
159 595.5 m 5,0,-1
 640 595.5 l 1,1,2
 640 535.5 640 535.5 640 475.5 c 1,5,-1
 159 475.5 l 5,6,7
 159 535.5 159 535.5 159 595.5 c 5,0,-1
640 475.5 m 1025
640 475.5 m 132,-1,0
 615 475.5 615 475.5 598 493.5 c 4,1,2
 580 511.5 580 511.5 580 535.5 c 132,-1,3
 580 559.5 580 559.5 597.5 577.5 c 132,-1,4
 615 595.5 615 595.5 639.5 595.5 c 132,-1,5
 664 595.5 664 595.5 682 578 c 132,-1,6
 700 560.5 700 560.5 700 535.5 c 132,-1,7
 700 510.5 700 510.5 682 493.5 c 4,8,9
 665 475.5 665 475.5 640 475.5 c 132,-1,0
620 535.5 m 29,0,-1
 660 535.5 l 5,1,-1
 640 515.5 l 5,2,-1
 640 555.5 l 1029,3,-1
159 475.5 m 132,-1,0
 134 475.5 134 475.5 117 493.5 c 4,1,2
 99 511.5 99 511.5 99 535.5 c 132,-1,3
 99 559.5 99 559.5 116.5 577.5 c 132,-1,4
 134 595.5 134 595.5 158.5 595.5 c 132,-1,5
 183 595.5 183 595.5 201 578 c 132,-1,6
 219 560.5 219 560.5 219 535.5 c 132,-1,7
 219 510.5 219 510.5 201 493.5 c 4,8,9
 184 475.5 184 475.5 159 475.5 c 132,-1,0
139 535.5 m 29,0,-1
 179 535.5 l 5,1,-1
 159 515.5 l 5,2,-1
 159 555.5 l 1029,3,-1
160 330.5 m 5,0,-1
 641 330.5 l 1,1,2
 641 270.5 641 270.5 641 210.5 c 1,5,-1
 160 210.5 l 5,6,7
 160 270.5 160 270.5 160 330.5 c 5,0,-1
641 210.5 m 1025
641 210.5 m 132,-1,0
 616 210.5 616 210.5 599 228.5 c 4,1,2
 581 246.5 581 246.5 581 270.5 c 132,-1,3
 581 294.5 581 294.5 598.5 312.5 c 132,-1,4
 616 330.5 616 330.5 640.5 330.5 c 132,-1,5
 665 330.5 665 330.5 683 313 c 132,-1,6
 701 295.5 701 295.5 701 270.5 c 132,-1,7
 701 245.5 701 245.5 683 228.5 c 4,8,9
 666 210.5 666 210.5 641 210.5 c 132,-1,0
621 270.5 m 29,0,-1
 661 270.5 l 5,1,-1
 641 250.5 l 5,2,-1
 641 290.5 l 1029,3,-1
160 210.5 m 132,-1,0
 135 210.5 135 210.5 118 228.5 c 4,1,2
 100 246.5 100 246.5 100 270.5 c 132,-1,3
 100 294.5 100 294.5 117.5 312.5 c 132,-1,4
 135 330.5 135 330.5 159.5 330.5 c 132,-1,5
 184 330.5 184 330.5 202 313 c 132,-1,6
 220 295.5 220 295.5 220 270.5 c 132,-1,7
 220 245.5 220 245.5 202 228.5 c 4,8,9
 185 210.5 185 210.5 160 210.5 c 132,-1,0
140 270.5 m 29,0,-1
 180 270.5 l 5,1,-1
 160 250.5 l 5,2,-1
 160 290.5 l 1029,3,-1
EndSplineSet
EndChar

StartChar: dollar
Encoding: 36 36 8
Width: 852
GlyphClass: 2
Flags: W
LayerCount: 3
Fore
SplineSet
851.75390625 1173.01171875 m 1,0,-1
 733.75390625 1172.87890625 l 1,1,2
 733.75390625 1288.87890625 733.75390625 1288.87890625 597.75390625 1376.37890625 c 0,3,4
 552.75390625 1404.87890625 552.75390625 1404.87890625 450.75390625 1404.87890625 c 0,5,6
 348.75390625 1404.87890625 348.75390625 1404.87890625 310.75390625 1376.87890625 c 0,7,8
 193.75390625 1289.87890625 193.75390625 1289.87890625 193.870117188 1172.87890625 c 1,9,-1
 74 1173.01171875 l 1,10,11
 73.75390625 1324.87890625 73.75390625 1324.87890625 191.75390625 1427.37890625 c 0,12,13
 301.75390625 1523.87890625 301.75390625 1523.87890625 452.127929688 1524.13964844 c 0,14,15
 607.75390625 1523.87890625 607.75390625 1523.87890625 729.008789062 1426.39648438 c 0,16,17
 851.75390625 1326.87890625 851.75390625 1326.87890625 851.75390625 1173.01171875 c 1,0,-1
450.75390625 1403.87890625 m 132,-1,0
 425.75390625 1403.87890625 425.75390625 1403.87890625 408.75390625 1421.87890625 c 4,1,2
 390.75390625 1439.87890625 390.75390625 1439.87890625 390.75390625 1463.87890625 c 132,-1,3
 390.75390625 1487.87890625 390.75390625 1487.87890625 408.25390625 1505.87890625 c 132,-1,4
 425.75390625 1523.87890625 425.75390625 1523.87890625 450.25390625 1523.87890625 c 132,-1,5
 474.75390625 1523.87890625 474.75390625 1523.87890625 492.75390625 1506.37890625 c 132,-1,6
 510.75390625 1488.87890625 510.75390625 1488.87890625 510.75390625 1463.87890625 c 132,-1,7
 510.75390625 1438.87890625 510.75390625 1438.87890625 492.75390625 1421.87890625 c 4,8,9
 475.75390625 1403.87890625 475.75390625 1403.87890625 450.75390625 1403.87890625 c 132,-1,0
430.75390625 1463.87890625 m 29,0,-1
 470.75390625 1463.87890625 l 5,1,-1
 450.75390625 1443.87890625 l 5,2,-1
 450.75390625 1483.87890625 l 1029,3,-1
792.75390625 1112.87890625 m 132,-1,0
 767.75390625 1112.87890625 767.75390625 1112.87890625 750.75390625 1130.87890625 c 4,1,2
 732.75390625 1148.87890625 732.75390625 1148.87890625 732.75390625 1172.87890625 c 132,-1,3
 732.75390625 1196.87890625 732.75390625 1196.87890625 750.25390625 1214.87890625 c 132,-1,4
 767.75390625 1232.87890625 767.75390625 1232.87890625 792.25390625 1232.87890625 c 132,-1,5
 816.75390625 1232.87890625 816.75390625 1232.87890625 834.75390625 1215.37890625 c 132,-1,6
 852.75390625 1197.87890625 852.75390625 1197.87890625 852.75390625 1172.87890625 c 132,-1,7
 852.75390625 1147.87890625 852.75390625 1147.87890625 834.75390625 1130.87890625 c 4,8,9
 817.75390625 1112.87890625 817.75390625 1112.87890625 792.75390625 1112.87890625 c 132,-1,0
772.75390625 1172.87890625 m 29,0,-1
 812.75390625 1172.87890625 l 5,1,-1
 792.75390625 1152.87890625 l 5,2,-1
 792.75390625 1192.87890625 l 1029,3,-1
134.75390625 1112.87890625 m 132,-1,0
 109.75390625 1112.87890625 109.75390625 1112.87890625 92.75390625 1130.87890625 c 4,1,2
 74.75390625 1148.87890625 74.75390625 1148.87890625 74.75390625 1172.87890625 c 132,-1,3
 74.75390625 1196.87890625 74.75390625 1196.87890625 92.25390625 1214.87890625 c 132,-1,4
 109.75390625 1232.87890625 109.75390625 1232.87890625 134.25390625 1232.87890625 c 132,-1,5
 158.75390625 1232.87890625 158.75390625 1232.87890625 176.75390625 1215.37890625 c 132,-1,6
 194.75390625 1197.87890625 194.75390625 1197.87890625 194.75390625 1172.87890625 c 132,-1,7
 194.75390625 1147.87890625 194.75390625 1147.87890625 176.75390625 1130.87890625 c 4,8,9
 159.75390625 1112.87890625 159.75390625 1112.87890625 134.75390625 1112.87890625 c 132,-1,0
114.75390625 1172.87890625 m 29,0,-1
 154.75390625 1172.87890625 l 5,1,-1
 134.75390625 1152.87890625 l 5,2,-1
 134.75390625 1192.87890625 l 1029,3,-1
427.127929688 1527.75390625 m 1,0,-1
 427.260742188 1409.75390625 l 1,1,2
 311.260742188 1409.75390625 311.260742188 1409.75390625 223.760742188 1273.75390625 c 0,3,4
 195.260742188 1228.75390625 195.260742188 1228.75390625 195.260742188 1126.75390625 c 0,5,6
 195.260742188 1024.75390625 195.260742188 1024.75390625 223.260742188 986.75390625 c 0,7,8
 310.260742188 869.75390625 310.260742188 869.75390625 427.260742188 869.870117188 c 1,9,-1
 427.127929688 750 l 1,10,11
 275.260742188 749.75390625 275.260742188 749.75390625 172.760742188 867.75390625 c 0,12,13
 76.2607421875 977.75390625 76.2607421875 977.75390625 76 1128.12792969 c 0,14,15
 76.2607421875 1283.75390625 76.2607421875 1283.75390625 173.743164062 1405.00878906 c 0,16,17
 273.260742188 1527.75390625 273.260742188 1527.75390625 427.127929688 1527.75390625 c 1,0,-1
196.260742188 1126.75390625 m 132,-1,0
 196.260742188 1101.75390625 196.260742188 1101.75390625 178.260742188 1084.75390625 c 4,1,2
 160.260742188 1066.75390625 160.260742188 1066.75390625 136.260742188 1066.75390625 c 132,-1,3
 112.260742188 1066.75390625 112.260742188 1066.75390625 94.2607421875 1084.25390625 c 132,-1,4
 76.2607421875 1101.75390625 76.2607421875 1101.75390625 76.2607421875 1126.25390625 c 132,-1,5
 76.2607421875 1150.75390625 76.2607421875 1150.75390625 93.7607421875 1168.75390625 c 132,-1,6
 111.260742188 1186.75390625 111.260742188 1186.75390625 136.260742188 1186.75390625 c 132,-1,7
 161.260742188 1186.75390625 161.260742188 1186.75390625 178.260742188 1168.75390625 c 4,8,9
 196.260742188 1151.75390625 196.260742188 1151.75390625 196.260742188 1126.75390625 c 132,-1,0
136.260742188 1106.75390625 m 29,0,-1
 136.260742188 1146.75390625 l 5,1,-1
 156.260742188 1126.75390625 l 5,2,-1
 116.260742188 1126.75390625 l 1029,3,-1
487.260742188 1468.75390625 m 132,-1,0
 487.260742188 1443.75390625 487.260742188 1443.75390625 469.260742188 1426.75390625 c 4,1,2
 451.260742188 1408.75390625 451.260742188 1408.75390625 427.260742188 1408.75390625 c 132,-1,3
 403.260742188 1408.75390625 403.260742188 1408.75390625 385.260742188 1426.25390625 c 132,-1,4
 367.260742188 1443.75390625 367.260742188 1443.75390625 367.260742188 1468.25390625 c 132,-1,5
 367.260742188 1492.75390625 367.260742188 1492.75390625 384.760742188 1510.75390625 c 132,-1,6
 402.260742188 1528.75390625 402.260742188 1528.75390625 427.260742188 1528.75390625 c 132,-1,7
 452.260742188 1528.75390625 452.260742188 1528.75390625 469.260742188 1510.75390625 c 4,8,9
 487.260742188 1493.75390625 487.260742188 1493.75390625 487.260742188 1468.75390625 c 132,-1,0
427.260742188 1448.75390625 m 29,0,-1
 427.260742188 1488.75390625 l 5,1,-1
 447.260742188 1468.75390625 l 5,2,-1
 407.260742188 1468.75390625 l 1029,3,-1
487.260742188 810.75390625 m 132,-1,0
 487.260742188 785.75390625 487.260742188 785.75390625 469.260742188 768.75390625 c 4,1,2
 451.260742188 750.75390625 451.260742188 750.75390625 427.260742188 750.75390625 c 132,-1,3
 403.260742188 750.75390625 403.260742188 750.75390625 385.260742188 768.25390625 c 132,-1,4
 367.260742188 785.75390625 367.260742188 785.75390625 367.260742188 810.25390625 c 132,-1,5
 367.260742188 834.75390625 367.260742188 834.75390625 384.760742188 852.75390625 c 132,-1,6
 402.260742188 870.75390625 402.260742188 870.75390625 427.260742188 870.75390625 c 132,-1,7
 452.260742188 870.75390625 452.260742188 870.75390625 469.260742188 852.75390625 c 4,8,9
 487.260742188 835.75390625 487.260742188 835.75390625 487.260742188 810.75390625 c 132,-1,0
427.260742188 790.75390625 m 29,0,-1
 427.260742188 830.75390625 l 5,1,-1
 447.260742188 810.75390625 l 5,2,-1
 407.260742188 810.75390625 l 1029,3,-1
1 444.7421875 m 1,0,-1
 119 444.875 l 1,1,2
 119 328.875 119 328.875 255 241.375 c 0,3,4
 300 212.875 300 212.875 402 212.875 c 0,5,6
 504 212.875 504 212.875 542 240.875 c 0,7,8
 659 327.875 659 327.875 658.883789062 444.875 c 1,9,-1
 778.75390625 444.7421875 l 1,10,11
 779 292.875 779 292.875 661 190.375 c 0,12,13
 551 93.875 551 93.875 400.625976562 93.6142578125 c 0,14,15
 245 93.875 245 93.875 123.745117188 191.357421875 c 0,16,17
 1 290.875 1 290.875 1 444.7421875 c 1,0,-1
402 213.875 m 132,-1,0
 427 213.875 427 213.875 444 195.875 c 4,1,2
 462 177.875 462 177.875 462 153.875 c 132,-1,3
 462 129.875 462 129.875 444.5 111.875 c 132,-1,4
 427 93.875 427 93.875 402.5 93.875 c 132,-1,5
 378 93.875 378 93.875 360 111.375 c 132,-1,6
 342 128.875 342 128.875 342 153.875 c 132,-1,7
 342 178.875 342 178.875 360 195.875 c 4,8,9
 377 213.875 377 213.875 402 213.875 c 132,-1,0
422 153.875 m 29,0,-1
 382 153.875 l 5,1,-1
 402 173.875 l 5,2,-1
 402 133.875 l 1029,3,-1
60 504.875 m 132,-1,0
 85 504.875 85 504.875 102 486.875 c 4,1,2
 120 468.875 120 468.875 120 444.875 c 132,-1,3
 120 420.875 120 420.875 102.5 402.875 c 132,-1,4
 85 384.875 85 384.875 60.5 384.875 c 132,-1,5
 36 384.875 36 384.875 18 402.375 c 132,-1,6
 0 419.875 0 419.875 0 444.875 c 132,-1,7
 0 469.875 0 469.875 18 486.875 c 4,8,9
 35 504.875 35 504.875 60 504.875 c 132,-1,0
80 444.875 m 29,0,-1
 40 444.875 l 5,1,-1
 60 464.875 l 5,2,-1
 60 424.875 l 1029,3,-1
718 504.875 m 132,-1,0
 743 504.875 743 504.875 760 486.875 c 4,1,2
 778 468.875 778 468.875 778 444.875 c 132,-1,3
 778 420.875 778 420.875 760.5 402.875 c 132,-1,4
 743 384.875 743 384.875 718.5 384.875 c 132,-1,5
 694 384.875 694 384.875 676 402.375 c 132,-1,6
 658 419.875 658 419.875 658 444.875 c 132,-1,7
 658 469.875 658 469.875 676 486.875 c 4,8,9
 693 504.875 693 504.875 718 504.875 c 132,-1,0
738 444.875 m 29,0,-1
 698 444.875 l 5,1,-1
 718 464.875 l 5,2,-1
 718 424.875 l 1029,3,-1
429.1328125 92 m 1,0,-1
 429 210 l 1,1,2
 545 210 545 210 632.5 346 c 0,3,4
 661 391 661 391 661 493 c 0,5,6
 661 595 661 595 633 633 c 0,7,8
 546 750 546 750 429 749.883789062 c 1,9,-1
 429.1328125 869.75390625 l 1,10,11
 581 870 581 870 683.5 752 c 0,12,13
 780 642 780 642 780.260742188 491.625976562 c 0,14,15
 780 336 780 336 682.517578125 214.745117188 c 0,16,17
 583 92 583 92 429.1328125 92 c 1,0,-1
660 493 m 132,-1,0
 660 518 660 518 678 535 c 4,1,2
 696 553 696 553 720 553 c 132,-1,3
 744 553 744 553 762 535.5 c 132,-1,4
 780 518 780 518 780 493.5 c 132,-1,5
 780 469 780 469 762.5 451 c 132,-1,6
 745 433 745 433 720 433 c 132,-1,7
 695 433 695 433 678 451 c 4,8,9
 660 468 660 468 660 493 c 132,-1,0
720 513 m 29,0,-1
 720 473 l 5,1,-1
 700 493 l 5,2,-1
 740 493 l 1029,3,-1
369 151 m 132,-1,0
 369 176 369 176 387 193 c 4,1,2
 405 211 405 211 429 211 c 132,-1,3
 453 211 453 211 471 193.5 c 132,-1,4
 489 176 489 176 489 151.5 c 132,-1,5
 489 127 489 127 471.5 109 c 132,-1,6
 454 91 454 91 429 91 c 132,-1,7
 404 91 404 91 387 109 c 4,8,9
 369 126 369 126 369 151 c 132,-1,0
429 171 m 29,0,-1
 429 131 l 5,1,-1
 409 151 l 5,2,-1
 449 151 l 1029,3,-1
369 809 m 132,-1,0
 369 834 369 834 387 851 c 4,1,2
 405 869 405 869 429 869 c 132,-1,3
 453 869 453 869 471 851.5 c 132,-1,4
 489 834 489 834 489 809.5 c 132,-1,5
 489 785 489 785 471.5 767 c 132,-1,6
 454 749 454 749 429 749 c 132,-1,7
 404 749 404 749 387 767 c 4,8,9
 369 784 369 784 369 809 c 132,-1,0
429 829 m 29,0,-1
 429 789 l 5,1,-1
 409 809 l 5,2,-1
 449 809 l 1029,3,-1
490 1694 m 5,0,-1
 490 14 l 1,1,2
 430 14 430 14 370 14 c 1,5,-1
 370 1694 l 5,6,7
 370 1694 370 1694 490 1694 c 5,0,-1
370 14 m 1025
370 14 m 132,-1,0
 370 39 370 39 388 56 c 4,1,2
 406 74 406 74 430 74 c 132,-1,3
 454 74 454 74 472 56.5 c 132,-1,4
 490 39 490 39 490 14.5 c 132,-1,5
 490 -10 490 -10 472.5 -28 c 132,-1,6
 455 -46 455 -46 430 -46 c 132,-1,7
 405 -46 405 -46 388 -28 c 4,8,9
 370 -11 370 -11 370 14 c 132,-1,0
430 34 m 29,0,-1
 430 -6 l 5,1,-1
 410 14 l 5,2,-1
 450 14 l 1029,3,-1
370 1694 m 132,-1,0
 370 1719 370 1719 388 1736 c 4,1,2
 406 1754 406 1754 430 1754 c 132,-1,3
 454 1754 454 1754 472 1736.5 c 132,-1,4
 490 1719 490 1719 490 1694.5 c 132,-1,5
 490 1670 490 1670 472.5 1652 c 132,-1,6
 455 1634 455 1634 430 1634 c 132,-1,7
 405 1634 405 1634 388 1652 c 4,8,9
 370 1669 370 1669 370 1694 c 132,-1,0
430 1714 m 29,0,-1
 430 1674 l 5,1,-1
 410 1694 l 5,2,-1
 450 1694 l 1029,3,-1
EndSplineSet
EndChar

StartChar: percent
Encoding: 37 37 9
Width: 2128
GlyphClass: 2
Flags: W
LayerCount: 3
Fore
SplineSet
179 873.853515625 m 0,0,1
 178.856445312 820 178.856445312 820 208.962890625 788.453125 c 0,2,3
 241.856445312 754 241.856445312 754 298.856445312 753.890625 c 0,4,5
 358.856445312 754 358.856445312 754 388.75 783.959960938 c 0,6,7
 420.856445312 816 420.856445312 816 420.712890625 873.853515625 c 4,8,9
 420.856445312 928 420.856445312 928 386.254882812 962.244140625 c 0,10,11
 352.856445312 994 352.856445312 994 298.856445312 994.311523438 c 0,12,13
 240.856445312 994 240.856445312 994 212.461914062 962.244140625 c 0,14,15
 178.856445312 925 178.856445312 925 179 873.853515625 c 0,0,1
59.048828125 874.959960938 m 0,16,17
 58.8564453125 970 58.8564453125 970 131.81640625 1042 c 128,-1,18
 204.856445312 1114 204.856445312 1114 300.416992188 1113.80761719 c 128,-1,19
 395.856445312 1114 395.856445312 1114 468.356445312 1042 c 128,-1,20
 540.856445312 970 540.856445312 970 540.6640625 874.959960938 c 4,21,22
 540.856445312 777 540.856445312 777 468.356445312 705.5 c 128,-1,23
 395.856445312 634 395.856445312 634 300.416992188 634.192382812 c 128,-1,24
 204.856445312 634 204.856445312 634 131.879882812 705.821289062 c 128,-1,25
 58.8564453125 777 58.8564453125 777 59.048828125 874.959960938 c 0,16,17
238.856445312 694 m 132,-1,0
 238.856445312 719 238.856445312 719 256.856445312 736 c 4,1,2
 274.856445312 754 274.856445312 754 298.856445312 754 c 132,-1,3
 322.856445312 754 322.856445312 754 340.856445312 736.5 c 132,-1,4
 358.856445312 719 358.856445312 719 358.856445312 694.5 c 132,-1,5
 358.856445312 670 358.856445312 670 341.356445312 652 c 132,-1,6
 323.856445312 634 323.856445312 634 298.856445312 634 c 132,-1,7
 273.856445312 634 273.856445312 634 256.856445312 652 c 4,8,9
 238.856445312 669 238.856445312 669 238.856445312 694 c 132,-1,0
298.856445312 714 m 29,0,-1
 298.856445312 674 l 5,1,-1
 278.856445312 694 l 5,2,-1
 318.856445312 694 l 1029,3,-1
420.856445312 874 m 132,-1,0
 420.856445312 899 420.856445312 899 438.856445312 916 c 4,1,2
 456.856445312 934 456.856445312 934 480.856445312 934 c 132,-1,3
 504.856445312 934 504.856445312 934 522.856445312 916.5 c 132,-1,4
 540.856445312 899 540.856445312 899 540.856445312 874.5 c 132,-1,5
 540.856445312 850 540.856445312 850 523.356445312 832 c 132,-1,6
 505.856445312 814 505.856445312 814 480.856445312 814 c 132,-1,7
 455.856445312 814 455.856445312 814 438.856445312 832 c 4,8,9
 420.856445312 849 420.856445312 849 420.856445312 874 c 132,-1,0
480.856445312 894 m 29,0,-1
 480.856445312 854 l 5,1,-1
 460.856445312 874 l 5,2,-1
 500.856445312 874 l 1029,3,-1
238.856445312 1054 m 132,-1,0
 238.856445312 1079 238.856445312 1079 256.856445312 1096 c 4,1,2
 274.856445312 1114 274.856445312 1114 298.856445312 1114 c 132,-1,3
 322.856445312 1114 322.856445312 1114 340.856445312 1096.5 c 132,-1,4
 358.856445312 1079 358.856445312 1079 358.856445312 1054.5 c 132,-1,5
 358.856445312 1030 358.856445312 1030 341.356445312 1012 c 132,-1,6
 323.856445312 994 323.856445312 994 298.856445312 994 c 132,-1,7
 273.856445312 994 273.856445312 994 256.856445312 1012 c 4,8,9
 238.856445312 1029 238.856445312 1029 238.856445312 1054 c 132,-1,0
298.856445312 1074 m 29,0,-1
 298.856445312 1034 l 5,1,-1
 278.856445312 1054 l 5,2,-1
 318.856445312 1054 l 1029,3,-1
59 873.853515625 m 132,-1,0
 59 898.853515625 59 898.853515625 77 915.853515625 c 4,1,2
 95 933.853515625 95 933.853515625 119 933.853515625 c 132,-1,3
 143 933.853515625 143 933.853515625 161 916.353515625 c 132,-1,4
 179 898.853515625 179 898.853515625 179 874.353515625 c 132,-1,5
 179 849.853515625 179 849.853515625 161.5 831.853515625 c 132,-1,6
 144 813.853515625 144 813.853515625 119 813.853515625 c 132,-1,7
 94 813.853515625 94 813.853515625 77 831.853515625 c 4,8,9
 59 848.853515625 59 848.853515625 59 873.853515625 c 132,-1,0
119 893.853515625 m 29,0,-1
 119 853.853515625 l 5,1,-1
 99 873.853515625 l 5,2,-1
 139 873.853515625 l 1029,3,-1
852 277.853515625 m 0,0,1
 851.856445312 224 851.856445312 224 881.962890625 192.453125 c 0,2,3
 914.856445312 158 914.856445312 158 971.856445312 157.890625 c 0,4,5
 1031.85644531 158 1031.85644531 158 1061.75 187.959960938 c 0,6,7
 1093.85644531 220 1093.85644531 220 1093.71289062 277.853515625 c 4,8,9
 1093.85644531 332 1093.85644531 332 1059.25488281 366.244140625 c 0,10,11
 1025.85644531 398 1025.85644531 398 971.856445312 398.311523438 c 0,12,13
 913.856445312 398 913.856445312 398 885.461914062 366.244140625 c 0,14,15
 851.856445312 329 851.856445312 329 852 277.853515625 c 0,0,1
732.048828125 278.959960938 m 0,16,17
 731.856445312 374 731.856445312 374 804.81640625 446 c 128,-1,18
 877.856445312 518 877.856445312 518 973.416992188 517.807617188 c 128,-1,19
 1068.85644531 518 1068.85644531 518 1141.35644531 446 c 128,-1,20
 1213.85644531 374 1213.85644531 374 1213.6640625 278.959960938 c 4,21,22
 1213.85644531 181 1213.85644531 181 1141.35644531 109.5 c 128,-1,23
 1068.85644531 38 1068.85644531 38 973.416992188 38.1923828125 c 128,-1,24
 877.856445312 38 877.856445312 38 804.879882812 109.821289062 c 128,-1,25
 731.856445312 181 731.856445312 181 732.048828125 278.959960938 c 0,16,17
911.856445312 98 m 132,-1,0
 911.856445312 123 911.856445312 123 929.856445312 140 c 4,1,2
 947.856445312 158 947.856445312 158 971.856445312 158 c 132,-1,3
 995.856445312 158 995.856445312 158 1013.85644531 140.5 c 132,-1,4
 1031.85644531 123 1031.85644531 123 1031.85644531 98.5 c 132,-1,5
 1031.85644531 74 1031.85644531 74 1014.35644531 56 c 132,-1,6
 996.856445312 38 996.856445312 38 971.856445312 38 c 132,-1,7
 946.856445312 38 946.856445312 38 929.856445312 56 c 4,8,9
 911.856445312 73 911.856445312 73 911.856445312 98 c 132,-1,0
971.856445312 118 m 29,0,-1
 971.856445312 78 l 5,1,-1
 951.856445312 98 l 5,2,-1
 991.856445312 98 l 1029,3,-1
1093.85644531 278 m 132,-1,0
 1093.85644531 303 1093.85644531 303 1111.85644531 320 c 4,1,2
 1129.85644531 338 1129.85644531 338 1153.85644531 338 c 132,-1,3
 1177.85644531 338 1177.85644531 338 1195.85644531 320.5 c 132,-1,4
 1213.85644531 303 1213.85644531 303 1213.85644531 278.5 c 132,-1,5
 1213.85644531 254 1213.85644531 254 1196.35644531 236 c 132,-1,6
 1178.85644531 218 1178.85644531 218 1153.85644531 218 c 132,-1,7
 1128.85644531 218 1128.85644531 218 1111.85644531 236 c 4,8,9
 1093.85644531 253 1093.85644531 253 1093.85644531 278 c 132,-1,0
1153.85644531 298 m 29,0,-1
 1153.85644531 258 l 5,1,-1
 1133.85644531 278 l 5,2,-1
 1173.85644531 278 l 1029,3,-1
911.856445312 458 m 132,-1,0
 911.856445312 483 911.856445312 483 929.856445312 500 c 4,1,2
 947.856445312 518 947.856445312 518 971.856445312 518 c 132,-1,3
 995.856445312 518 995.856445312 518 1013.85644531 500.5 c 132,-1,4
 1031.85644531 483 1031.85644531 483 1031.85644531 458.5 c 132,-1,5
 1031.85644531 434 1031.85644531 434 1014.35644531 416 c 132,-1,6
 996.856445312 398 996.856445312 398 971.856445312 398 c 132,-1,7
 946.856445312 398 946.856445312 398 929.856445312 416 c 4,8,9
 911.856445312 433 911.856445312 433 911.856445312 458 c 132,-1,0
971.856445312 478 m 29,0,-1
 971.856445312 438 l 5,1,-1
 951.856445312 458 l 5,2,-1
 991.856445312 458 l 1029,3,-1
732 277.853515625 m 132,-1,0
 732 302.853515625 732 302.853515625 750 319.853515625 c 4,1,2
 768 337.853515625 768 337.853515625 792 337.853515625 c 132,-1,3
 816 337.853515625 816 337.853515625 834 320.353515625 c 132,-1,4
 852 302.853515625 852 302.853515625 852 278.353515625 c 132,-1,5
 852 253.853515625 852 253.853515625 834.5 235.853515625 c 132,-1,6
 817 217.853515625 817 217.853515625 792 217.853515625 c 132,-1,7
 767 217.853515625 767 217.853515625 750 235.853515625 c 4,8,9
 732 252.853515625 732 252.853515625 732 277.853515625 c 132,-1,0
792 297.853515625 m 29,0,-1
 792 257.853515625 l 5,1,-1
 772 277.853515625 l 5,2,-1
 812 277.853515625 l 1029,3,-1
790.564453125 283.833007812 m 5,0,-1
 269.654296875 -153.262695312 l 1,1,2
 231.086914062 -107.299804688 231.086914062 -107.299804688 192.51953125 -61.3369140625 c 1,5,-1
 713.4296875 375.758789062 l 5,6,7
 751.997070312 329.795898438 751.997070312 329.795898438 790.564453125 283.833007812 c 5,0,-1
192.51953125 -61.3369140625 m 1025
192.51953125 -61.3369140625 m 132,-1,0
 211.670898438 -45.267578125 211.670898438 -45.267578125 236.263671875 -48.12890625 c 4,1,2
 261.623046875 -50.34765625 261.623046875 -50.34765625 277.049804688 -68.732421875 c 132,-1,3
 292.4765625 -87.1171875 292.4765625 -87.1171875 290.640625 -112.155273438 c 132,-1,4
 288.805664062 -137.192382812 288.805664062 -137.192382812 270.037109375 -152.94140625 c 132,-1,5
 251.26953125 -168.689453125 251.26953125 -168.689453125 226.231445312 -166.853515625 c 132,-1,6
 201.194335938 -165.018554688 201.194335938 -165.018554688 185.124023438 -145.8671875 c 132,-1,7
 169.0546875 -126.715820312 169.0546875 -126.715820312 171.916015625 -102.123046875 c 4,8,9
 173.368164062 -77.4072265625 173.368164062 -77.4072265625 192.51953125 -61.3369140625 c 132,-1,0
246.408203125 -94.4443359375 m 29,0,-1
 215.765625 -120.155273438 l 5,1,-1
 218.231445312 -91.978515625 l 5,2,-1
 243.942382812 -122.62109375 l 1029,3,-1
713.4296875 375.758789062 m 132,-1,0
 732.581054688 391.828125 732.581054688 391.828125 757.173828125 388.966796875 c 4,1,2
 782.532226562 386.748046875 782.532226562 386.748046875 797.959960938 368.36328125 c 132,-1,3
 813.38671875 349.978515625 813.38671875 349.978515625 811.55078125 324.940429688 c 132,-1,4
 809.71484375 299.903320312 809.71484375 299.903320312 790.947265625 284.155273438 c 132,-1,5
 772.178710938 268.40625 772.178710938 268.40625 747.141601562 270.2421875 c 132,-1,6
 722.103515625 272.078125 722.103515625 272.078125 706.034179688 291.228515625 c 132,-1,7
 689.96484375 310.379882812 689.96484375 310.379882812 692.826171875 334.97265625 c 4,8,9
 694.278320312 359.689453125 694.278320312 359.689453125 713.4296875 375.758789062 c 132,-1,0
767.317382812 342.651367188 m 29,0,-1
 736.67578125 316.940429688 l 5,1,-1
 739.140625 345.1171875 l 5,2,-1
 764.852539062 314.475585938 l 1029,3,-1
950.20703125 1126.42675781 m 5,0,-1
 429.296875 689.331054688 l 1,1,2
 390.729492188 735.293945312 390.729492188 735.293945312 352.163085938 781.255859375 c 1,5,-1
 873.072265625 1218.35253906 l 5,6,7
 911.639648438 1172.38964844 911.639648438 1172.38964844 950.20703125 1126.42675781 c 5,0,-1
352.163085938 781.255859375 m 1025
352.163085938 781.255859375 m 132,-1,0
 371.313476562 797.326171875 371.313476562 797.326171875 395.90625 794.46484375 c 4,1,2
 421.265625 792.24609375 421.265625 792.24609375 436.692382812 773.861328125 c 132,-1,3
 452.119140625 755.475585938 452.119140625 755.475585938 450.284179688 730.438476562 c 132,-1,4
 448.448242188 705.400390625 448.448242188 705.400390625 429.680664062 689.65234375 c 132,-1,5
 410.912109375 673.904296875 410.912109375 673.904296875 385.875 675.739257812 c 132,-1,6
 360.836914062 677.575195312 360.836914062 677.575195312 344.767578125 696.7265625 c 132,-1,7
 328.697265625 715.877929688 328.697265625 715.877929688 331.55859375 740.470703125 c 4,8,9
 333.01171875 765.186523438 333.01171875 765.186523438 352.163085938 781.255859375 c 132,-1,0
406.05078125 748.149414062 m 29,0,-1
 375.409179688 722.4375 l 5,1,-1
 377.874023438 750.614257812 l 5,2,-1
 403.5859375 719.97265625 l 1029,3,-1
873.072265625 1218.35253906 m 132,-1,0
 892.223632812 1234.421875 892.223632812 1234.421875 916.81640625 1231.56054688 c 4,1,2
 942.17578125 1229.34179688 942.17578125 1229.34179688 957.602539062 1210.95703125 c 132,-1,3
 973.029296875 1192.57128906 973.029296875 1192.57128906 971.193359375 1167.53417969 c 132,-1,4
 969.358398438 1142.49609375 969.358398438 1142.49609375 950.58984375 1126.74804688 c 132,-1,5
 931.822265625 1111 931.822265625 1111 906.784179688 1112.8359375 c 132,-1,6
 881.747070312 1114.67089844 881.747070312 1114.67089844 865.676757812 1133.82226562 c 132,-1,7
 849.607421875 1152.97363281 849.607421875 1152.97363281 852.46875 1177.56640625 c 4,8,9
 853.921875 1202.28222656 853.921875 1202.28222656 873.072265625 1218.35253906 c 132,-1,0
926.9609375 1185.24511719 m 29,0,-1
 896.319335938 1159.53417969 l 5,1,-1
 898.784179688 1187.70996094 l 5,2,-1
 924.495117188 1157.06835938 l 1029,3,-1
1121.86328125 1317.88183594 m 5,0,-1
 281.86328125 -137.040039062 l 1,1,2
 229.901367188 -107.040039062 229.901367188 -107.040039062 177.940429688 -77.0400390625 c 1,5,-1
 1017.94042969 1377.88183594 l 5,6,7
 1017.94042969 1377.88183594 1017.94042969 1377.88183594 1121.86328125 1317.88183594 c 5,0,-1
177.940429688 -77.0400390625 m 1025
177.940429688 -77.0400390625 m 132,-1,0
 190.440429688 -55.3896484375 190.440429688 -55.3896484375 214.528320312 -49.6669921875 c 4,1,2
 239.1171875 -43.0791015625 239.1171875 -43.0791015625 259.901367188 -55.0791015625 c 132,-1,3
 280.686523438 -67.0791015625 280.686523438 -67.0791015625 287.524414062 -91.234375 c 132,-1,4
 294.36328125 -115.389648438 294.36328125 -115.389648438 282.11328125 -136.607421875 c 132,-1,5
 269.86328125 -157.825195312 269.86328125 -157.825195312 245.708007812 -164.663085938 c 132,-1,6
 221.551757812 -171.501953125 221.551757812 -171.501953125 199.901367188 -159.001953125 c 132,-1,7
 178.250976562 -146.501953125 178.250976562 -146.501953125 172.528320312 -122.413085938 c 4,8,9
 165.440429688 -98.69140625 165.440429688 -98.69140625 177.940429688 -77.0400390625 c 132,-1,0
239.901367188 -89.7197265625 m 29,0,-1
 219.901367188 -124.361328125 l 5,1,-1
 212.581054688 -97.0400390625 l 5,2,-1
 247.221679688 -117.040039062 l 1029,3,-1
1017.94042969 1377.88183594 m 132,-1,0
 1030.44042969 1399.53222656 1030.44042969 1399.53222656 1054.52832031 1405.25488281 c 4,1,2
 1079.1171875 1411.84277344 1079.1171875 1411.84277344 1099.90136719 1399.84277344 c 132,-1,3
 1120.68652344 1387.84277344 1120.68652344 1387.84277344 1127.52441406 1363.6875 c 132,-1,4
 1134.36328125 1339.53222656 1134.36328125 1339.53222656 1122.11328125 1318.31445312 c 132,-1,5
 1109.86328125 1297.09667969 1109.86328125 1297.09667969 1085.70800781 1290.25878906 c 132,-1,6
 1061.55175781 1283.41992188 1061.55175781 1283.41992188 1039.90136719 1295.91992188 c 132,-1,7
 1018.25097656 1308.41992188 1018.25097656 1308.41992188 1012.52832031 1332.50878906 c 4,8,9
 1005.44042969 1356.23046875 1005.44042969 1356.23046875 1017.94042969 1377.88183594 c 132,-1,0
1079.90136719 1365.20214844 m 29,0,-1
 1059.90136719 1330.56054688 l 5,1,-1
 1052.58105469 1357.88183594 l 5,2,-1
 1087.22167969 1337.88183594 l 1029,3,-1
EndSplineSet
Layer: 2
SplineSet
302 1216 m 4
 302 1305.33333333 332.666666667 1381.33333333 394 1444 c 4
 455.333333333 1505.33333333 531 1536 621 1536 c 4
 663 1536 704 1528 744 1512 c 4
 783.333333333 1495.33333333 817.666666667 1472.33333333 847 1443 c 132
 876.333333333 1413.66666667 899.333333333 1379.33333333 916 1340 c 4
 930 1307.33333333 938 1273 940 1237 c 5
 1563 2001 l 5
 1750 2001 l 5
 610 -474 l 5
 1264 391 l 6
 1270.66666667 399 1276 404.666666667 1280 408 c 4
 1341.33333333 470 1416.66666667 501 1506 501 c 4
 1548.66666667 501 1589.33333333 493 1628 477 c 4
 1666 461 1700.33333333 437.666666667 1731 407 c 4
 1761 377 1784.66666667 342 1802 302 c 4
 1818.66666667 264 1827 223.666666667 1827 181 c 4
 1827 92.3333333333 1796 17 1734 -45 c 132
 1672 -107 1596 -138 1506 -138 c 4
 1415.33333333 -138 1339.66666667 -107.333333333 1279 -46 c 4
 1230.33333333 2.66666666667 1201 61.3333333333 1191 130 c 5
 541 -749 l 5
 348 -749 l 5
 1532 1809 l 5
 848 990 l 5
 786 928 710.333333333 897 621 897 c 4
 531 897 455.333333333 927.666666667 394 989 c 132
 332.666666667 1050.33333333 302 1126 302 1216 c 4
437 1216 m 4
 437 1163.33333333 454.666666667 1119.33333333 490 1084 c 4
 524.666666667 1049.33333333 568.333333333 1032 621 1032 c 4
 672.333333333 1032 716 1050 752 1086 c 4
 788 1120.66666667 806 1164 806 1216 c 132
 806 1268 788 1311.33333333 752 1346 c 4
 716 1382 672.333333333 1400 621 1400 c 4
 570.333333333 1400 526.666666667 1382.33333333 490 1347 c 4
 454.666666667 1311.66666667 437 1268 437 1216 c 4
1323 181 m 4
 1323 128.333333333 1340.66666667 84.6666666667 1376 50 c 4
 1410 14.6666666667 1453.33333333 -3 1506 -3 c 4
 1557.33333333 -3 1600.66666667 14.6666666667 1636 50 c 4
 1672 86 1690 129.666666667 1690 181 c 132
 1690 232.333333333 1672 276 1636 312 c 132
 1600 348 1556.66666667 366 1506 366 c 4
 1453.33333333 366 1410 348.333333333 1376 313 c 4
 1340.66666667 278.333333333 1323 234.333333333 1323 181 c 4
EndSplineSet
EndChar

StartChar: ampersand
Encoding: 38 38 10
Width: 844
GlyphClass: 2
Flags: W
LayerCount: 3
Fore
SplineSet
130.01953125 332.239257812 m 4,0,1
 130.01953125 220.69140625 130.01953125 220.69140625 204.630859375 147.190429688 c 132,-1,2
 279.241210938 73.6875 279.241210938 73.6875 392.264648438 73.6875 c 4,3,4
 492.731445312 73.6875 492.731445312 73.6875 581.377929688 146.081054688 c 5,5,-1
 265.205078125 574.540039062 l 5,6,7
 202.4140625 524.306640625 202.4140625 524.306640625 166.217773438 467.055664062 c 132,-1,8
 130.01953125 409.8046875 130.01953125 409.8046875 130.01953125 332.239257812 c 4,0,1
321.348632812 708.987304688 m 5,9,10
 353.852539062 720.067382812 353.852539062 720.067382812 381.922851562 752.202148438 c 132,-1,11
 409.995117188 784.3359375 409.995117188 784.3359375 424.400390625 819.055664062 c 132,-1,12
 438.8046875 853.775390625 438.8046875 853.775390625 439.54296875 880.369140625 c 6,13,-1
 439.54296875 883.325195312 l 6,14,15
 439.54296875 906.224609375 439.54296875 906.224609375 424.400390625 927.278320312 c 132,-1,16
 409.256835938 948.331054688 409.256835938 948.331054688 386.35546875 960.151367188 c 4,17,18
 360.5 974.186523438 360.5 974.186523438 343.509765625 974.186523438 c 4,19,20
 325.041992188 974.186523438 325.041992188 974.186523438 303.618164062 956.45703125 c 4,21,22
 262.250976562 923.215820312 262.250976562 923.215820312 262.250976562 866.333984375 c 4,23,24
 262.250976562 824.227539062 262.250976562 824.227539062 277.763671875 788.029296875 c 132,-1,25
 293.27734375 751.833007812 293.27734375 751.833007812 321.348632812 708.987304688 c 5,9,10
204.630859375 657.276367188 m 5,26,27
 169.68359375 708 169.68359375 708 151.072265625 756.633789062 c 132,-1,28
 132.68359375 805 132.68359375 805 132.236328125 864.856445312 c 4,29,30
 132.68359375 976 132.68359375 976 206.108398438 1039.93359375 c 4,31,32
 239.68359375 1069 239.68359375 1069 267.421875 1082.77929688 c 132,-1,33
 295.68359375 1096 295.68359375 1096 335.384765625 1096.07519531 c 4,34,35
 355.68359375 1096 355.68359375 1096 376.752929688 1093.12109375 c 4,36,37
 429.68359375 1086 429.68359375 1086 486.821289062 1043.25683594 c 132,-1,38
 543.68359375 1001 543.68359375 1001 554.784179688 960.151367188 c 4,39,40
 563.68359375 927 563.68359375 927 563.6484375 895.143554688 c 4,41,42
 563.68359375 818 563.68359375 818 515.631835938 745.552734375 c 132,-1,43
 467.68359375 674 467.68359375 674 386.35546875 618.124023438 c 5,44,-1
 669.28515625 238.421875 l 5,45,46
 728.926757812 315.3125 728.926757812 315.3125 723.68359375 524 c 6,48,49
 723.68359375 524 723.68359375 524 723.211914062 542.775390625 c 5,50,-1
 844.361328125 542.775390625 l 5,51,-1
 844.361328125 513.963867188 l 6,52,53
 844.68359375 279 844.68359375 279 734.29296875 150.513671875 c 5,54,-1
 805.68359375 48 l 5,55,-1
 702.68359375 -22 l 5,56,-1
 644.907226562 61.8671875 l 5,57,58
 524.68359375 -40 524.68359375 -40 368.18359375 -40 c 132,-1,59
 211.68359375 -40 211.68359375 -40 105.641601562 58.54296875 c 132,-1,60
 0.68359375 156 0.68359375 156 0.005859375 309.338867188 c 4,61,62
 -0.31640625 369 -0.31640625 369 15.8876953125 421.625 c 132,-1,63
 31.68359375 474 31.68359375 474 61.6884765625 516.549804688 c 132,-1,64
 91.68359375 559 91.68359375 559 125.587890625 591.8984375 c 132,-1,65
 159.68359375 625 159.68359375 625 204.630859375 657.276367188 c 5,26,27
EndSplineSet
Refer: 286 57346 S 1 0 0 1 694.684 -47 2
Refer: 286 57346 S 1 0 0 1 723.684 483 2
EndChar

StartChar: parenleft
Encoding: 40 40 12
Width: 1334
GlyphClass: 2
Flags: W
LayerCount: 3
Fore
SplineSet
414.5 832.5 m 1,0,-1
 694.5 832.5 l 1,1,2
 694.5 772.5 694.5 772.5 694.5 712.5 c 1,5,-1
 414.5 712.5 l 1,6,7
 414.5 772.5 414.5 772.5 414.5 832.5 c 1,0,-1
694.5 712.5 m 1025
694.5 712.5 m 132,-1,0
 669.5 712.5 669.5 712.5 652.5 730.5 c 4,1,2
 634.5 748.5 634.5 748.5 634.5 772.5 c 132,-1,3
 634.5 796.5 634.5 796.5 652 814.5 c 132,-1,4
 669.5 832.5 669.5 832.5 694 832.5 c 132,-1,5
 718.5 832.5 718.5 832.5 736.5 815 c 132,-1,6
 754.5 797.5 754.5 797.5 754.5 772.5 c 132,-1,7
 754.5 747.5 754.5 747.5 736.5 730.5 c 4,8,9
 719.5 712.5 719.5 712.5 694.5 712.5 c 132,-1,0
674.5 772.5 m 29,0,-1
 714.5 772.5 l 5,1,-1
 694.5 752.5 l 5,2,-1
 694.5 792.5 l 1029,3,-1
414.5 712.5 m 132,-1,0
 389.5 712.5 389.5 712.5 372.5 730.5 c 4,1,2
 354.5 748.5 354.5 748.5 354.5 772.5 c 132,-1,3
 354.5 796.5 354.5 796.5 372 814.5 c 132,-1,4
 389.5 832.5 389.5 832.5 414 832.5 c 132,-1,5
 438.5 832.5 438.5 832.5 456.5 815 c 132,-1,6
 474.5 797.5 474.5 797.5 474.5 772.5 c 132,-1,7
 474.5 747.5 474.5 747.5 456.5 730.5 c 4,8,9
 439.5 712.5 439.5 712.5 414.5 712.5 c 132,-1,0
394.5 772.5 m 29,0,-1
 434.5 772.5 l 5,1,-1
 414.5 752.5 l 5,2,-1
 414.5 792.5 l 1029,3,-1
561 780 m 1,9,10
 609 177 609 177 717.5 -193 c 0,11,12
 807 -499 807 -499 978 -813 c 1,13,-1
 870 -874 l 1,14,15
 668 -506 668 -506 586 -213 c 0,16,17
 444 298 444 298 434 713 c 1,19,-1
 434 833 l 1,21,22
 426 1309 426 1309 528 1737 c 0,23,24
 641 2212 641 2212 897 2775 c 1,27,-1
 1005 2714 l 1,0,1
 781 2226 781 2226 656 1692 c 0,2,3
 558 1276 558 1276 561 780 c 1,9,10
EndSplineSet
Refer: 286 57346 N 1 0 0 1 891 2685 2
Refer: 286 57346 N 1 0 0 1 864 -903 2
EndChar

StartChar: asterisk
Encoding: 42 42 14
Width: 1233
GlyphClass: 2
Flags: W
LayerCount: 3
Fore
SplineSet
381 1388 m 5,0,-1
 381 708 l 1,1,2
 321 708 321 708 261 708 c 1,5,-1
 261 1388 l 5,6,7
 321 1388 321 1388 381 1388 c 5,0,-1
261 708 m 1025
261 708 m 132,-1,0
 261 733 261 733 279 750 c 4,1,2
 297 768 297 768 321 768 c 132,-1,3
 345 768 345 768 363 750.5 c 132,-1,4
 381 733 381 733 381 708.5 c 132,-1,5
 381 684 381 684 363.5 666 c 132,-1,6
 346 648 346 648 321 648 c 132,-1,7
 296 648 296 648 279 666 c 4,8,9
 261 683 261 683 261 708 c 132,-1,0
321 728 m 29,0,-1
 321 688 l 5,1,-1
 301 708 l 5,2,-1
 341 708 l 1029,3,-1
261 1388 m 132,-1,0
 261 1413 261 1413 279 1430 c 4,1,2
 297 1448 297 1448 321 1448 c 132,-1,3
 345 1448 345 1448 363 1430.5 c 132,-1,4
 381 1413 381 1413 381 1388.5 c 132,-1,5
 381 1364 381 1364 363.5 1346 c 132,-1,6
 346 1328 346 1328 321 1328 c 132,-1,7
 296 1328 296 1328 279 1346 c 4,8,9
 261 1363 261 1363 261 1388 c 132,-1,0
321 1408 m 29,0,-1
 321 1368 l 5,1,-1
 301 1388 l 5,2,-1
 341 1388 l 1029,3,-1
156.728515625 1366.41308594 m 5,0,-1
 677.638671875 929.317382812 l 1,1,2
 639.071289062 883.354492188 639.071289062 883.354492188 600.50390625 837.392578125 c 1,5,-1
 79.5947265625 1274.48828125 l 5,6,7
 118.162109375 1320.45117188 118.162109375 1320.45117188 156.728515625 1366.41308594 c 5,0,-1
600.50390625 837.392578125 m 1025
600.50390625 837.392578125 m 132,-1,0
 581.353515625 853.461914062 581.353515625 853.461914062 579.900390625 878.177734375 c 4,1,2
 577.681640625 903.537109375 577.681640625 903.537109375 593.109375 921.921875 c 132,-1,3
 608.536132812 940.307617188 608.536132812 940.307617188 633.51171875 942.84765625 c 132,-1,4
 658.48828125 945.387695312 658.48828125 945.387695312 677.255859375 929.638671875 c 132,-1,5
 696.024414062 913.890625 696.024414062 913.890625 698.564453125 888.915039062 c 132,-1,6
 701.103515625 863.938476562 701.103515625 863.938476562 685.034179688 844.788085938 c 132,-1,7
 668.96484375 825.63671875 668.96484375 825.63671875 644.248046875 824.18359375 c 4,8,9
 619.655273438 821.322265625 619.655273438 821.322265625 600.50390625 837.392578125 c 132,-1,0
623.750976562 896.2109375 m 29,0,-1
 654.392578125 870.499023438 l 5,1,-1
 626.215820312 868.034179688 l 5,2,-1
 651.927734375 898.67578125 l 1029,3,-1
79.5947265625 1274.48828125 m 132,-1,0
 60.443359375 1290.55761719 60.443359375 1290.55761719 58.9912109375 1315.27441406 c 4,1,2
 56.7724609375 1340.6328125 56.7724609375 1340.6328125 72.19921875 1359.01757812 c 132,-1,3
 87.6259765625 1377.40332031 87.6259765625 1377.40332031 112.6015625 1379.94335938 c 132,-1,4
 137.578125 1382.48339844 137.578125 1382.48339844 156.345703125 1366.734375 c 132,-1,5
 175.114257812 1350.98632812 175.114257812 1350.98632812 177.654296875 1326.01074219 c 132,-1,6
 180.194335938 1301.03417969 180.194335938 1301.03417969 164.124023438 1281.88378906 c 132,-1,7
 148.0546875 1262.73242188 148.0546875 1262.73242188 123.338867188 1261.28027344 c 4,8,9
 98.7451171875 1258.41796875 98.7451171875 1258.41796875 79.5947265625 1274.48828125 c 132,-1,0
102.840820312 1333.30664062 m 29,0,-1
 133.482421875 1307.59472656 l 5,1,-1
 105.305664062 1305.12988281 l 5,2,-1
 131.017578125 1335.77148438 l 1029,3,-1
563.430664062 1286.015625 m 5,0,-1
 42.521484375 848.919921875 l 1,1,2
 3.9541015625 894.8828125 3.9541015625 894.8828125 -34.61328125 940.845703125 c 1,5,-1
 486.295898438 1377.94140625 l 5,6,7
 524.86328125 1331.97851562 524.86328125 1331.97851562 563.430664062 1286.015625 c 5,0,-1
-34.61328125 940.845703125 m 1025
-34.61328125 940.845703125 m 132,-1,0
 -15.462890625 956.915039062 -15.462890625 956.915039062 9.130859375 954.053710938 c 4,1,2
 34.4892578125 951.834960938 34.4892578125 951.834960938 49.916015625 933.450195312 c 132,-1,3
 65.34375 915.064453125 65.34375 915.064453125 63.5078125 890.02734375 c 132,-1,4
 61.671875 864.989257812 61.671875 864.989257812 42.904296875 849.241210938 c 132,-1,5
 24.1357421875 833.493164062 24.1357421875 833.493164062 -0.9013671875 835.329101562 c 132,-1,6
 -25.939453125 837.1640625 -25.939453125 837.1640625 -42.0087890625 856.315429688 c 132,-1,7
 -58.0791015625 875.466796875 -58.0791015625 875.466796875 -55.216796875 900.059570312 c 4,8,9
 -53.7646484375 924.775390625 -53.7646484375 924.775390625 -34.61328125 940.845703125 c 132,-1,0
19.2744140625 907.73828125 m 29,0,-1
 -11.3671875 882.02734375 l 5,1,-1
 -8.90234375 910.203125 l 5,2,-1
 16.8095703125 879.561523438 l 1029,3,-1
486.295898438 1377.94140625 m 132,-1,0
 505.447265625 1394.01074219 505.447265625 1394.01074219 530.040039062 1391.14941406 c 4,1,2
 555.399414062 1388.93066406 555.399414062 1388.93066406 570.826171875 1370.54589844 c 132,-1,3
 586.252929688 1352.16113281 586.252929688 1352.16113281 584.41796875 1327.12304688 c 132,-1,4
 582.58203125 1302.0859375 582.58203125 1302.0859375 563.813476562 1286.33691406 c 132,-1,5
 545.045898438 1270.58886719 545.045898438 1270.58886719 520.0078125 1272.42480469 c 132,-1,6
 494.970703125 1274.25976562 494.970703125 1274.25976562 478.901367188 1293.41113281 c 132,-1,7
 462.831054688 1312.5625 462.831054688 1312.5625 465.692382812 1337.15527344 c 4,8,9
 467.145507812 1361.87109375 467.145507812 1361.87109375 486.295898438 1377.94140625 c 132,-1,0
540.184570312 1344.83398438 m 29,0,-1
 509.54296875 1319.12304688 l 5,1,-1
 512.0078125 1347.29980469 l 5,2,-1
 537.719726562 1316.65722656 l 1029,3,-1
EndSplineSet
EndChar

StartChar: plus
Encoding: 43 43 15
Width: 950
GlyphClass: 2
Flags: W
LayerCount: 3
Fore
SplineSet
538.5 1147 m 5,0,-1
 538.5 467 l 1,1,2
 478.5 467 478.5 467 418.5 467 c 1,5,-1
 418.5 1147 l 5,6,7
 478.5 1147 478.5 1147 538.5 1147 c 5,0,-1
418.5 467 m 1025
418.5 467 m 132,-1,0
 418.5 492 418.5 492 436.5 509 c 4,1,2
 454.5 527 454.5 527 478.5 527 c 132,-1,3
 502.5 527 502.5 527 520.5 509.5 c 132,-1,4
 538.5 492 538.5 492 538.5 467.5 c 132,-1,5
 538.5 443 538.5 443 521 425 c 132,-1,6
 503.5 407 503.5 407 478.5 407 c 132,-1,7
 453.5 407 453.5 407 436.5 425 c 4,8,9
 418.5 442 418.5 442 418.5 467 c 132,-1,0
478.5 487 m 29,0,-1
 478.5 447 l 5,1,-1
 458.5 467 l 5,2,-1
 498.5 467 l 1029,3,-1
418.5 1147 m 132,-1,0
 418.5 1172 418.5 1172 436.5 1189 c 4,1,2
 454.5 1207 454.5 1207 478.5 1207 c 132,-1,3
 502.5 1207 502.5 1207 520.5 1189.5 c 132,-1,4
 538.5 1172 538.5 1172 538.5 1147.5 c 132,-1,5
 538.5 1123 538.5 1123 521 1105 c 132,-1,6
 503.5 1087 503.5 1087 478.5 1087 c 132,-1,7
 453.5 1087 453.5 1087 436.5 1105 c 4,8,9
 418.5 1122 418.5 1122 418.5 1147 c 132,-1,0
478.5 1167 m 29,0,-1
 478.5 1127 l 5,1,-1
 458.5 1147 l 5,2,-1
 498.5 1147 l 1029,3,-1
740 829.5 m 5,0,-1
 60 829.5 l 1,1,2
 60 889.5 60 889.5 60 949.5 c 1,5,-1
 740 949.5 l 5,6,7
 740 889.5 740 889.5 740 829.5 c 5,0,-1
60 949.5 m 1025
60 949.5 m 132,-1,0
 85 949.5 85 949.5 102 931.5 c 4,1,2
 120 913.5 120 913.5 120 889.5 c 132,-1,3
 120 865.5 120 865.5 102.5 847.5 c 132,-1,4
 85 829.5 85 829.5 60.5 829.5 c 132,-1,5
 36 829.5 36 829.5 18 847 c 132,-1,6
 0 864.5 0 864.5 0 889.5 c 132,-1,7
 0 914.5 0 914.5 18 931.5 c 4,8,9
 35 949.5 35 949.5 60 949.5 c 132,-1,0
80 889.5 m 29,0,-1
 40 889.5 l 5,1,-1
 60 909.5 l 5,2,-1
 60 869.5 l 1029,3,-1
740 949.5 m 132,-1,0
 765 949.5 765 949.5 782 931.5 c 4,1,2
 800 913.5 800 913.5 800 889.5 c 132,-1,3
 800 865.5 800 865.5 782.5 847.5 c 132,-1,4
 765 829.5 765 829.5 740.5 829.5 c 132,-1,5
 716 829.5 716 829.5 698 847 c 132,-1,6
 680 864.5 680 864.5 680 889.5 c 132,-1,7
 680 914.5 680 914.5 698 931.5 c 4,8,9
 715 949.5 715 949.5 740 949.5 c 132,-1,0
760 889.5 m 29,0,-1
 720 889.5 l 5,1,-1
 740 909.5 l 5,2,-1
 740 869.5 l 1029,3,-1
EndSplineSet
EndChar

StartChar: comma
Encoding: 44 44 16
Width: 805
GlyphClass: 2
Flags: W
LayerCount: 3
Fore
SplineSet
418.5 -166.5 m 5,0,-1
 298.5 -166.5 l 1,1,2
 298.5 -136.5 298.5 -136.5 298.5 -106.5 c 1,3,4
 298.5 -76.5 298.5 -76.5 298.5 -46.5 c 1,5,-1
 418.5 -46.5 l 5,6,7
 418.5 -106.5 418.5 -106.5 418.5 -166.5 c 5,0,-1
298.5 -46.5 m 1025
298.5 -46.5 m 132,-1,0
 323.5 -46.5 323.5 -46.5 340.5 -64.5 c 4,1,2
 358.5 -82.5 358.5 -82.5 358.5 -106.5 c 132,-1,3
 358.5 -130.5 358.5 -130.5 341 -148.5 c 132,-1,4
 323.5 -166.5 323.5 -166.5 299 -166.5 c 132,-1,5
 274.5 -166.5 274.5 -166.5 256.5 -149 c 132,-1,6
 238.5 -131.5 238.5 -131.5 238.5 -106.5 c 132,-1,7
 238.5 -81.5 238.5 -81.5 256.5 -64.5 c 4,8,9
 273.5 -46.5 273.5 -46.5 298.5 -46.5 c 132,-1,0
318.5 -106.5 m 29,0,-1
 278.5 -106.5 l 5,1,-1
 298.5 -86.5 l 5,2,-1
 298.5 -126.5 l 1029,3,-1
418.5 -46.5 m 132,-1,0
 443.5 -46.5 443.5 -46.5 460.5 -64.5 c 4,1,2
 478.5 -82.5 478.5 -82.5 478.5 -106.5 c 132,-1,3
 478.5 -130.5 478.5 -130.5 461 -148.5 c 132,-1,4
 443.5 -166.5 443.5 -166.5 419 -166.5 c 132,-1,5
 394.5 -166.5 394.5 -166.5 376.5 -149 c 132,-1,6
 358.5 -131.5 358.5 -131.5 358.5 -106.5 c 132,-1,7
 358.5 -81.5 358.5 -81.5 376.5 -64.5 c 4,8,9
 393.5 -46.5 393.5 -46.5 418.5 -46.5 c 132,-1,0
438.5 -106.5 m 29,0,-1
 398.5 -106.5 l 5,1,-1
 418.5 -86.5 l 5,2,-1
 418.5 -126.5 l 1029,3,-1
41.552734375 -399.571289062 m 1,0,1
 165.55078125 -364.668945312 165.55078125 -364.668945312 233.435546875 -296.669921875 c 1,2,3
 322.528320312 -207.69140625 322.528320312 -207.69140625 354.09375 -91.2734375 c 1,4,5
 413.038085938 -107.282226562 413.038085938 -107.282226562 472.887695312 -123.799804688 c 1,8,9
 434.958007812 -266.381835938 434.958007812 -266.381835938 318.995117188 -382.229492188 c 1,10,11
 223.533203125 -477.806640625 223.533203125 -477.806640625 73.3720703125 -517.658203125 c 1,12,13
 56.65625 -452.350585938 56.65625 -452.350585938 41.552734375 -399.571289062 c 1,0,1
44.380859375 -473.110351562 m 25,0,-1
 72.6650390625 -444.826171875 l 25,1,-1
 72.6650390625 -473.110351562 l 25,2,-1
 44.380859375 -444.826171875 l 1049,3,-1
15.7431640625 -501.041015625 m 128,-1,5
 -2.9951171875 -482.302734375 -2.9951171875 -482.302734375 -2.9951171875 -459.67578125 c 0,6,7
 -2.9951171875 -435.633789062 -2.9951171875 -435.633789062 16.0966796875 -416.541992188 c 0,7,8
 37.3095703125 -395.329101562 37.3095703125 -395.329101562 60.6689453125 -396.060546875 c 0,9,10
 81.150390625 -396.743164062 81.150390625 -396.743164062 100.94921875 -416.541992188 c 128,-1,11
 120.748046875 -436.340820312 120.748046875 -436.340820312 121.431640625 -456.823242188 c 0,12,13
 122.163085938 -480.181640625 122.163085938 -480.181640625 100.94921875 -501.395507812 c 0,14,15
 82.564453125 -519.780273438 82.564453125 -519.780273438 57.1083984375 -519.780273438 c 0,16,17
 34.4814453125 -519.780273438 34.4814453125 -519.780273438 15.7431640625 -501.041015625 c 128,-1,5
398.641601562 -121.678710938 m 25,0,-1
 426.92578125 -93.39453125 l 25,1,-1
 426.92578125 -121.678710938 l 25,2,-1
 398.641601562 -93.39453125 l 1049,3,-1
370.00390625 -149.609375 m 128,-1,5
 351.265625 -130.87109375 351.265625 -130.87109375 351.265625 -108.243164062 c 0,6,7
 351.265625 -84.2021484375 351.265625 -84.2021484375 370.357421875 -65.1103515625 c 0,7,8
 391.5703125 -43.896484375 391.5703125 -43.896484375 414.928710938 -44.6279296875 c 0,9,10
 435.411132812 -45.310546875 435.411132812 -45.310546875 455.209960938 -65.1103515625 c 128,-1,11
 475.008789062 -84.9091796875 475.008789062 -84.9091796875 475.692382812 -105.390625 c 0,12,13
 476.422851562 -128.75 476.422851562 -128.75 455.209960938 -149.962890625 c 0,14,15
 436.825195312 -168.34765625 436.825195312 -168.34765625 411.369140625 -168.34765625 c 0,16,17
 388.7421875 -168.34765625 388.7421875 -168.34765625 370.00390625 -149.609375 c 128,-1,5
EndSplineSet
Layer: 2
SplineSet
416 250 m 1
 651 249 l 1
 650 125 l 1026
EndSplineSet
EndChar

StartChar: hyphen
Encoding: 45 45 17
Width: 903
GlyphClass: 2
Flags: W
LayerCount: 3
Fore
SplineSet
-375.540039062 877.458984375 m 5,0,-1
 639.329101562 508.077148438 l 1,1,2
 618.807617188 451.6953125 618.807617188 451.6953125 598.286132812 395.314453125 c 1,5,-1
 -416.58203125 764.6953125 l 5,6,7
 -396.060546875 821.077148438 -396.060546875 821.077148438 -375.540039062 877.458984375 c 5,0,-1
598.286132812 395.314453125 m 1025
598.286132812 395.314453125 m 132,-1,0
 574.793945312 403.864257812 574.793945312 403.864257812 564.975585938 426.59375 c 4,1,2
 554.217773438 449.6640625 554.217773438 449.6640625 562.42578125 472.216796875 c 132,-1,3
 570.634765625 494.76953125 570.634765625 494.76953125 593.235351562 505.69921875 c 132,-1,4
 615.836914062 516.627929688 615.836914062 516.627929688 638.859375 508.248046875 c 132,-1,5
 661.881835938 499.869140625 661.881835938 499.869140625 672.810546875 477.267578125 c 132,-1,6
 683.739257812 454.666992188 683.739257812 454.666992188 675.189453125 431.174804688 c 132,-1,7
 666.638671875 407.682617188 666.638671875 407.682617188 643.91015625 397.864257812 c 4,8,9
 621.778320312 386.763671875 621.778320312 386.763671875 598.286132812 395.314453125 c 132,-1,0
600.013671875 458.536132812 m 29,0,-1
 637.6015625 444.85546875 l 5,1,-1
 611.966796875 432.90234375 l 5,2,-1
 625.6484375 470.489257812 l 1029,3,-1
-416.58203125 764.6953125 m 132,-1,0
 -440.07421875 773.24609375 -440.07421875 773.24609375 -449.892578125 795.975585938 c 4,1,2
 -460.651367188 819.045898438 -460.651367188 819.045898438 -452.442382812 841.598632812 c 132,-1,3
 -444.234375 864.151367188 -444.234375 864.151367188 -421.6328125 875.080078125 c 132,-1,4
 -399.032226562 886.009765625 -399.032226562 886.009765625 -376.009765625 877.629882812 c 132,-1,5
 -352.987304688 869.25 -352.987304688 869.25 -342.057617188 846.649414062 c 132,-1,6
 -331.12890625 824.048828125 -331.12890625 824.048828125 -339.6796875 800.556640625 c 132,-1,7
 -348.229492188 777.063476562 -348.229492188 777.063476562 -370.958984375 767.245117188 c 4,8,9
 -393.08984375 756.145507812 -393.08984375 756.145507812 -416.58203125 764.6953125 c 132,-1,0
-414.854492188 827.91796875 m 29,0,-1
 -377.266601562 814.237304688 l 5,1,-1
 -402.901367188 802.283203125 l 5,2,-1
 -389.220703125 839.87109375 l 1029,3,-1
-751.416015625 1214.26660156 m 5,0,-1
 827.267578125 639.673828125 l 1,1,2
 806.747070312 583.291992188 806.747070312 583.291992188 786.225585938 526.91015625 c 1,5,-1
 -792.458984375 1101.50390625 l 5,6,7
 -792.458984375 1101.50390625 -792.458984375 1101.50390625 -751.416015625 1214.26660156 c 5,0,-1
786.225585938 526.91015625 m 1025
786.225585938 526.91015625 m 132,-1,0
 762.733398438 535.4609375 762.733398438 535.4609375 752.915039062 558.189453125 c 4,1,2
 742.15625 581.260742188 742.15625 581.260742188 750.365234375 603.8125 c 132,-1,3
 758.573242188 626.365234375 758.573242188 626.365234375 781.174804688 637.294921875 c 132,-1,4
 803.775390625 648.223632812 803.775390625 648.223632812 826.797851562 639.844726562 c 132,-1,5
 849.8203125 631.46484375 849.8203125 631.46484375 860.75 608.864257812 c 132,-1,6
 871.678710938 586.262695312 871.678710938 586.262695312 863.127929688 562.770507812 c 132,-1,7
 854.578125 539.278320312 854.578125 539.278320312 831.848632812 529.459960938 c 4,8,9
 809.717773438 518.359375 809.717773438 518.359375 786.225585938 526.91015625 c 132,-1,0
787.953125 590.131835938 m 29,0,-1
 825.540039062 576.451171875 l 5,1,-1
 799.90625 564.498046875 l 5,2,-1
 813.586914062 602.0859375 l 1029,3,-1
-792.458984375 1101.50390625 m 132,-1,0
 -815.951171875 1110.0546875 -815.951171875 1110.0546875 -825.76953125 1132.78320312 c 4,1,2
 -836.52734375 1155.85351562 -836.52734375 1155.85351562 -828.319335938 1178.40625 c 132,-1,3
 -820.110351562 1200.95898438 -820.110351562 1200.95898438 -797.509765625 1211.88867188 c 132,-1,4
 -774.909179688 1222.81738281 -774.909179688 1222.81738281 -751.88671875 1214.4375 c 132,-1,5
 -728.864257812 1206.05859375 -728.864257812 1206.05859375 -717.934570312 1183.45703125 c 132,-1,6
 -707.005859375 1160.85644531 -707.005859375 1160.85644531 -715.555664062 1137.36425781 c 132,-1,7
 -724.106445312 1113.87207031 -724.106445312 1113.87207031 -746.834960938 1104.05371094 c 4,8,9
 -768.966796875 1092.953125 -768.966796875 1092.953125 -792.458984375 1101.50390625 c 132,-1,0
-790.731445312 1164.72558594 m 29,0,-1
 -753.143554688 1151.04492188 l 5,1,-1
 -778.778320312 1139.09179688 l 5,2,-1
 -765.09765625 1176.6796875 l 1029,3,-1
EndSplineSet
EndChar

StartChar: period
Encoding: 46 46 18
Width: 1538
VWidth: 0
GlyphClass: 2
Flags: W
LayerCount: 3
Fore
SplineSet
446.184570312 -176.094726562 m 5,0,-1
 106.06640625 -516.213867188 l 1,1,2
 63.6396484375 -473.787109375 63.6396484375 -473.787109375 21.212890625 -431.360351562 c 1,5,-1
 361.33203125 -91.2421875 l 5,6,7
 403.7578125 -133.668945312 403.7578125 -133.668945312 446.184570312 -176.094726562 c 5,0,-1
21.212890625 -431.360351562 m 1025
21.212890625 -431.360351562 m 132,-1,0
 38.890625 -413.682617188 38.890625 -413.682617188 63.6396484375 -414.389648438 c 4,1,2
 89.095703125 -414.389648438 89.095703125 -414.389648438 106.06640625 -431.360351562 c 132,-1,3
 123.036132812 -448.331054688 123.036132812 -448.331054688 123.389648438 -473.43359375 c 132,-1,4
 123.743164062 -498.536132812 123.743164062 -498.536132812 106.419921875 -515.860351562 c 132,-1,5
 89.095703125 -533.18359375 89.095703125 -533.18359375 63.9931640625 -533.537109375 c 132,-1,6
 38.890625 -533.890625 38.890625 -533.890625 21.212890625 -516.213867188 c 132,-1,7
 3.53515625 -498.536132812 3.53515625 -498.536132812 4.2421875 -473.787109375 c 4,8,9
 3.53515625 -449.038085938 3.53515625 -449.038085938 21.212890625 -431.360351562 c 132,-1,0
77.78125 -459.64453125 m 29,0,-1
 49.4970703125 -487.928710938 l 5,1,-1
 49.4970703125 -459.64453125 l 5,2,-1
 77.78125 -487.928710938 l 1029,3,-1
361.33203125 -91.2421875 m 132,-1,0
 379.008789062 -73.564453125 379.008789062 -73.564453125 403.7578125 -74.271484375 c 4,1,2
 429.213867188 -74.271484375 429.213867188 -74.271484375 446.184570312 -91.2421875 c 132,-1,3
 463.155273438 -108.212890625 463.155273438 -108.212890625 463.508789062 -133.315429688 c 132,-1,4
 463.862304688 -158.416992188 463.862304688 -158.416992188 446.538085938 -175.741210938 c 132,-1,5
 429.213867188 -193.065429688 429.213867188 -193.065429688 404.111328125 -193.418945312 c 132,-1,6
 379.008789062 -193.772460938 379.008789062 -193.772460938 361.33203125 -176.094726562 c 132,-1,7
 343.654296875 -158.416992188 343.654296875 -158.416992188 344.361328125 -133.668945312 c 4,8,9
 343.654296875 -108.919921875 343.654296875 -108.919921875 361.33203125 -91.2421875 c 132,-1,0
417.900390625 -119.526367188 m 29,0,-1
 389.616210938 -147.810546875 l 5,1,-1
 389.616210938 -119.526367188 l 5,2,-1
 417.900390625 -147.810546875 l 1029,3,-1
363.109375 -445.825195312 m 5,0,-1
 22.9912109375 -105.70703125 l 1,1,2
 65.41796875 -63.2802734375 65.41796875 -63.2802734375 107.84375 -20.853515625 c 1,5,-1
 447.962890625 -360.97265625 l 5,6,7
 405.536132812 -403.3984375 405.536132812 -403.3984375 363.109375 -445.825195312 c 5,0,-1
107.84375 -20.853515625 m 1025
107.84375 -20.853515625 m 132,-1,0
 125.521484375 -38.53125 125.521484375 -38.53125 124.814453125 -63.2802734375 c 4,1,2
 124.814453125 -88.736328125 124.814453125 -88.736328125 107.84375 -105.70703125 c 132,-1,3
 90.8740234375 -122.677734375 90.8740234375 -122.677734375 65.771484375 -123.03125 c 132,-1,4
 40.6689453125 -123.384765625 40.6689453125 -123.384765625 23.3447265625 -106.060546875 c 132,-1,5
 6.0205078125 -88.736328125 6.0205078125 -88.736328125 5.6669921875 -63.6337890625 c 132,-1,6
 5.3134765625 -38.53125 5.3134765625 -38.53125 22.9912109375 -20.853515625 c 132,-1,7
 40.6689453125 -3.17578125 40.6689453125 -3.17578125 65.41796875 -3.8837890625 c 4,8,9
 90.166015625 -3.17578125 90.166015625 -3.17578125 107.84375 -20.853515625 c 132,-1,0
79.5595703125 -77.4228515625 m 29,0,-1
 51.275390625 -49.138671875 l 5,1,-1
 79.5595703125 -49.138671875 l 5,2,-1
 51.275390625 -77.4228515625 l 1029,3,-1
447.962890625 -360.97265625 m 132,-1,0
 465.640625 -378.650390625 465.640625 -378.650390625 464.93359375 -403.3984375 c 4,1,2
 464.93359375 -428.854492188 464.93359375 -428.854492188 447.962890625 -445.825195312 c 132,-1,3
 430.9921875 -462.795898438 430.9921875 -462.795898438 405.889648438 -463.149414062 c 132,-1,4
 380.787109375 -463.502929688 380.787109375 -463.502929688 363.462890625 -446.178710938 c 132,-1,5
 346.139648438 -428.854492188 346.139648438 -428.854492188 345.78515625 -403.751953125 c 132,-1,6
 345.431640625 -378.650390625 345.431640625 -378.650390625 363.109375 -360.97265625 c 132,-1,7
 380.787109375 -343.294921875 380.787109375 -343.294921875 405.536132812 -344.001953125 c 4,8,9
 430.28515625 -343.294921875 430.28515625 -343.294921875 447.962890625 -360.97265625 c 132,-1,0
419.678710938 -417.541015625 m 29,0,-1
 391.393554688 -389.256835938 l 5,1,-1
 419.678710938 -389.256835938 l 5,2,-1
 391.393554688 -417.541015625 l 1029,3,-1
EndSplineSet
Layer: 2
SplineSet
1356.98046875 196 m 5
 1538.98046875 197 l 5
 1370.98046875 6 l 5
 1528.98046875 -186 l 5
 1346.98046875 -188 l 5
 1296.98046875 -78 l 5
 1225.98046875 -192 l 5
 1064.98046875 -188 l 5
 1225.98046875 -1 l 5
 1065.98046875 197 l 5
 1242.98046875 197 l 5
 1302.98046875 93 l 5
 1356.98046875 196 l 5
EndSplineSet
EndChar

StartChar: zero
Encoding: 48 48 20
Width: 1233
GlyphClass: 2
Flags: W
LayerCount: 3
Fore
SplineSet
616 1520 m 0,0,1
 855 1520 855 1520 978 1324 c 0,2,3
 1100 1127 1100 1127 1100 745 c 0,4,5
 1100 364 1100 364 978 167 c 0,6,7
 855 -29 855 -29 616 -29 c 0,8,9
 376 -29 376 -29 255 167 c 0,10,11
 133 364 133 364 133 745 c 0,12,13
 133 1127 133 1127 255 1324 c 0,14,15
 376 1520 376 1520 616 1520 c 0,0,1
616 1360 m 0,16,17
 475 1360 475 1360 406 1208 c 0,18,19
 336 1058 336 1058 336 745 c 0,20,21
 336 471 336 471 390 321 c 1,22,-1
 780 1285 l 1,23,24
 716 1360 716 1360 616 1360 c 0,16,17
471 187 m 1,25,26
 532 131 532 131 616 131 c 0,27,28
 757 131 757 131 828 283 c 0,29,30
 897 434 897 434 897 745 c 0,31,32
 897 975 897 975 860 1116 c 1,33,-1
 471 187 l 1,25,26
EndSplineSet
Validated: 1
EndChar

StartChar: one
Encoding: 49 49 21
Width: 1233
GlyphClass: 2
Flags: W
LayerCount: 3
Fore
SplineSet
270 170 m 1,0,-1
 584 170 l 1,1,-1
 584 1311 l 1,2,-1
 246 1235 l 1,3,-1
 246 1419 l 1,4,-1
 582 1493 l 1,5,-1
 784 1493 l 1,6,-1
 784 170 l 1,7,-1
 1094 170 l 1,8,-1
 1094 0 l 1,9,-1
 270 0 l 1,10,-1
 270 170 l 1,0,-1
EndSplineSet
Validated: 1
EndChar

StartChar: two
Encoding: 50 50 22
Width: 1233
GlyphClass: 2
Flags: W
LayerCount: 3
Fore
SplineSet
373 170 m 1,0,-1
 1059 170 l 1,1,-1
 1059 0 l 1,2,-1
 152 0 l 1,3,-1
 152 170 l 1,4,5
 340 366 340 366 479 518 c 0,6,7
 632 684 632 684 672 731 c 0,8,9
 772 852 772 852 807 928 c 0,10,11
 842 1006 842 1006 842 1083 c 0,12,13
 842 1209 842 1209 769 1279 c 0,14,15
 695 1350 695 1350 567 1350 c 0,16,17
 476 1350 476 1350 376 1317 c 128,-1,18
 276 1284 276 1284 164 1217 c 1,19,-1
 164 1421 l 1,20,21
 264 1469 264 1469 367 1495 c 0,22,23
 464 1520 464 1520 563 1520 c 0,24,25
 782 1520 782 1520 916 1404 c 0,26,27
 1049 1287 1049 1287 1049 1098 c 0,28,29
 1049 1003 1049 1003 1005 906 c 0,30,31
 959 808 959 808 860 694 c 0,32,33
 831 660 831 660 698 514 c 0,34,35
 623 434 623 434 373 170 c 1,0,-1
EndSplineSet
Validated: 1
EndChar

StartChar: three
Encoding: 51 51 23
Width: 1233
GlyphClass: 2
Flags: W
LayerCount: 3
Fore
SplineSet
776 799 m 1,0,1
 923 760 923 760 1001 660 c 0,2,3
 1079 561 1079 561 1079 412 c 0,4,5
 1079 206 1079 206 940 88 c 0,6,7
 802 -29 802 -29 557 -29 c 0,8,9
 451 -29 451 -29 347 -10 c 0,10,11
 237 10 237 10 137 45 c 1,12,-1
 137 246 l 1,13,14
 243 191 243 191 338 167 c 0,15,16
 439 141 439 141 535 141 c 0,17,18
 702 141 702 141 790 216 c 0,19,20
 879 291 879 291 879 432 c 0,21,22
 879 563 879 563 790 638 c 0,23,24
 703 715 703 715 549 715 c 2,25,-1
 395 715 l 1,26,-1
 395 881 l 1,27,-1
 549 881 l 2,28,29
 689 881 689 881 766 942 c 0,30,31
 844 1004 844 1004 844 1112 c 0,32,33
 844 1228 844 1228 771 1289 c 0,34,35
 700 1350 700 1350 565 1350 c 0,36,37
 478 1350 478 1350 381 1330 c 128,-1,38
 284 1310 284 1310 182 1270 c 1,39,-1
 182 1456 l 1,40,41
 304 1488 304 1488 398 1504 c 0,42,43
 490 1520 490 1520 565 1520 c 0,44,45
 783 1520 783 1520 914 1411 c 0,46,47
 1044 1301 1044 1301 1044 1120 c 0,48,49
 1044 998 1044 998 976 915 c 0,50,51
 908 834 908 834 776 799 c 1,0,1
EndSplineSet
Validated: 1
EndChar

StartChar: four
Encoding: 52 52 24
Width: 1233
GlyphClass: 2
Flags: W
LayerCount: 3
Fore
SplineSet
735 1309 m 1,0,-1
 264 520 l 1,1,-1
 735 520 l 1,2,-1
 735 1309 l 1,0,-1
702 1493 m 1,3,-1
 936 1493 l 1,4,-1
 936 520 l 1,5,-1
 1135 520 l 1,6,-1
 1135 356 l 1,7,-1
 936 356 l 1,8,-1
 936 0 l 1,9,-1
 735 0 l 1,10,-1
 735 356 l 1,11,-1
 102 356 l 1,12,-1
 102 547 l 1,13,-1
 702 1493 l 1,3,-1
EndSplineSet
Validated: 1
EndChar

StartChar: five
Encoding: 53 53 25
Width: 1233
GlyphClass: 2
Flags: W
LayerCount: 3
Fore
SplineSet
207 1493 m 1,0,-1
 963 1493 l 1,1,-1
 963 1323 l 1,2,-1
 391 1323 l 1,3,-1
 391 956 l 1,4,5
 430 971 430 971 478 979 c 0,6,7
 524 987 524 987 565 987 c 0,8,9
 796 987 796 987 933 850 c 0,10,11
 1069 714 1069 714 1069 479 c 0,12,13
 1069 243 1069 243 927 107 c 128,-1,14
 785 -29 785 -29 537 -29 c 0,15,16
 415 -29 415 -29 320 -13 c 0,17,18
 221 4 221 4 143 35 c 1,19,-1
 143 240 l 1,20,21
 236 190 236 190 328 166 c 0,22,23
 419 141 419 141 518 141 c 0,24,25
 685 141 685 141 776 229 c 0,26,27
 866 318 866 318 866 479 c 128,-1,28
 866 640 866 640 772 728 c 0,29,30
 678 817 678 817 512 817 c 0,31,32
 429 817 429 817 354 798 c 0,33,34
 276 780 276 780 207 743 c 1,35,-1
 207 1493 l 1,0,-1
EndSplineSet
Validated: 1
EndChar

StartChar: six
Encoding: 54 54 26
Width: 1233
GlyphClass: 2
Flags: W
LayerCount: 3
Fore
SplineSet
991 1460 m 1,0,-1
 991 1274 l 1,1,2
 932 1309 932 1309 857 1330 c 0,3,4
 785 1350 785 1350 709 1350 c 0,5,6
 517 1350 517 1350 418 1205 c 0,7,8
 319 1061 319 1061 319 780 c 1,9,10
 367 880 367 880 452 934 c 0,11,12
 538 987 538 987 647 987 c 0,13,14
 864 987 864 987 982 854 c 0,15,16
 1100 723 1100 723 1100 479 c 0,17,18
 1100 238 1100 238 978 104 c 0,19,20
 857 -29 857 -29 635 -29 c 0,21,22
 375 -29 375 -29 254 158 c 0,23,24
 133 343 133 343 133 745 c 0,25,26
 133 1122 133 1122 279 1321 c 0,27,28
 424 1520 424 1520 700 1520 c 0,29,30
 777 1520 777 1520 848 1504 c 0,31,32
 920 1489 920 1489 991 1460 c 1,0,-1
631 829 m 0,33,34
 501 829 501 829 428 736 c 0,35,36
 354 642 354 642 354 479 c 128,-1,37
 354 316 354 316 428 222 c 0,38,39
 501 129 501 129 631 129 c 0,40,41
 766 129 766 129 833 217 c 0,42,43
 901 306 901 306 901 479 c 128,-1,44
 901 652 901 652 833 741 c 0,45,46
 766 829 766 829 631 829 c 0,33,34
EndSplineSet
Validated: 1
EndChar

StartChar: seven
Encoding: 55 55 27
Width: 1233
GlyphClass: 2
Flags: W
LayerCount: 3
Fore
SplineSet
139 1493 m 1,0,-1
 1079 1493 l 1,1,-1
 1079 1407 l 1,2,-1
 545 0 l 1,3,-1
 334 0 l 1,4,-1
 854 1323 l 1,5,-1
 139 1323 l 1,6,-1
 139 1493 l 1,0,-1
EndSplineSet
Validated: 1
EndChar

StartChar: eight
Encoding: 56 56 28
Width: 1233
GlyphClass: 2
Flags: W
LayerCount: 3
Fore
SplineSet
616 709 m 0,0,1
 480 709 480 709 407 634 c 0,2,3
 334 558 334 558 334 420 c 0,4,5
 334 283 334 283 408 206 c 0,6,7
 483 129 483 129 616 129 c 0,8,9
 751 129 751 129 826 205 c 0,10,11
 899 281 899 281 899 420 c 0,12,13
 899 556 899 556 824 633 c 0,14,15
 751 709 751 709 616 709 c 0,0,1
440 793 m 1,16,17
 312 826 312 826 238 916 c 0,18,19
 166 1006 166 1006 166 1133 c 0,20,21
 166 1311 166 1311 287 1416 c 0,22,23
 409 1520 409 1520 616 1520 c 0,24,25
 824 1520 824 1520 946 1416 c 0,26,27
 1067 1311 1067 1311 1067 1133 c 0,28,29
 1067 1005 1067 1005 994 916 c 0,30,31
 922 826 922 826 793 793 c 1,32,33
 943 760 943 760 1022 660 c 0,34,35
 1102 559 1102 559 1102 401 c 0,36,37
 1102 199 1102 199 973 85 c 128,-1,38
 844 -29 844 -29 616 -29 c 128,-1,39
 388 -29 388 -29 259 85 c 0,40,41
 131 198 131 198 131 399 c 0,42,43
 131 560 131 560 210 660 c 128,-1,44
 289 760 289 760 440 793 c 1,16,17
367 1114 m 0,45,46
 367 994 367 994 431 931 c 0,47,48
 496 868 496 868 616 868 c 0,49,50
 738 868 738 868 802 931 c 256,51,52
 866 994 866 994 866 1114 c 0,53,54
 866 1236 866 1236 802 1300 c 0,55,56
 739 1364 739 1364 616 1364 c 0,57,58
 497 1364 497 1364 431 1300 c 0,59,60
 367 1235 367 1235 367 1114 c 0,45,46
EndSplineSet
Validated: 1
EndChar

StartChar: nine
Encoding: 57 57 29
Width: 1233
GlyphClass: 2
Flags: W
LayerCount: 3
Fore
SplineSet
596 662 m 0,0,1
 724 662 724 662 798 755 c 0,2,3
 872 849 872 849 872 1012 c 128,-1,4
 872 1175 872 1175 798 1269 c 0,5,6
 724 1362 724 1362 596 1362 c 0,7,8
 462 1362 462 1362 394 1274 c 0,9,10
 326 1183 326 1183 326 1012 c 0,11,12
 326 837 326 837 394 750 c 0,13,14
 460 662 460 662 596 662 c 0,0,1
236 31 m 1,15,-1
 236 217 l 1,16,17
 295 182 295 182 370 161 c 0,18,19
 442 141 442 141 518 141 c 0,20,21
 711 141 711 141 808 286 c 0,22,23
 907 430 907 430 907 711 c 1,24,25
 860 610 860 610 775 558 c 0,26,27
 690 504 690 504 580 504 c 0,28,29
 363 504 363 504 245 637 c 128,-1,30
 127 770 127 770 127 1014 c 0,31,32
 127 1255 127 1255 248 1388 c 0,33,34
 370 1520 370 1520 592 1520 c 0,35,36
 852 1520 852 1520 973 1333 c 128,-1,37
 1094 1146 1094 1146 1094 745 c 0,38,39
 1094 369 1094 369 948 170 c 0,40,41
 803 -29 803 -29 526 -29 c 0,42,43
 450 -29 450 -29 379 -13 c 0,44,45
 307 2 307 2 236 31 c 1,15,-1
EndSplineSet
Validated: 1
EndChar

StartChar: less
Encoding: 60 60 32
Width: 1506
GlyphClass: 2
Flags: W
LayerCount: 3
Fore
SplineSet
1547.86425781 1808.75683594 m 5,0,-1
 92.9423828125 968.756835938 l 1,1,2
 62.9423828125 1020.71875 62.9423828125 1020.71875 32.9423828125 1072.6796875 c 1,5,-1
 1487.86425781 1912.6796875 l 5,6,7
 1487.86425781 1912.6796875 1487.86425781 1912.6796875 1547.86425781 1808.75683594 c 5,0,-1
32.9423828125 1072.6796875 m 1025
32.9423828125 1072.6796875 m 132,-1,0
 54.5927734375 1085.1796875 54.5927734375 1085.1796875 78.3154296875 1078.09179688 c 4,1,2
 102.903320312 1071.50292969 102.903320312 1071.50292969 114.903320312 1050.71875 c 132,-1,3
 126.903320312 1029.93359375 126.903320312 1029.93359375 120.748046875 1005.59570312 c 132,-1,4
 114.592773438 981.256835938 114.592773438 981.256835938 93.375 969.006835938 c 132,-1,5
 72.1572265625 956.756835938 72.1572265625 956.756835938 47.8193359375 962.912109375 c 132,-1,6
 23.48046875 969.068359375 23.48046875 969.068359375 10.98046875 990.71875 c 132,-1,7
 -1.51953125 1012.36914062 -1.51953125 1012.36914062 5.5693359375 1036.09179688 c 4,8,9
 11.2919921875 1060.1796875 11.2919921875 1060.1796875 32.9423828125 1072.6796875 c 132,-1,0
80.2626953125 1030.71875 m 29,0,-1
 45.6220703125 1010.71875 l 5,1,-1
 52.9423828125 1038.0390625 l 5,2,-1
 72.9423828125 1003.3984375 l 1029,3,-1
1487.86425781 1912.6796875 m 132,-1,0
 1509.51464844 1925.1796875 1509.51464844 1925.1796875 1533.23730469 1918.09179688 c 4,1,2
 1557.82617188 1911.50292969 1557.82617188 1911.50292969 1569.82617188 1890.71875 c 132,-1,3
 1581.82617188 1869.93359375 1581.82617188 1869.93359375 1575.66992188 1845.59570312 c 132,-1,4
 1569.51464844 1821.25683594 1569.51464844 1821.25683594 1548.296875 1809.00683594 c 132,-1,5
 1527.08007812 1796.75683594 1527.08007812 1796.75683594 1502.74121094 1802.91210938 c 132,-1,6
 1478.40234375 1809.06835938 1478.40234375 1809.06835938 1465.90234375 1830.71875 c 132,-1,7
 1453.40234375 1852.36914062 1453.40234375 1852.36914062 1460.49121094 1876.09179688 c 4,8,9
 1466.21386719 1900.1796875 1466.21386719 1900.1796875 1487.86425781 1912.6796875 c 132,-1,0
1535.18457031 1870.71875 m 29,0,-1
 1500.54394531 1850.71875 l 5,1,-1
 1507.86425781 1878.0390625 l 5,2,-1
 1527.86425781 1843.3984375 l 1029,3,-1
19.0166015625 1114.54492188 m 5,0,-1
 1473.93847656 274.544921875 l 1,1,2
 1443.93847656 222.583984375 1443.93847656 222.583984375 1413.93847656 170.622070312 c 1,5,-1
 -40.9833984375 1010.62207031 l 5,6,7
 -40.9833984375 1010.62207031 -40.9833984375 1010.62207031 19.0166015625 1114.54492188 c 5,0,-1
1413.93847656 170.622070312 m 1025
1413.93847656 170.622070312 m 132,-1,0
 1392.28808594 183.122070312 1392.28808594 183.122070312 1386.56542969 207.2109375 c 4,1,2
 1379.9765625 231.798828125 1379.9765625 231.798828125 1391.9765625 252.583984375 c 132,-1,3
 1403.9765625 273.368164062 1403.9765625 273.368164062 1428.1328125 280.20703125 c 132,-1,4
 1452.28808594 287.044921875 1452.28808594 287.044921875 1473.50585938 274.794921875 c 132,-1,5
 1494.72265625 262.544921875 1494.72265625 262.544921875 1501.56152344 238.389648438 c 132,-1,6
 1508.40039062 214.234375 1508.40039062 214.234375 1495.90039062 192.583984375 c 132,-1,7
 1483.40039062 170.932617188 1483.40039062 170.932617188 1459.31152344 165.2109375 c 4,8,9
 1435.58886719 158.122070312 1435.58886719 158.122070312 1413.93847656 170.622070312 c 132,-1,0
1426.61816406 232.583984375 m 29,0,-1
 1461.25878906 212.583984375 l 5,1,-1
 1433.93847656 205.262695312 l 5,2,-1
 1453.93847656 239.904296875 l 1029,3,-1
-40.9833984375 1010.62207031 m 132,-1,0
 -62.6337890625 1023.12207031 -62.6337890625 1023.12207031 -68.3564453125 1047.2109375 c 4,1,2
 -74.9453125 1071.79882812 -74.9453125 1071.79882812 -62.9453125 1092.58398438 c 132,-1,3
 -50.9453125 1113.36816406 -50.9453125 1113.36816406 -26.7900390625 1120.20703125 c 132,-1,4
 -2.6337890625 1127.04492188 -2.6337890625 1127.04492188 18.5830078125 1114.79492188 c 132,-1,5
 39.80078125 1102.54492188 39.80078125 1102.54492188 46.6396484375 1078.38964844 c 132,-1,6
 53.4775390625 1054.234375 53.4775390625 1054.234375 40.9775390625 1032.58398438 c 132,-1,7
 28.4775390625 1010.93261719 28.4775390625 1010.93261719 4.3896484375 1005.2109375 c 4,8,9
 -19.3330078125 998.122070312 -19.3330078125 998.122070312 -40.9833984375 1010.62207031 c 132,-1,0
-28.3037109375 1072.58398438 m 29,0,-1
 6.3369140625 1052.58398438 l 5,1,-1
 -20.9833984375 1045.26269531 l 5,2,-1
 -0.9833984375 1079.90429688 l 1029,3,-1
EndSplineSet
EndChar

StartChar: equal
Encoding: 61 61 33
Width: 1233
GlyphClass: 2
Flags: W
LayerCount: 3
Fore
SplineSet
550 1098 m 1,0,-1
 718 1098 l 1,1,-1
 718 930 l 1,2,-1
 1145 930 l 1,3,-1
 1145 760 l 1,4,-1
 88 760 l 1,5,-1
 88 930 l 1,6,-1
 550 930 l 1,7,-1
 550 1098 l 1,0,-1
88 524 m 1,8,-1
 1145 524 l 1,9,-1
 1145 352 l 1,10,-1
 706 352 l 1,11,-1
 706 183 l 1,12,-1
 538 183 l 1,13,-1
 538 352 l 1,14,-1
 88 352 l 1,15,-1
 88 524 l 1,8,-1
EndSplineSet
Validated: 1
EndChar

StartChar: question
Encoding: 63 63 35
Width: 800
VWidth: 0
GlyphClass: 2
Flags: W
LayerCount: 3
Fore
SplineSet
27.599609375 1418.79980469 m 1,0,1
 262.218665272 1555.4195042 262.218665272 1555.4195042 399.220703125 1531.59960938 c 0,2,3
 697 1481 697 1481 740.400390625 1194.59960938 c 0,4,5
 772.982001872 977.445071241 772.982001872 977.445071241 519.200195312 767.599609375 c 0,6,7
 451 711 451 711 425.599609375 625.200195312 c 0,8,9
 420 606 420 606 419.200195312 392.400390625 c 1,10,-1
 299.599609375 392.400390625 l 1,11,-1
 299.599609375 622.799804688 l 0,12,13
 300 716 300 716 444.400390625 852.400390625 c 1,14,15
 636.759431842 1013.95453181 636.759431842 1013.95453181 613 1182.40039062 c 0,16,17
 584 1384 584 1384 391.5 1411 c 0,18,19
 274.775009081 1426.65901422 274.775009081 1426.65901422 94 1312.40039062 c 1,20,-1
 27.599609375 1418.79980469 l 1,0,1
EndSplineSet
Refer: 286 57346 N 1 0 0 1 0 1305.4 2
Refer: 286 57346 N 1 0 0 1 299.5 332 2
Refer: 18 46 N 1 0 0 1 101.5 -3 2
EndChar

StartChar: at
Encoding: 64 64 36
Width: 1572
GlyphClass: 2
Flags: W
LayerCount: 3
Fore
SplineSet
1157.78027344 524.984375 m 4,0,1
 1157.78027344 636.134765625 1157.78027344 636.134765625 1103.06054688 701.115234375 c 4,2,3
 1048.33984375 767.805664062 1048.33984375 767.805664062 956.85546875 767.805664062 c 4,4,5
 864.515625 767.805664062 864.515625 767.805664062 810.650390625 701.115234375 c 4,6,7
 755.075195312 636.990234375 755.075195312 636.990234375 755.075195312 524.984375 c 132,-1,8
 755.075195312 412.98046875 755.075195312 412.98046875 810.650390625 347.14453125 c 4,9,10
 864.515625 281.309570312 864.515625 281.309570312 956.85546875 281.309570312 c 4,11,12
 1047.48632812 281.309570312 1047.48632812 281.309570312 1103.06054688 347.14453125 c 4,13,14
 1157.78027344 412.98046875 1157.78027344 412.98046875 1157.78027344 524.984375 c 4,0,1
1276.3359375 660.494140625 m 4,18,19
 1271.85546875 516 1271.85546875 516 1260.38085938 448.890625 c 5,20,21
 1238.85546875 361 1238.85546875 361 1189.41503906 289.859375 c 4,22,23
 1168.85546875 260 1168.85546875 260 1136.83300781 234.28515625 c 132,-1,24
 1098.85546875 204 1098.85546875 204 1067.15039062 186.405273438 c 4,25,26
 1011.85546875 157 1011.85546875 157 940.611328125 157.334960938 c 4,27,28
 802.85546875 157 802.85546875 157 713.180664062 260.790039062 c 4,29,30
 622.85546875 364 622.85546875 364 622.549804688 524.984375 c 132,-1,31
 622.85546875 686 622.85546875 686 713.180664062 789.180664062 c 4,32,33
 801.85546875 892 801.85546875 892 940.611328125 892.634765625 c 4,34,35
 1018.85546875 893 1018.85546875 893 1080.85546875 856 c 4,36,37
 1152.85546875 812 1152.85546875 812 1166.85546875 789 c 5,38,-1
 1169.85546875 944 1169.85546875 944 1079.12109375 1049.09960938 c 4,41,42
 1009.85546875 1130 1009.85546875 1130 879.905273438 1130.32519531 c 4,43,44
 668.85546875 1130 668.85546875 1130 545.599609375 966.165039062 c 4,45,46
 420.85546875 802 420.85546875 802 420.770507812 523.275390625 c 132,-1,47
 420.85546875 242 420.85546875 242 561.845703125 75.255859375 c 132,-1,48
 704.85546875 -94 704.85546875 -94 937.190429688 -91.4697265625 c 4,49,50
 985.85546875 -91 985.85546875 -91 1029.53027344 -82.919921875 c 4,51,52
 1077.85546875 -74 1077.85546875 -74 1124.43554688 -56.4150390625 c 5,53,-1
 1165.47460938 -171.83984375 l 5,54,55
 1112.85546875 -193 1112.85546875 -193 1058.59960938 -203.474609375 c 4,56,57
 1006.85546875 -214 1006.85546875 -214 956.85546875 -213.734375 c 4,58,59
 651.85546875 -214 651.85546875 -214 472.0703125 -14.51953125 c 4,60,61
 293.85546875 185 293.85546875 185 293.375 523.275390625 c 4,62,63
 293.85546875 856 293.85546875 856 454.115234375 1054.23046875 c 4,64,65
 613.85546875 1252 613.85546875 1252 885.036132812 1251.734375 c 4,66,67
 1064.85546875 1252 1064.85546875 1252 1170.60546875 1138.01953125 c 4,68,69
 1276.85546875 1024 1276.85546875 1024 1277.48046875 832.78515625 c 4,70,-1
 1277.85546875 720 1277.85546875 720 1276.3359375 660.494140625 c 4,18,19
EndSplineSet
Refer: 286 57346 S 1 0 0 1 1085.47 -173.84 2
EndChar

StartChar: A
Encoding: 65 65 37
Width: 659
VWidth: 0
GlyphClass: 2
Flags: W
LayerCount: 3
Fore
SplineSet
277 2426 m 5,0,-1
 381 2426 l 5,1,-1
 624 2090 l 5,2,-1
 520 2030 l 5,3,-1
 329 2301 l 5,4,-1
 124 2020 l 5,5,-1
 20 2080 l 5,6,-1
 277 2426 l 5,0,-1
329 2412 m 25,0,-1
 329 2372 l 25,1,-1
 309 2392 l 25,2,-1
 349 2392 l 1049,3,-1
329.5 2452 m 128,-1,5
 358 2452 358 2452 373 2436 c 4,6,7
 389 2419 389 2419 389 2392 c 0,8,9
 389 2361 389 2361 374 2346.5 c 128,-1,11
 359 2332 359 2332 329 2332 c 128,-1,12
 299 2332 299 2332 284 2346.5 c 128,-1,14
 269 2361 269 2361 269 2392 c 0,15,16
 269 2416 269 2416 286 2435 c 0,17,18
 301 2452 301 2452 329.5 2452 c 128,-1,5
561.870117188 2077.16210938 m 25,0,-1
 581.870117188 2042.52148438 l 25,1,-1
 554.549804688 2049.84179688 l 25,2,-1
 589.19140625 2069.84179688 l 1049,3,-1
542.303710938 2112.05273438 m 128,-1,5
 566.985351562 2126.30273438 566.985351562 2126.30273438 587.975585938 2119.94628906 c 4,6,7
 610.33203125 2113.22460938 610.33203125 2113.22460938 623.83203125 2089.84179688 c 0,8,9
 639.33203125 2062.99511719 639.33203125 2062.99511719 633.591796875 2042.9375 c 128,-1,11
 627.8515625 2022.87988281 627.8515625 2022.87988281 601.870117188 2007.87988281 c 128,-1,12
 575.889648438 1992.87988281 575.889648438 1992.87988281 555.649414062 1997.9375 c 128,-1,14
 535.409179688 2002.99511719 535.409179688 2002.99511719 519.909179688 2029.84179688 c 0,15,16
 507.909179688 2050.62597656 507.909179688 2050.62597656 513.131835938 2075.58105469 c 0,17,18
 517.622070312 2097.80273438 517.622070312 2097.80273438 542.303710938 2112.05273438 c 128,-1,5
82.12890625 2067.16210938 m 25,0,-1
 62.12890625 2032.52148438 l 25,1,-1
 54.80859375 2059.84179688 l 25,2,-1
 89.44921875 2039.84179688 l 1049,3,-1
102.5625 2101.55273438 m 128,-1,5
 127.244140625 2087.30273438 127.244140625 2087.30273438 132.234375 2065.94628906 c 4,6,7
 137.590820312 2043.22460938 137.590820312 2043.22460938 124.090820312 2019.84179688 c 0,8,9
 108.590820312 1992.99511719 108.590820312 1992.99511719 88.3505859375 1987.9375 c 128,-1,11
 68.109375 1982.87988281 68.109375 1982.87988281 42.12890625 1997.87988281 c 128,-1,12
 16.1484375 2012.87988281 16.1484375 2012.87988281 10.408203125 2032.9375 c 128,-1,14
 4.66796875 2052.99511719 4.66796875 2052.99511719 20.16796875 2079.84179688 c 0,15,16
 32.16796875 2100.62597656 32.16796875 2100.62597656 56.3896484375 2108.58105469 c 0,17,18
 77.880859375 2115.80273438 77.880859375 2115.80273438 102.5625 2101.55273438 c 128,-1,5
573.592773438 620.372070312 m 5,0,-1
 233.592773438 31.474609375 l 1,1,2
 181.630859375 61.474609375 181.630859375 61.474609375 129.669921875 91.474609375 c 1,5,-1
 469.669921875 680.372070312 l 5,6,7
 521.630859375 650.372070312 521.630859375 650.372070312 573.592773438 620.372070312 c 5,0,-1
129.669921875 91.474609375 m 1025
191.630859375 78.794921875 m 25,0,-1
 171.630859375 44.154296875 l 25,1,-1
 164.310546875 71.474609375 l 25,2,-1
 198.952148438 51.474609375 l 1049,3,-1
212.064453125 113.186523438 m 128,-1,5
 236.74609375 98.9365234375 236.74609375 98.9365234375 241.736328125 77.580078125 c 4,6,7
 247.092773438 54.857421875 247.092773438 54.857421875 233.592773438 31.474609375 c 0,8,9
 218.092773438 4.6279296875 218.092773438 4.6279296875 197.852539062 -0.4296875 c 128,-1,11
 177.612304688 -5.486328125 177.612304688 -5.486328125 151.630859375 9.513671875 c 128,-1,12
 125.650390625 24.513671875 125.650390625 24.513671875 119.91015625 44.5703125 c 128,-1,14
 114.169921875 64.6279296875 114.169921875 64.6279296875 129.669921875 91.474609375 c 0,15,16
 141.669921875 112.259765625 141.669921875 112.259765625 165.892578125 120.213867188 c 0,17,18
 187.3828125 127.436523438 187.3828125 127.436523438 212.064453125 113.186523438 c 128,-1,5
531.630859375 667.692382812 m 25,0,-1
 511.630859375 633.051757812 l 25,1,-1
 504.310546875 660.372070312 l 25,2,-1
 538.952148438 640.372070312 l 1049,3,-1
552.064453125 702.083007812 m 128,-1,5
 576.74609375 687.833007812 576.74609375 687.833007812 581.736328125 666.4765625 c 4,6,7
 587.092773438 643.754882812 587.092773438 643.754882812 573.592773438 620.372070312 c 0,8,9
 558.092773438 593.525390625 558.092773438 593.525390625 537.852539062 588.467773438 c 128,-1,11
 517.612304688 583.41015625 517.612304688 583.41015625 491.630859375 598.41015625 c 128,-1,12
 465.650390625 613.41015625 465.650390625 613.41015625 459.91015625 633.467773438 c 128,-1,14
 454.169921875 653.525390625 454.169921875 653.525390625 469.669921875 680.372070312 c 0,15,16
 481.669921875 701.15625 481.669921875 701.15625 505.892578125 709.111328125 c 0,17,18
 527.3828125 716.333007812 527.3828125 716.333007812 552.064453125 702.083007812 c 128,-1,5
EndSplineSet
EndChar

StartChar: E
Encoding: 69 69 41
Width: 701
VWidth: 0
GlyphClass: 2
Flags: W
LayerCount: 3
Fore
SplineSet
277 2428 m 5,0,-1
 381 2428 l 5,1,-1
 624 2092 l 5,2,-1
 520 2032 l 5,3,-1
 329 2303 l 5,4,-1
 124 2022 l 5,5,-1
 20 2082 l 5,6,-1
 277 2428 l 5,0,-1
269 2394 m 132,-1,0
 269 2419 269 2419 287 2436 c 4,1,2
 305 2454 305 2454 329 2454 c 132,-1,3
 353 2454 353 2454 371 2436.5 c 132,-1,4
 389 2419 389 2419 389 2394.5 c 132,-1,5
 389 2370 389 2370 371.5 2352 c 132,-1,6
 354 2334 354 2334 329 2334 c 132,-1,7
 304 2334 304 2334 287 2352 c 4,8,9
 269 2369 269 2369 269 2394 c 132,-1,0
329 2414 m 29,0,-1
 329 2374 l 5,1,-1
 309 2394 l 5,2,-1
 349 2394 l 1029,3,-1
519.909179688 2031.84179688 m 132,-1,0
 507.409179688 2053.4921875 507.409179688 2053.4921875 514.497070312 2077.21484375 c 4,1,2
 521.0859375 2101.80273438 521.0859375 2101.80273438 541.870117188 2113.80273438 c 132,-1,3
 562.655273438 2125.80273438 562.655273438 2125.80273438 586.993164062 2119.64746094 c 132,-1,4
 611.33203125 2113.4921875 611.33203125 2113.4921875 623.58203125 2092.27441406 c 132,-1,5
 635.83203125 2071.05664062 635.83203125 2071.05664062 629.676757812 2046.71875 c 132,-1,6
 623.521484375 2022.37988281 623.521484375 2022.37988281 601.870117188 2009.87988281 c 132,-1,7
 580.219726562 1997.37988281 580.219726562 1997.37988281 556.497070312 2004.46875 c 4,8,9
 532.409179688 2010.19042969 532.409179688 2010.19042969 519.909179688 2031.84179688 c 132,-1,0
561.870117188 2079.16210938 m 29,0,-1
 581.870117188 2044.52148438 l 5,1,-1
 554.549804688 2051.84179688 l 5,2,-1
 589.19140625 2071.84179688 l 1029,3,-1
20.16796875 2081.84179688 m 132,-1,0
 32.66796875 2103.4921875 32.66796875 2103.4921875 56.755859375 2109.21484375 c 4,1,2
 81.3447265625 2115.80273438 81.3447265625 2115.80273438 102.12890625 2103.80273438 c 132,-1,3
 122.9140625 2091.80273438 122.9140625 2091.80273438 129.751953125 2067.64746094 c 132,-1,4
 136.590820312 2043.4921875 136.590820312 2043.4921875 124.340820312 2022.27441406 c 132,-1,5
 112.090820312 2001.05664062 112.090820312 2001.05664062 87.935546875 1994.21875 c 132,-1,6
 63.779296875 1987.37988281 63.779296875 1987.37988281 42.12890625 1999.87988281 c 132,-1,7
 20.478515625 2012.37988281 20.478515625 2012.37988281 14.755859375 2036.46875 c 4,8,9
 7.66796875 2060.19042969 7.66796875 2060.19042969 20.16796875 2081.84179688 c 132,-1,0
82.12890625 2069.16210938 m 29,0,-1
 62.12890625 2034.52148438 l 5,1,-1
 54.80859375 2061.84179688 l 5,2,-1
 89.44921875 2041.84179688 l 1029,3,-1
547.591796875 42.8740234375 m 5,0,-1
 68.421875 0.9521484375 l 1,1,2
 63.1923828125 60.7236328125 63.1923828125 60.7236328125 57.962890625 120.495117188 c 1,5,-1
 537.1328125 162.416992188 l 5,6,7
 542.362304688 102.645507812 542.362304688 102.645507812 547.591796875 42.8740234375 c 5,0,-1
57.962890625 120.495117188 m 1025
57.962890625 120.495117188 m 132,-1,0
 82.8681640625 122.673828125 82.8681640625 122.673828125 101.372070312 106.224609375 c 4,1,2
 120.872070312 89.861328125 120.872070312 89.861328125 122.963867188 65.953125 c 132,-1,3
 125.055664062 42.0439453125 125.055664062 42.0439453125 109.19140625 22.587890625 c 132,-1,4
 93.3271484375 3.130859375 93.3271484375 3.130859375 68.919921875 0.9951171875 c 132,-1,5
 44.513671875 -1.1396484375 44.513671875 -1.1396484375 25.056640625 14.724609375 c 132,-1,6
 5.599609375 30.58984375 5.599609375 30.58984375 3.4208984375 55.494140625 c 132,-1,7
 1.2421875 80.3994140625 1.2421875 80.3994140625 17.69140625 98.9033203125 c 4,8,9
 33.05859375 118.31640625 33.05859375 118.31640625 57.962890625 120.495117188 c 132,-1,0
83.1162109375 62.466796875 m 29,0,-1
 43.2685546875 58.98046875 l 5,1,-1
 61.44921875 80.6474609375 l 5,2,-1
 64.935546875 40.7998046875 l 1029,3,-1
537.1328125 162.416992188 m 132,-1,0
 562.038085938 164.595703125 562.038085938 164.595703125 580.541992188 148.146484375 c 4,1,2
 600.041992188 131.783203125 600.041992188 131.783203125 602.133789062 107.875 c 132,-1,3
 604.225585938 83.9658203125 604.225585938 83.9658203125 588.361328125 64.509765625 c 132,-1,4
 572.49609375 45.052734375 572.49609375 45.052734375 548.08984375 42.9169921875 c 132,-1,5
 523.682617188 40.7822265625 523.682617188 40.7822265625 504.2265625 56.646484375 c 132,-1,6
 484.76953125 72.51171875 484.76953125 72.51171875 482.590820312 97.416015625 c 132,-1,7
 480.412109375 122.321289062 480.412109375 122.321289062 496.861328125 140.825195312 c 4,8,9
 512.228515625 160.23828125 512.228515625 160.23828125 537.1328125 162.416992188 c 132,-1,0
562.286132812 104.388671875 m 29,0,-1
 522.438476562 100.90234375 l 5,1,-1
 540.619140625 122.569335938 l 5,2,-1
 544.10546875 82.7216796875 l 1029,3,-1
EndSplineSet
EndChar

StartChar: U
Encoding: 85 85 57
Width: 648
VWidth: 0
GlyphClass: 2
Flags: W
LayerCount: 3
Fore
SplineSet
277 2428 m 5,0,-1
 381 2428 l 5,1,-1
 624 2092 l 5,2,-1
 520 2032 l 5,3,-1
 329 2303 l 5,4,-1
 124 2022 l 5,5,-1
 20 2082 l 5,6,-1
 277 2428 l 5,0,-1
269 2394 m 132,-1,0
 269 2419 269 2419 287 2436 c 4,1,2
 305 2454 305 2454 329 2454 c 132,-1,3
 353 2454 353 2454 371 2436.5 c 132,-1,4
 389 2419 389 2419 389 2394.5 c 132,-1,5
 389 2370 389 2370 371.5 2352 c 132,-1,6
 354 2334 354 2334 329 2334 c 132,-1,7
 304 2334 304 2334 287 2352 c 4,8,9
 269 2369 269 2369 269 2394 c 132,-1,0
329 2414 m 29,0,-1
 329 2374 l 5,1,-1
 309 2394 l 5,2,-1
 349 2394 l 1029,3,-1
519.909179688 2031.84179688 m 132,-1,0
 507.409179688 2053.4921875 507.409179688 2053.4921875 514.497070312 2077.21484375 c 4,1,2
 521.0859375 2101.80273438 521.0859375 2101.80273438 541.870117188 2113.80273438 c 132,-1,3
 562.655273438 2125.80273438 562.655273438 2125.80273438 586.993164062 2119.64746094 c 132,-1,4
 611.33203125 2113.4921875 611.33203125 2113.4921875 623.58203125 2092.27441406 c 132,-1,5
 635.83203125 2071.05664062 635.83203125 2071.05664062 629.676757812 2046.71875 c 132,-1,6
 623.521484375 2022.37988281 623.521484375 2022.37988281 601.870117188 2009.87988281 c 132,-1,7
 580.219726562 1997.37988281 580.219726562 1997.37988281 556.497070312 2004.46875 c 4,8,9
 532.409179688 2010.19042969 532.409179688 2010.19042969 519.909179688 2031.84179688 c 132,-1,0
561.870117188 2079.16210938 m 29,0,-1
 581.870117188 2044.52148438 l 5,1,-1
 554.549804688 2051.84179688 l 5,2,-1
 589.19140625 2071.84179688 l 1029,3,-1
20.16796875 2081.84179688 m 132,-1,0
 32.66796875 2103.4921875 32.66796875 2103.4921875 56.755859375 2109.21484375 c 4,1,2
 81.3447265625 2115.80273438 81.3447265625 2115.80273438 102.12890625 2103.80273438 c 132,-1,3
 122.9140625 2091.80273438 122.9140625 2091.80273438 129.751953125 2067.64746094 c 132,-1,4
 136.590820312 2043.4921875 136.590820312 2043.4921875 124.340820312 2022.27441406 c 132,-1,5
 112.090820312 2001.05664062 112.090820312 2001.05664062 87.935546875 1994.21875 c 132,-1,6
 63.779296875 1987.37988281 63.779296875 1987.37988281 42.12890625 1999.87988281 c 132,-1,7
 20.478515625 2012.37988281 20.478515625 2012.37988281 14.755859375 2036.46875 c 4,8,9
 7.66796875 2060.19042969 7.66796875 2060.19042969 20.16796875 2081.84179688 c 132,-1,0
82.12890625 2069.16210938 m 29,0,-1
 62.12890625 2034.52148438 l 5,1,-1
 54.80859375 2061.84179688 l 5,2,-1
 89.44921875 2041.84179688 l 1029,3,-1
411 -44 m 0,0,1
 622 -44 622 -44 622 780 c 1,2,-1
 743 780 l 1,3,4
 742 -174 742 -174 407.956054688 -174 c 0,5,6
 194 -174 194 -174 194 48 c 6,0,0
 194 54 194 54 194 60 c 1,7,-1
 314 60 l 1,8,9
 314 54 314 54 314 49 c 2,0,0
 314 -44 314 -44 411 -44 c 0,0,1
194 60 m 132,-1,0
 194 85 194 85 212 102 c 4,1,2
 230 120 230 120 254 120 c 132,-1,3
 278 120 278 120 296 102.5 c 132,-1,4
 314 85 314 85 314 60.5 c 132,-1,5
 314 36 314 36 296.5 18 c 132,-1,6
 279 0 279 0 254 0 c 132,-1,7
 229 0 229 0 212 18 c 4,8,9
 194 35 194 35 194 60 c 132,-1,0
254 80 m 29,0,-1
 254 40 l 5,1,-1
 234 60 l 5,2,-1
 274 60 l 1029,3,-1
623 780 m 132,-1,0
 623 805 623 805 641 822 c 4,1,2
 659 840 659 840 683 840 c 132,-1,3
 707 840 707 840 725 822.5 c 132,-1,4
 743 805 743 805 743 780.5 c 132,-1,5
 743 756 743 756 725.5 738 c 132,-1,6
 708 720 708 720 683 720 c 132,-1,7
 658 720 658 720 641 738 c 4,8,9
 623 755 623 755 623 780 c 132,-1,0
683 800 m 29,0,-1
 683 760 l 5,1,-1
 663 780 l 5,2,-1
 703 780 l 1029,3,-1
EndSplineSet
EndChar

StartChar: bracketleft
Encoding: 91 91 63
Width: 484
GlyphClass: 2
Flags: W
LayerCount: 3
Fore
SplineSet
0 3250 m 5,0,-1
 425 3250 l 5,1,-1
 425 3130 l 5,2,-1
 120 3130 l 5,3,-1
 120 -880 l 5,4,-1
 424 -880 l 5,5,-1
 424 -1000 l 5,6,-1
 0 -1000 l 5,7,-1
 0 3250 l 5,0,-1
EndSplineSet
Refer: 286 57346 S 1 0 0 1 365 3130 2
Refer: 286 57346 S 1 0 0 1 364 -1000 2
EndChar

StartChar: backslash
Encoding: 92 92 64
Width: 2249
GlyphClass: 2
Flags: W
LayerCount: 3
Fore
SplineSet
113.793945312 2772.28417969 m 1,0,-1
 2238.79394531 -908.32421875 l 1,1,-1
 2134.87109375 -968.32421875 l 1,2,-1
 9.87109375 2712.28417969 l 1,3,-1
 113.793945312 2772.28417969 l 1,0,-1
EndSplineSet
Refer: 286 57346 N 0.866025 0.5 -0.5 0.866025 39.8707 2660.32 2
Refer: 286 57346 N 0.866025 0.5 -0.5 0.866025 2164.87 -1020.29 2
EndChar

StartChar: underscore
Encoding: 95 95 67
Width: 1353
GlyphClass: 2
Flags: W
LayerCount: 3
Fore
SplineSet
1293 120 m 1,0,-1
 1293 0 l 1,1,-1
 60 0 l 1,2,-1
 60 120 l 1,3,-1
 1293 120 l 1,0,-1
EndSplineSet
Refer: 286 57346 N 1 0 0 1 0 0 2
Refer: 286 57346 N 1 0 0 1 1233 0 2
EndChar

StartChar: grave
Encoding: 96 96 68
Width: 1233
GlyphClass: 2
Flags: W
LayerCount: 3
Fore
SplineSet
99 2101 m 1,0,-1
 565 1691 l 1,1,-1
 477 1602 l 5,2,-1
 21 2003 l 1,3,-1
 99 2101 l 1,0,-1
EndSplineSet
Refer: 286 57346 N 1 0 0 1 461 1587 2
Refer: 286 57346 N 1 0 0 1 0 1992 2
EndChar

StartChar: a
Encoding: 97 97 69
Width: 540
VWidth: 0
GlyphClass: 2
Flags: W
LayerCount: 3
Fore
SplineSet
454.592773438 621.372070312 m 5,0,-1
 114.592773438 32.474609375 l 1,1,2
 62.630859375 62.474609375 62.630859375 62.474609375 10.669921875 92.474609375 c 1,5,-1
 350.669921875 681.372070312 l 5,6,7
 402.630859375 651.372070312 402.630859375 651.372070312 454.592773438 621.372070312 c 5,0,-1
10.669921875 92.474609375 m 1025
72.630859375 79.794921875 m 25,0,-1
 52.630859375 45.154296875 l 25,1,-1
 45.310546875 72.474609375 l 25,2,-1
 79.9521484375 52.474609375 l 1049,3,-1
93.064453125 114.186523438 m 128,-1,5
 117.74609375 99.9365234375 117.74609375 99.9365234375 122.736328125 78.580078125 c 4,6,7
 128.092773438 55.857421875 128.092773438 55.857421875 114.592773438 32.474609375 c 0,8,9
 99.0927734375 5.6279296875 99.0927734375 5.6279296875 78.8525390625 0.5703125 c 128,-1,11
 58.6123046875 -4.486328125 58.6123046875 -4.486328125 32.630859375 10.513671875 c 128,-1,12
 6.650390625 25.513671875 6.650390625 25.513671875 0.91015625 45.5703125 c 128,-1,14
 -4.830078125 65.6279296875 -4.830078125 65.6279296875 10.669921875 92.474609375 c 0,15,16
 22.669921875 113.259765625 22.669921875 113.259765625 46.892578125 121.213867188 c 0,17,18
 68.3828125 128.436523438 68.3828125 128.436523438 93.064453125 114.186523438 c 128,-1,5
412.630859375 668.692382812 m 25,0,-1
 392.630859375 634.051757812 l 25,1,-1
 385.310546875 661.372070312 l 25,2,-1
 419.952148438 641.372070312 l 1049,3,-1
433.064453125 703.083007812 m 128,-1,5
 457.74609375 688.833007812 457.74609375 688.833007812 462.736328125 667.4765625 c 4,6,7
 468.092773438 644.754882812 468.092773438 644.754882812 454.592773438 621.372070312 c 0,8,9
 439.092773438 594.525390625 439.092773438 594.525390625 418.852539062 589.467773438 c 128,-1,11
 398.612304688 584.41015625 398.612304688 584.41015625 372.630859375 599.41015625 c 128,-1,12
 346.650390625 614.41015625 346.650390625 614.41015625 340.91015625 634.467773438 c 128,-1,14
 335.169921875 654.525390625 335.169921875 654.525390625 350.669921875 681.372070312 c 0,15,16
 362.669921875 702.15625 362.669921875 702.15625 386.892578125 710.111328125 c 0,17,18
 408.3828125 717.333007812 408.3828125 717.333007812 433.064453125 703.083007812 c 128,-1,5
EndSplineSet
EndChar

StartChar: b
Encoding: 98 98 70
Width: 354
VWidth: 0
GlyphClass: 2
Flags: W
LayerCount: 3
Fore
SplineSet
120 1740 m 5,0,-1
 120 60 l 1,1,2
 60 60 60 60 0 60 c 1,5,-1
 0 1740 l 5,6,7
 0 1740 0 1740 120 1740 c 5,0,-1
0 60 m 1025
0 60 m 132,-1,0
 0 85 0 85 18 102 c 4,1,2
 36 120 36 120 60 120 c 132,-1,3
 84 120 84 120 102 102.5 c 132,-1,4
 120 85 120 85 120 60.5 c 132,-1,5
 120 36 120 36 102.5 18 c 132,-1,6
 85 0 85 0 60 0 c 132,-1,7
 35 0 35 0 18 18 c 4,8,9
 0 35 0 35 0 60 c 132,-1,0
60 80 m 29,0,-1
 60 40 l 5,1,-1
 40 60 l 5,2,-1
 80 60 l 1029,3,-1
0 1740 m 132,-1,0
 0 1765 0 1765 18 1782 c 4,1,2
 36 1800 36 1800 60 1800 c 132,-1,3
 84 1800 84 1800 102 1782.5 c 132,-1,4
 120 1765 120 1765 120 1740.5 c 132,-1,5
 120 1716 120 1716 102.5 1698 c 132,-1,6
 85 1680 85 1680 60 1680 c 132,-1,7
 35 1680 35 1680 18 1698 c 4,8,9
 0 1715 0 1715 0 1740 c 132,-1,0
60 1760 m 29,0,-1
 60 1720 l 5,1,-1
 40 1740 l 5,2,-1
 80 1740 l 1029,3,-1
120 999 m 1,0,1
 167 1047 167 1047 214 1095 c 0,2,3
 332 1213 332 1213 329 1273 c 0,0,0
 323 1384 323 1384 234 1390 c 0,4,5
 120 1397 120 1397 120 1222 c 0,6,7
 120 1106 120 1106 120 999 c 1,0,1
117.991210938 836 m 1,10,11
 117.991210938 836 117.991210938 836 0 855 c 5,14,-1
 0 1225 l 2,15,16
 0 1512 0 1512 231 1510 c 0,17,18
 336 1509 336 1509 398 1421 c 0,0,0
 500 1274 500 1274 395 1118 c 0,0,0
 373 1085 373 1085 308 1019 c 0,19,20
 240 950 240 950 117.991210938 836 c 1,10,11
60 876 m 25,0,-1
 60 836 l 25,1,-1
 40 856 l 25,2,-1
 80 856 l 1049,3,-1
60.5 916 m 128,-1,5
 87 916 87 916 103 900 c 0,6,7
 120 883 120 883 120 856 c 0,7,8
 120 826 120 826 102.965820312 810 c 0,9,10
 88 796 88 796 60 796 c 128,-1,11
 32 796 32 796 17.0341796875 810 c 0,12,13
 0 826 0 826 0 856 c 0,14,15
 0 882 0 882 18 900 c 0,16,17
 34 916 34 916 60.5 916 c 128,-1,5
60 881 m 25,0,-1
 60 841 l 25,1,-1
 40 861 l 25,2,-1
 80 861 l 1049,3,-1
60.5 921 m 128,-1,5
 87 921 87 921 103 905 c 0,6,7
 120 888 120 888 120 861 c 0,7,8
 120 831 120 831 102.965820312 815 c 0,9,10
 88 801 88 801 60 801 c 128,-1,11
 32 801 32 801 17.0341796875 815 c 0,12,13
 0 831 0 831 0 861 c 0,14,15
 0 887 0 887 18 905 c 0,16,17
 34 921 34 921 60.5 921 c 128,-1,5
EndSplineSet
EndChar

StartChar: c
Encoding: 99 99 71
Width: 94
GlyphClass: 2
Flags: W
LayerCount: 3
Fore
SplineSet
260 -515 m 0,0,1
 325 -515 325 -515 372 -492.5 c 128,-1,2
 419 -470 419 -470 444 -431.5 c 128,-1,3
 469 -393 469 -393 480 -350.5 c 128,-1,4
 491 -308 491 -308 491 -259 c 0,5,6
 491 -204 491 -204 479.5 -158.5 c 128,-1,7
 468 -113 468 -113 443 -73.5 c 128,-1,8
 418 -34 418 -34 371 -11.5 c 128,-1,9
 324 11 324 11 260 11 c 2,10,-1
 258 11 l 2,11,12
 200 11 200 11 154.5 -14 c 128,-1,13
 109 -39 109 -39 82.5 -79 c 128,-1,14
 56 -119 56 -119 42.5 -164.5 c 128,-1,15
 29 -210 29 -210 29 -255 c 0,16,17
 29 -364 29 -364 87 -439.5 c 128,-1,18
 145 -515 145 -515 260 -515 c 0,0,1
255 168 m 128,-1,20
 333 168 333 168 393.5 140.5 c 128,-1,21
 454 113 454 113 512 60 c 0,22,23
 570 6 570 6 606 -75.5 c 128,-1,24
 642 -157 642 -157 642 -255 c 128,-1,25
 642 -353 642 -353 603 -441 c 128,-1,26
 564 -529 564 -529 512 -570 c 0,27,28
 445 -623 445 -623 388 -650.5 c 128,-1,29
 331 -678 331 -678 255 -678 c 0,30,31
 178 -678 178 -678 119.5 -650.5 c 128,-1,32
 61 -623 61 -623 -1 -570 c 0,33,34
 -57 -524 -57 -524 -92.5 -439.5 c 128,-1,35
 -128 -355 -128 -355 -128 -255 c 0,36,37
 -128 -54 -128 -54 -1 60 c 0,38,39
 57 112 57 112 117 140 c 128,-1,19
 177 168 177 168 255 168 c 128,-1,20
EndSplineSet
Validated: 1
EndChar

StartChar: d
Encoding: 100 100 72
Width: 942
VWidth: 0
GlyphClass: 2
Flags: W
LayerCount: 3
Fore
SplineSet
-769 -440 m 5,0,-1
 -829 -544 l 5,1,2
 -1100 -387 -1100 -387 -1100 -26 c 5,3,-1
 -980 -26 l 5,4,5
 -980 -316 -980 -316 -769 -440 c 5,0,-1
-782.12109375 -501.936523438 m 25,0,-1
 -816.762695312 -481.936523438 l 25,1,-1
 -789.44140625 -474.616210938 l 25,2,-1
 -809.44140625 -509.256835938 l 1049,3,-1
-747.73046875 -522.369140625 m 128,-1,5
 -760.98046875 -545.319335938 -760.98046875 -545.319335938 -782.836914062 -551.17578125 c 0,6,7
 -806.059570312 -557.3984375 -806.059570312 -557.3984375 -829.44140625 -543.8984375 c 0,7,8
 -855.422851562 -528.8984375 -855.422851562 -528.8984375 -860.76171875 -506.145507812 c 0,9,10
 -865.403320312 -486.185546875 -865.403320312 -486.185546875 -851.403320312 -461.936523438 c 128,-1,11
 -837.403320312 -437.6875 -837.403320312 -437.6875 -817.795898438 -431.7265625 c 0,12,13
 -795.422851562 -424.974609375 -795.422851562 -424.974609375 -769.44140625 -439.974609375 c 0,14,15
 -746.924804688 -452.974609375 -746.924804688 -452.974609375 -740.336914062 -477.563476562 c 0,16,17
 -734.48046875 -499.419921875 -734.48046875 -499.419921875 -747.73046875 -522.369140625 c 128,-1,5
-1040 -46 m 25,0,-1
 -1040 -6 l 25,1,-1
 -1020 -26 l 25,2,-1
 -1060 -26 l 1049,3,-1
-1040.5 -86 m 128,-1,5
 -1067 -86 -1067 -86 -1083 -70 c 0,6,7
 -1100 -53 -1100 -53 -1100 -26 c 0,7,8
 -1100 4 -1100 4 -1082.96582031 20 c 0,9,10
 -1068 34 -1068 34 -1040 34 c 128,-1,11
 -1012 34 -1012 34 -997.034179688 20 c 0,12,13
 -980 4 -980 4 -980 -26 c 0,14,15
 -980 -52 -980 -52 -998 -70 c 0,16,17
 -1014 -86 -1014 -86 -1040.5 -86 c 128,-1,5
EndSplineSet
EndChar

StartChar: e
Encoding: 101 101 73
Width: 698
VWidth: 0
GlyphClass: 2
Flags: W
LayerCount: 3
Fore
SplineSet
544.591796875 42.8740234375 m 5,0,-1
 65.421875 0.9521484375 l 1,1,2
 60.1923828125 60.7236328125 60.1923828125 60.7236328125 54.962890625 120.495117188 c 1,5,-1
 534.1328125 162.416992188 l 5,6,7
 539.362304688 102.645507812 539.362304688 102.645507812 544.591796875 42.8740234375 c 5,0,-1
54.962890625 120.495117188 m 1025
54.962890625 120.495117188 m 132,-1,0
 79.8681640625 122.673828125 79.8681640625 122.673828125 98.3720703125 106.224609375 c 4,1,2
 117.872070312 89.861328125 117.872070312 89.861328125 119.963867188 65.953125 c 132,-1,3
 122.055664062 42.0439453125 122.055664062 42.0439453125 106.19140625 22.587890625 c 132,-1,4
 90.3271484375 3.130859375 90.3271484375 3.130859375 65.919921875 0.9951171875 c 132,-1,5
 41.513671875 -1.1396484375 41.513671875 -1.1396484375 22.056640625 14.724609375 c 132,-1,6
 2.599609375 30.58984375 2.599609375 30.58984375 0.4208984375 55.494140625 c 132,-1,7
 -1.7578125 80.3994140625 -1.7578125 80.3994140625 14.69140625 98.9033203125 c 4,8,9
 30.05859375 118.31640625 30.05859375 118.31640625 54.962890625 120.495117188 c 132,-1,0
80.1162109375 62.466796875 m 29,0,-1
 40.2685546875 58.98046875 l 5,1,-1
 58.44921875 80.6474609375 l 5,2,-1
 61.935546875 40.7998046875 l 1029,3,-1
534.1328125 162.416992188 m 132,-1,0
 559.038085938 164.595703125 559.038085938 164.595703125 577.541992188 148.146484375 c 4,1,2
 597.041992188 131.783203125 597.041992188 131.783203125 599.133789062 107.875 c 132,-1,3
 601.225585938 83.9658203125 601.225585938 83.9658203125 585.361328125 64.509765625 c 132,-1,4
 569.49609375 45.052734375 569.49609375 45.052734375 545.08984375 42.9169921875 c 132,-1,5
 520.682617188 40.7822265625 520.682617188 40.7822265625 501.2265625 56.646484375 c 132,-1,6
 481.76953125 72.51171875 481.76953125 72.51171875 479.590820312 97.416015625 c 132,-1,7
 477.412109375 122.321289062 477.412109375 122.321289062 493.861328125 140.825195312 c 4,8,9
 509.228515625 160.23828125 509.228515625 160.23828125 534.1328125 162.416992188 c 132,-1,0
559.286132812 104.388671875 m 29,0,-1
 519.438476562 100.90234375 l 5,1,-1
 537.619140625 122.569335938 l 5,2,-1
 541.10546875 82.7216796875 l 1029,3,-1
EndSplineSet
EndChar

StartChar: f
Encoding: 102 102 74
Width: 355
VWidth: 0
GlyphClass: 2
Flags: W
LayerCount: 3
Fore
SplineSet
120 737 m 5,0,-1
 120 57 l 1,1,2
 60 57 60 57 0 57 c 1,5,-1
 0 737 l 5,6,7
 60 737 60 737 120 737 c 5,0,-1
0 57 m 1025
0 57 m 132,-1,0
 0 82 0 82 18 99 c 4,1,2
 36 117 36 117 60 117 c 132,-1,3
 84 117 84 117 102 99.5 c 132,-1,4
 120 82 120 82 120 57.5 c 132,-1,5
 120 33 120 33 102.5 15 c 132,-1,6
 85 -3 85 -3 60 -3 c 132,-1,7
 35 -3 35 -3 18 15 c 4,8,9
 0 32 0 32 0 57 c 132,-1,0
60 77 m 29,0,-1
 60 37 l 5,1,-1
 40 57 l 5,2,-1
 80 57 l 1029,3,-1
0 737 m 132,-1,0
 0 762 0 762 18 779 c 4,1,2
 36 797 36 797 60 797 c 132,-1,3
 84 797 84 797 102 779.5 c 132,-1,4
 120 762 120 762 120 737.5 c 132,-1,5
 120 713 120 713 102.5 695 c 132,-1,6
 85 677 85 677 60 677 c 132,-1,7
 35 677 35 677 18 695 c 4,8,9
 0 712 0 712 0 737 c 132,-1,0
60 757 m 29,0,-1
 60 717 l 5,1,-1
 40 737 l 5,2,-1
 80 737 l 1029,3,-1
EndSplineSet
EndChar

StartChar: g
Encoding: 103 103 75
Width: 299
VWidth: 0
GlyphClass: 2
Flags: W
LayerCount: 3
Fore
SplineSet
120 1740 m 5,0,-1
 120 60 l 1,1,2
 60 60 60 60 0 60 c 1,5,-1
 0 1740 l 5,6,7
 0 1740 0 1740 120 1740 c 5,0,-1
0 60 m 1025
0 60 m 132,-1,0
 0 85 0 85 18 102 c 4,1,2
 36 120 36 120 60 120 c 132,-1,3
 84 120 84 120 102 102.5 c 132,-1,4
 120 85 120 85 120 60.5 c 132,-1,5
 120 36 120 36 102.5 18 c 132,-1,6
 85 0 85 0 60 0 c 132,-1,7
 35 0 35 0 18 18 c 4,8,9
 0 35 0 35 0 60 c 132,-1,0
60 80 m 29,0,-1
 60 40 l 5,1,-1
 40 60 l 5,2,-1
 80 60 l 1029,3,-1
0 1740 m 132,-1,0
 0 1765 0 1765 18 1782 c 4,1,2
 36 1800 36 1800 60 1800 c 132,-1,3
 84 1800 84 1800 102 1782.5 c 132,-1,4
 120 1765 120 1765 120 1740.5 c 132,-1,5
 120 1716 120 1716 102.5 1698 c 132,-1,6
 85 1680 85 1680 60 1680 c 132,-1,7
 35 1680 35 1680 18 1698 c 4,8,9
 0 1715 0 1715 0 1740 c 132,-1,0
60 1760 m 29,0,-1
 60 1720 l 5,1,-1
 40 1740 l 5,2,-1
 80 1740 l 1029,3,-1
EndSplineSet
EndChar

StartChar: h
Encoding: 104 104 76
Width: 585
VWidth: 0
GlyphClass: 3
Flags: W
LayerCount: 3
Fore
SplineSet
403 740 m 5,0,-1
 403 60 l 1,1,2
 343 60 343 60 283 60 c 1,5,-1
 283 740 l 5,6,7
 343 740 343 740 403 740 c 5,0,-1
283 60 m 1025
283 60 m 132,-1,0
 283 85 283 85 301 102 c 4,1,2
 319 120 319 120 343 120 c 132,-1,3
 367 120 367 120 385 102.5 c 132,-1,4
 403 85 403 85 403 60.5 c 132,-1,5
 403 36 403 36 385.5 18 c 132,-1,6
 368 0 368 0 343 0 c 132,-1,7
 318 0 318 0 301 18 c 4,8,9
 283 35 283 35 283 60 c 132,-1,0
343 80 m 29,0,-1
 343 40 l 5,1,-1
 323 60 l 5,2,-1
 363 60 l 1029,3,-1
283 740 m 132,-1,0
 283 765 283 765 301 782 c 4,1,2
 319 800 319 800 343 800 c 132,-1,3
 367 800 367 800 385 782.5 c 132,-1,4
 403 765 403 765 403 740.5 c 132,-1,5
 403 716 403 716 385.5 698 c 132,-1,6
 368 680 368 680 343 680 c 132,-1,7
 318 680 318 680 301 698 c 4,8,9
 283 715 283 715 283 740 c 132,-1,0
343 760 m 29,0,-1
 343 720 l 5,1,-1
 323 740 l 5,2,-1
 363 740 l 1029,3,-1
EndSplineSet
LCarets2: 1 760
EndChar

StartChar: i
Encoding: 105 105 77
Width: 49
VWidth: 0
GlyphClass: 2
Flags: W
LayerCount: 3
Fore
SplineSet
123 584 m 1,0,-1
 123 26 l 1,1,-1
 -26 26 l 1,2,-1
 -26 584 l 1,3,-1
 123 584 l 1,0,-1
EndSplineSet
Validated: 1
EndChar

StartChar: j
Encoding: 106 106 78
Width: 248
VWidth: 0
GlyphClass: 2
Flags: W
LayerCount: 3
Fore
SplineSet
249 155 m 5,0,-1
 377 58 l 5,1,-1
 89 -206 l 5,2,-1
 89 -26 l 5,3,-1
 249 155 l 5,0,-1
-72 154 m 5,4,-1
 89 154 l 5,5,-1
 89 -206 l 5,6,-1
 -72 -360 l 5,7,-1
 -72 154 l 5,4,-1
EndSplineSet
Validated: 5
EndChar

StartChar: k
Encoding: 107 107 79
Width: 197
VWidth: 3070
GlyphClass: 2
Flags: W
LayerCount: 3
Fore
SplineSet
120.341796875 741 m 5,0,-1
 120.341796875 61 l 1,1,2
 60.341796875 61 60.341796875 61 0.341796875 61 c 1,5,-1
 0.341796875 741 l 5,6,7
 60.341796875 741 60.341796875 741 120.341796875 741 c 5,0,-1
0.341796875 61 m 1025
0.341796875 61 m 132,-1,0
 0.341796875 86 0.341796875 86 18.341796875 103 c 4,1,2
 36.341796875 121 36.341796875 121 60.341796875 121 c 132,-1,3
 84.341796875 121 84.341796875 121 102.341796875 103.5 c 132,-1,4
 120.341796875 86 120.341796875 86 120.341796875 61.5 c 132,-1,5
 120.341796875 37 120.341796875 37 102.841796875 19 c 132,-1,6
 85.341796875 1 85.341796875 1 60.341796875 1 c 132,-1,7
 35.341796875 1 35.341796875 1 18.341796875 19 c 4,8,9
 0.341796875 36 0.341796875 36 0.341796875 61 c 132,-1,0
60.341796875 81 m 29,0,-1
 60.341796875 41 l 5,1,-1
 40.341796875 61 l 5,2,-1
 80.341796875 61 l 1029,3,-1
0.341796875 741 m 132,-1,0
 0.341796875 766 0.341796875 766 18.341796875 783 c 4,1,2
 36.341796875 801 36.341796875 801 60.341796875 801 c 132,-1,3
 84.341796875 801 84.341796875 801 102.341796875 783.5 c 132,-1,4
 120.341796875 766 120.341796875 766 120.341796875 741.5 c 132,-1,5
 120.341796875 717 120.341796875 717 102.841796875 699 c 132,-1,6
 85.341796875 681 85.341796875 681 60.341796875 681 c 132,-1,7
 35.341796875 681 35.341796875 681 18.341796875 699 c 4,8,9
 0.341796875 716 0.341796875 716 0.341796875 741 c 132,-1,0
60.341796875 761 m 29,0,-1
 60.341796875 721 l 5,1,-1
 40.341796875 741 l 5,2,-1
 80.341796875 741 l 1029,3,-1
EndSplineSet
EndChar

StartChar: l
Encoding: 108 108 80
Width: 83
GlyphClass: 2
Flags: W
LayerCount: 3
Fore
SplineSet
23 397 m 4,0,1
 83 397 83 397 133 350 c 4,2,3
 190 298 190 298 190 214 c 4,4,5
 190 172 190 172 173 134 c 132,-1,6
 156 96 156 96 134 78 c 4,7,8
 74 31 74 31 23 31 c 4,9,10
 -32 31 -32 31 -88 78 c 4,11,12
 -112 98 -112 98 -127.5 134.5 c 132,-1,13
 -143 171 -143 171 -143 214 c 4,14,15
 -143 300 -143 300 -88 350 c 4,16,17
 -36 397 -36 397 23 397 c 4,0,1
EndSplineSet
Validated: 1
EndChar

StartChar: m
Encoding: 109 109 81
Width: 372
VWidth: 3070
GlyphClass: 2
Flags: W
LayerCount: 3
Fore
SplineSet
403.774414062 1740 m 5,0,-1
 403.774414062 60 l 1,1,2
 343.774414062 60 343.774414062 60 283.774414062 60 c 1,5,-1
 283.774414062 1740 l 5,6,7
 283.774414062 1740 283.774414062 1740 403.774414062 1740 c 5,0,-1
283.774414062 60 m 1025
283.774414062 60 m 132,-1,0
 283.774414062 85 283.774414062 85 301.774414062 102 c 4,1,2
 319.774414062 120 319.774414062 120 343.774414062 120 c 132,-1,3
 367.774414062 120 367.774414062 120 385.774414062 102.5 c 132,-1,4
 403.774414062 85 403.774414062 85 403.774414062 60.5 c 132,-1,5
 403.774414062 36 403.774414062 36 386.274414062 18 c 132,-1,6
 368.774414062 0 368.774414062 0 343.774414062 0 c 132,-1,7
 318.774414062 0 318.774414062 0 301.774414062 18 c 4,8,9
 283.774414062 35 283.774414062 35 283.774414062 60 c 132,-1,0
343.774414062 80 m 29,0,-1
 343.774414062 40 l 5,1,-1
 323.774414062 60 l 5,2,-1
 363.774414062 60 l 1029,3,-1
283.774414062 1740 m 132,-1,0
 283.774414062 1765 283.774414062 1765 301.774414062 1782 c 4,1,2
 319.774414062 1800 319.774414062 1800 343.774414062 1800 c 132,-1,3
 367.774414062 1800 367.774414062 1800 385.774414062 1782.5 c 132,-1,4
 403.774414062 1765 403.774414062 1765 403.774414062 1740.5 c 132,-1,5
 403.774414062 1716 403.774414062 1716 386.274414062 1698 c 132,-1,6
 368.774414062 1680 368.774414062 1680 343.774414062 1680 c 132,-1,7
 318.774414062 1680 318.774414062 1680 301.774414062 1698 c 4,8,9
 283.774414062 1715 283.774414062 1715 283.774414062 1740 c 132,-1,0
343.774414062 1760 m 29,0,-1
 343.774414062 1720 l 5,1,-1
 323.774414062 1740 l 5,2,-1
 363.774414062 1740 l 1029,3,-1
EndSplineSet
Refer: 286 57346 N 1 0 0 1 284 0 2
EndChar

StartChar: o
Encoding: 111 111 83
Width: 517
VWidth: 0
GlyphClass: 2
Flags: W
LayerCount: 3
Fore
SplineSet
-44.5869140625 161.278320312 m 1,0,1
 102.9765625 247.58984375 102.9765625 247.58984375 196.518554688 410.47265625 c 1,2,3
 314.4765625 613.918945312 314.4765625 613.918945312 316.265625 782.73828125 c 1,4,5
 316.265625 782.73828125 316.265625 782.73828125 439.747070312 783.086914062 c 1,8,9
 438.399414062 588.559570312 438.399414062 588.559570312 300.44140625 350.47265625 c 1,10,11
 188.399414062 155.546875 188.399414062 155.546875 17.3515625 55.033203125 c 1,12,13
 -13.3701171875 108.071289062 -13.3701171875 108.071289062 -44.5869140625 161.278320312 c 1,0,1
367.038085938 765.821289062 m 25,0,-1
 387.038085938 800.461914062 l 25,1,-1
 394.358398438 773.141601562 l 25,2,-1
 359.717773438 793.141601562 l 1049,3,-1
346.604492188 731.4296875 m 128,-1,5
 323.655273438 744.6796875 323.655273438 744.6796875 317.798828125 766.536132812 c 0,6,7
 311.576171875 789.758789062 311.576171875 789.758789062 325.076171875 813.141601562 c 0,7,8
 340.076171875 839.122070312 340.076171875 839.122070312 362.828125 844.461914062 c 0,9,10
 382.7890625 849.102539062 382.7890625 849.102539062 407.038085938 835.102539062 c 128,-1,11
 431.287109375 821.102539062 431.287109375 821.102539062 437.247070312 801.49609375 c 0,12,13
 443.999023438 779.122070312 443.999023438 779.122070312 428.999023438 753.141601562 c 0,14,15
 415.999023438 730.625 415.999023438 730.625 391.411132812 724.036132812 c 0,16,17
 369.5546875 718.1796875 369.5546875 718.1796875 346.604492188 731.4296875 c 128,-1,5
-22.9619140625 90.3212890625 m 25,0,-1
 -2.9619140625 124.962890625 l 25,1,-1
 4.3583984375 97.6416015625 l 25,2,-1
 -30.2822265625 117.641601562 l 1049,3,-1
-43.3955078125 55.9306640625 m 128,-1,5
 -66.3447265625 69.1806640625 -66.3447265625 69.1806640625 -72.201171875 91.037109375 c 0,6,7
 -78.423828125 114.259765625 -78.423828125 114.259765625 -64.923828125 137.641601562 c 0,7,8
 -49.923828125 163.623046875 -49.923828125 163.623046875 -27.171875 168.961914062 c 0,9,10
 -7.2109375 173.603515625 -7.2109375 173.603515625 17.0380859375 159.603515625 c 128,-1,11
 41.287109375 145.603515625 41.287109375 145.603515625 47.2470703125 125.99609375 c 0,12,13
 53.9990234375 103.623046875 53.9990234375 103.623046875 38.9990234375 77.6416015625 c 0,14,15
 25.9990234375 55.125 25.9990234375 55.125 1.4111328125 48.537109375 c 0,16,17
 -20.4453125 42.6806640625 -20.4453125 42.6806640625 -43.3955078125 55.9306640625 c 128,-1,5
EndSplineSet
EndChar

StartChar: p
Encoding: 112 112 84
Width: 354
VWidth: 3070
GlyphClass: 2
Flags: W
LayerCount: 3
Fore
SplineSet
118.2890625 727 m 1,0,1
 89.2890625 728 89.2890625 728 60.2890625 728 c 1,2,3
 30.2890625 728 30.2890625 728 0.2890625 728 c 1,4,5
 0.2890625 1134 0.2890625 1134 0.2890625 1231 c 1,6,7
 1.2890625 1579 1.2890625 1579 234.7890625 1579 c 4,8,9
 480.2890625 1579 480.2890625 1579 480.2890625 1280 c 0,10,11
 480.2890625 1089 480.2890625 1089 118.2890625 727 c 1,0,1
120.2890625 897 m 1,12,13
 359.2890625 1137 359.2890625 1137 360.2890625 1280 c 0,14,15
 361.2890625 1456 361.2890625 1456 234.2890625 1456 c 4,16,17
 120.2890625 1456 120.2890625 1456 120.2890625 1224 c 0,18,19
 120.2890625 1192 120.2890625 1192 120.2890625 897 c 1,12,13
0.287109375 740 m 132,-1,0
 0.287109375 765 0.287109375 765 18.287109375 782 c 4,1,2
 36.287109375 800 36.287109375 800 60.287109375 800 c 132,-1,3
 84.287109375 800 84.287109375 800 102.287109375 782.5 c 132,-1,4
 120.287109375 765 120.287109375 765 120.287109375 740.5 c 132,-1,5
 120.287109375 716 120.287109375 716 102.787109375 698 c 132,-1,6
 85.287109375 680 85.287109375 680 60.287109375 680 c 132,-1,7
 35.287109375 680 35.287109375 680 18.287109375 698 c 4,8,9
 0.287109375 715 0.287109375 715 0.287109375 740 c 132,-1,0
60.287109375 760 m 29,0,-1
 60.287109375 720 l 5,1,-1
 40.287109375 740 l 5,2,-1
 80.287109375 740 l 1029,3,-1
0.287109375 752 m 132,-1,0
 0.287109375 777 0.287109375 777 18.287109375 794 c 4,1,2
 36.287109375 812 36.287109375 812 60.287109375 812 c 132,-1,3
 84.287109375 812 84.287109375 812 102.287109375 794.5 c 132,-1,4
 120.287109375 777 120.287109375 777 120.287109375 752.5 c 132,-1,5
 120.287109375 728 120.287109375 728 102.787109375 710 c 132,-1,6
 85.287109375 692 85.287109375 692 60.287109375 692 c 132,-1,7
 35.287109375 692 35.287109375 692 18.287109375 710 c 4,8,9
 0.287109375 727 0.287109375 727 0.287109375 752 c 132,-1,0
60.287109375 772 m 29,0,-1
 60.287109375 732 l 5,1,-1
 40.287109375 752 l 5,2,-1
 80.287109375 752 l 1029,3,-1
120 740 m 5,0,-1
 120 60 l 1,1,2
 60 60 60 60 0 60 c 1,5,-1
 0 740 l 5,6,7
 60 740 60 740 120 740 c 5,0,-1
0 60 m 1025
0 60 m 132,-1,0
 0 85 0 85 18 102 c 4,1,2
 36 120 36 120 60 120 c 132,-1,3
 84 120 84 120 102 102.5 c 132,-1,4
 120 85 120 85 120 60.5 c 132,-1,5
 120 36 120 36 102.5 18 c 132,-1,6
 85 0 85 0 60 0 c 132,-1,7
 35 0 35 0 18 18 c 4,8,9
 0 35 0 35 0 60 c 132,-1,0
60 80 m 29,0,-1
 60 40 l 5,1,-1
 40 60 l 5,2,-1
 80 60 l 1029,3,-1
0 740 m 132,-1,0
 0 765 0 765 18 782 c 4,1,2
 36 800 36 800 60 800 c 132,-1,3
 84 800 84 800 102 782.5 c 132,-1,4
 120 765 120 765 120 740.5 c 132,-1,5
 120 716 120 716 102.5 698 c 132,-1,6
 85 680 85 680 60 680 c 132,-1,7
 35 680 35 680 18 698 c 4,8,9
 0 715 0 715 0 740 c 132,-1,0
60 760 m 29,0,-1
 60 720 l 5,1,-1
 40 740 l 5,2,-1
 80 740 l 1029,3,-1
EndSplineSet
EndChar

StartChar: r
Encoding: 114 114 86
Width: 59
VWidth: 0
GlyphClass: 2
Flags: W
LayerCount: 3
Fore
SplineSet
38 299 m 1,0,-1
 310 -88 l 1,1,-1
 128 -88 l 1,2,-1
 -152 299 l 1,3,-1
 38 299 l 1,0,-1
EndSplineSet
Validated: 1
EndChar

StartChar: s
Encoding: 115 115 87
Width: -134
GlyphClass: 2
Flags: W
LayerCount: 3
Fore
SplineSet
-284.643554688 798 m 132,-1,1
 -206.643554688 798 -206.643554688 798 -146.143554688 770.5 c 132,-1,2
 -85.6435546875 743 -85.6435546875 743 -27.6435546875 690 c 4,3,4
 30.3564453125 636 30.3564453125 636 66.3564453125 554.5 c 132,-1,5
 102.356445312 473 102.356445312 473 102.356445312 375 c 132,-1,6
 102.356445312 277 102.356445312 277 63.3564453125 189 c 132,-1,7
 24.3564453125 101 24.3564453125 101 -27.6435546875 60 c 4,8,9
 -94.6435546875 7 -94.6435546875 7 -151.643554688 -20.5 c 132,-1,10
 -208.643554688 -48 -208.643554688 -48 -284.643554688 -48 c 4,11,12
 -361.643554688 -48 -361.643554688 -48 -420.143554688 -20.5 c 132,-1,13
 -478.643554688 7 -478.643554688 7 -540.643554688 60 c 4,14,15
 -596.643554688 106 -596.643554688 106 -632.143554688 190.5 c 132,-1,16
 -667.643554688 275 -667.643554688 275 -667.643554688 375 c 4,17,18
 -667.643554688 576 -667.643554688 576 -540.643554688 690 c 4,19,20
 -482.643554688 742 -482.643554688 742 -422.643554688 770 c 132,-1,0
 -362.643554688 798 -362.643554688 798 -284.643554688 798 c 132,-1,1
-279.643554688 141 m 4,21,22
 -221.643554688 141 -221.643554688 141 -179.143554688 161 c 132,-1,23
 -136.643554688 181 -136.643554688 181 -114.143554688 216 c 132,-1,24
 -91.6435546875 251 -91.6435546875 251 -81.6435546875 289.5 c 132,-1,25
 -71.6435546875 328 -71.6435546875 328 -71.6435546875 372 c 4,26,27
 -71.6435546875 421 -71.6435546875 421 -82.1435546875 462 c 132,-1,28
 -92.6435546875 503 -92.6435546875 503 -115.143554688 538.5 c 132,-1,29
 -137.643554688 574 -137.643554688 574 -179.643554688 594.5 c 132,-1,30
 -221.643554688 615 -221.643554688 615 -279.643554688 615 c 6,31,-1
 -280.643554688 615 l 6,32,33
 -349.643554688 615 -349.643554688 615 -398.643554688 575.5 c 132,-1,34
 -447.643554688 536 -447.643554688 536 -467.643554688 483.5 c 132,-1,35
 -487.643554688 431 -487.643554688 431 -487.643554688 375 c 4,36,37
 -487.643554688 277 -487.643554688 277 -435.643554688 209 c 132,-1,38
 -383.643554688 141 -383.643554688 141 -279.643554688 141 c 4,21,22
EndSplineSet
EndChar

StartChar: u
Encoding: 117 117 89
Width: 454
VWidth: 0
GlyphClass: 2
Flags: W
LayerCount: 3
Fore
SplineSet
217 -44 m 0,0,1
 428 -44 428 -44 428 780 c 1,2,-1
 549 780 l 1,3,4
 548 -174 548 -174 213.956054688 -174 c 0,5,6
 0 -174 0 -174 0 48 c 6,0,0
 0 54 0 54 0 60 c 1,7,-1
 120 60 l 1,8,9
 120 54 120 54 120 49 c 2,0,0
 120 -44 120 -44 217 -44 c 0,0,1
0 60 m 132,-1,0
 0 85 0 85 18 102 c 4,1,2
 36 120 36 120 60 120 c 132,-1,3
 84 120 84 120 102 102.5 c 132,-1,4
 120 85 120 85 120 60.5 c 132,-1,5
 120 36 120 36 102.5 18 c 132,-1,6
 85 0 85 0 60 0 c 132,-1,7
 35 0 35 0 18 18 c 4,8,9
 0 35 0 35 0 60 c 132,-1,0
60 80 m 29,0,-1
 60 40 l 5,1,-1
 40 60 l 5,2,-1
 80 60 l 1029,3,-1
429 780 m 132,-1,0
 429 805 429 805 447 822 c 4,1,2
 465 840 465 840 489 840 c 132,-1,3
 513 840 513 840 531 822.5 c 132,-1,4
 549 805 549 805 549 780.5 c 132,-1,5
 549 756 549 756 531.5 738 c 132,-1,6
 514 720 514 720 489 720 c 132,-1,7
 464 720 464 720 447 738 c 4,8,9
 429 755 429 755 429 780 c 132,-1,0
489 800 m 29,0,-1
 489 760 l 5,1,-1
 469 780 l 5,2,-1
 509 780 l 1029,3,-1
EndSplineSet
Layer: 2
SplineSet
291.913085938 1746.18457031 m 4
 357.490234375 1746.48242188 420.852539062 1717.75390625 482 1660 c 4
 550.186523438 1595.75390625 584.432617188 1510.96386719 584.740234375 1405.63085938 c 4
 585.099609375 1301.63085938 550.852539062 1218.84082031 482 1157.26074219 c 4
 418.852539062 1100.17382812 355.82421875 1071.44628906 292.913085938 1071.07714844 c 4
 231.82421875 1070.77929688 168.39453125 1099.5078125 102.625976562 1157.26074219 c 4
 35.728515625 1216.17382812 2.279296875 1298.29785156 2.279296875 1403.63085938 c 4
 2.279296875 1514.29785156 35.728515625 1599.75390625 102.625976562 1660 c 4
 166.39453125 1717.08691406 229.490234375 1745.81542969 291.913085938 1746.18457031 c 4
293.903320312 1197.13085938 m 4
 344.154296875 1197.46386719 385.49609375 1222.56054688 417.928710938 1272.41992188 c 4
 447.49609375 1317.89355469 461.75390625 1362.40820312 460.704101562 1405.96289062 c 4
 459.087890625 1463.74121094 447.279296875 1509.96386719 425.279296875 1544.63085938 c 4
 393.946289062 1595.29785156 349.8203125 1620.7265625 292.903320312 1620.91796875 c 4
 238.487304688 1620.7265625 196.612304688 1595.29785156 167.279296875 1544.63085938 c 4
 137.946289062 1493.29785156 123.553710938 1446.2265625 124.103515625 1403.41894531 c 4
 124.220703125 1357.56054688 138.329101562 1313.56054688 166.428710938 1271.41992188 c 4
 199.662109375 1221.56054688 242.154296875 1196.79785156 293.903320312 1197.13085938 c 4
EndSplineSet
Refer: 286 57346 S 1 0 0 1 396.279 1158.63 2
Refer: 286 57346 S 1 0 0 1 2.2793 1342.63 2
Refer: 286 57346 S 1 0 0 1 253.279 1073.63 2
Refer: 286 57346 S 1 0 0 1 212.913 1073.08 2
Refer: 286 57346 S 1 0 0 1 464.279 1342.63 2
Refer: 286 57346 S 1 0 0 1 29.2793 1474.63 2
Refer: 286 57346 S 1 0 0 1 432.279 1211.63 2
Refer: 286 57346 S 1 0 0 1 67.2793 1538.63 2
Refer: 286 57346 S 1 0 0 1 252.279 1623.63 2
Refer: 286 57346 S 1 0 0 1 217.279 1623.63 2
EndChar

StartChar: w
Encoding: 119 119 91
Width: 354
VWidth: 0
GlyphClass: 2
Flags: W
LayerCount: 3
Fore
SplineSet
120 1695 m 5,0,-1
 120 15 l 1,1,2
 60 15 60 15 0 15 c 1,5,-1
 0 1695 l 5,6,7
 0 1695 0 1695 120 1695 c 5,0,-1
0 15 m 1025
0 15 m 132,-1,0
 0 40 0 40 18 57 c 4,1,2
 36 75 36 75 60 75 c 132,-1,3
 84 75 84 75 102 57.5 c 132,-1,4
 120 40 120 40 120 15.5 c 132,-1,5
 120 -9 120 -9 102.5 -27 c 132,-1,6
 85 -45 85 -45 60 -45 c 132,-1,7
 35 -45 35 -45 18 -27 c 4,8,9
 0 -10 0 -10 0 15 c 132,-1,0
60 35 m 29,0,-1
 60 -5 l 5,1,-1
 40 15 l 5,2,-1
 80 15 l 1029,3,-1
0 1695 m 132,-1,0
 0 1720 0 1720 18 1737 c 4,1,2
 36 1755 36 1755 60 1755 c 132,-1,3
 84 1755 84 1755 102 1737.5 c 132,-1,4
 120 1720 120 1720 120 1695.5 c 132,-1,5
 120 1671 120 1671 102.5 1653 c 132,-1,6
 85 1635 85 1635 60 1635 c 132,-1,7
 35 1635 35 1635 18 1653 c 4,8,9
 0 1670 0 1670 0 1695 c 132,-1,0
60 1715 m 29,0,-1
 60 1675 l 5,1,-1
 40 1695 l 5,2,-1
 80 1695 l 1029,3,-1
EndSplineSet
EndChar

StartChar: y
Encoding: 121 121 93
Width: 866
VWidth: 0
GlyphClass: 2
Flags: W
LayerCount: 3
Fore
SplineSet
120 180 m 5,0,-1
 120 60 l 1,1,2
 90 60 90 60 60 60 c 1,3,4
 30 60 30 60 0 60 c 1,5,-1
 0 180 l 5,6,7
 60 180 60 180 120 180 c 5,0,-1
0 60 m 1025
0 60 m 132,-1,0
 0 85 0 85 18 102 c 4,1,2
 36 120 36 120 60 120 c 132,-1,3
 84 120 84 120 102 102.5 c 132,-1,4
 120 85 120 85 120 60.5 c 132,-1,5
 120 36 120 36 102.5 18 c 132,-1,6
 85 0 85 0 60 0 c 132,-1,7
 35 0 35 0 18 18 c 4,8,9
 0 35 0 35 0 60 c 132,-1,0
60 80 m 29,0,-1
 60 40 l 5,1,-1
 40 60 l 5,2,-1
 80 60 l 1029,3,-1
0 180 m 132,-1,0
 0 205 0 205 18 222 c 4,1,2
 36 240 36 240 60 240 c 132,-1,3
 84 240 84 240 102 222.5 c 132,-1,4
 120 205 120 205 120 180.5 c 132,-1,5
 120 156 120 156 102.5 138 c 132,-1,6
 85 120 85 120 60 120 c 132,-1,7
 35 120 35 120 18 138 c 4,8,9
 0 155 0 155 0 180 c 132,-1,0
60 200 m 29,0,-1
 60 160 l 5,1,-1
 40 180 l 5,2,-1
 80 180 l 1029,3,-1
EndSplineSet
EndChar

StartChar: z
Encoding: 122 122 94
Width: 74
GlyphClass: 2
Flags: W
LayerCount: 3
Fore
SplineSet
29 122 m 0,0,1
 92 122 92 122 125.5 178.5 c 128,-1,2
 159 235 159 235 159 294 c 0,3,4
 159 359 159 359 125.5 417.5 c 128,-1,5
 92 476 92 476 29 476 c 0,6,7
 -29 476 -29 476 -68.5 416.5 c 128,-1,8
 -108 357 -108 357 -108 303 c 0,9,10
 -108 244 -108 244 -69 183 c 128,-1,11
 -30 122 -30 122 29 122 c 0,0,1
26 611 m 0,12,13
 125 611 125 611 210 533 c 0,14,15
 252 495 252 495 278.5 436 c 128,-1,16
 305 377 305 377 305 306 c 0,17,18
 305 236 305 236 276.5 172.5 c 128,-1,19
 248 109 248 109 211 79 c 0,20,21
 162 40 162 40 121.5 20.5 c 128,-1,22
 81 1 81 1 26 1 c 128,-1,23
 -29 1 -29 1 -71 21 c 128,-1,24
 -113 41 -113 41 -159 79 c 0,25,26
 -199 113 -199 113 -224.5 173.5 c 128,-1,27
 -250 234 -250 234 -250 306 c 0,28,29
 -250 450 -250 450 -159 533 c 0,30,31
 -72 611 -72 611 26 611 c 0,12,13
EndSplineSet
Validated: 1
EndChar

StartChar: braceleft
Encoding: 123 123 95
Width: 792
GlyphClass: 2
Flags: W
LayerCount: 3
Fore
SplineSet
732.087890625 -501.004882812 m 1,0,-1
 732.087890625 -621.200195312 l 1,1,-1
 679.556640625 -621.200195312 l 2,2,3
 478 -621 478 -621 406.23046875 -558.459960938 c 0,4,5
 336.462890625 -498.3984375 336.462890625 -498.3984375 336.462890625 -316.32421875 c 2,6,-1
 336.462890625 804.887695312 l 2,7,8
 336 930 336 930 292.958984375 976.435546875 c 0,9,10
 249.19140625 1021.80175781 249.19140625 1021.80175781 124.024414062 1021.80175781 c 6,11,-1
 60.412109375 1021.80175781 l 5,12,-1
 60.412109375 1142.51953125 l 5,13,-1
 124.024414062 1142.51953125 l 6,14,15
 244.084960938 1143.00878906 244.084960938 1143.00878906 292.958984375 1188.20117188 c 0,16,17
 336.462890625 1228.42773438 336.462890625 1228.42773438 336.462890625 1358.10742188 c 2,18,-1
 336.462890625 2567.14550781 l 2,19,20
 336 2746 336 2746 406.23046875 2808.45996094 c 0,21,22
 474.223632812 2869.20019531 474.223632812 2869.20019531 679.556640625 2869.20019531 c 2,23,-1
 732.087890625 2869.20019531 l 1,24,-1
 732.087890625 2748.82519531 l 1,25,-1
 674.630859375 2748.82519531 l 2,26,27
 535 2749 535 2749 503.424804688 2716.53125 c 0,28,29
 468.951171875 2680.94921875 468.951171875 2680.94921875 468.951171875 2563.86328125 c 2,30,-1
 468.951171875 1348.2578125 l 2,31,32
 469 1220 469 1220 431.194335938 1161.11621094 c 0,33,34
 395 1103 395 1103 313.970703125 1082.31835938 c 1,35,36
 385 1060 385 1060 426.975585938 1002.03417969 c 128,-1,37
 468.951171875 944.067382812 468.951171875 944.067382812 468.951171875 815.55859375 c 2,38,-1
 468.951171875 -313.041015625 l 2,39,40
 469 -409 469 -409 524.424804688 -465.7109375 c 0,41,42
 560.004882812 -501.004882812 560.004882812 -501.004882812 674.630859375 -501.004882812 c 2,43,-1
 732.087890625 -501.004882812 l 1,0,-1
EndSplineSet
Refer: 286 57346 S 1 0 0 1 0 1022 2
Refer: 286 57346 N 1 0 0 1 672.088 2748.83 2
Refer: 286 57346 N 1 0 0 1 671.5 -621 2
EndChar

StartChar: bar
Encoding: 124 124 96
Width: 120
GlyphClass: 2
Flags: W
LayerCount: 3
Fore
SplineSet
120 3250 m 1,0,-1
 120 -1000 l 1,1,-1
 0 -1000 l 1,2,-1
 0 3250 l 1,3,-1
 120 3250 l 1,0,-1
EndSplineSet
Refer: 286 57346 S 1 0 0 1 0 3190 2
Refer: 286 57346 N 1 0 0 1 0 -1060 2
EndChar

StartChar: asciitilde
Encoding: 126 126 98
Width: 1233
GlyphClass: 2
Flags: W
LayerCount: 3
Fore
SplineSet
664.48046875 965.983398438 m 1,0,1
 776.83984375 902.983398438 776.83984375 902.983398438 872.924804688 903.064453125 c 1,2,3
 998.83984375 902.983398438 998.83984375 902.983398438 1103.48046875 962.983398438 c 1,4,5
 1133.83984375 909.983398438 1133.83984375 909.983398438 1164.48046875 855.983398438 c 1,8,9
 1036.83984375 781.983398438 1036.83984375 781.983398438 872.924804688 782.064453125 c 1,10,11
 737.83984375 781.983398438 737.83984375 781.983398438 603.48046875 859.983398438 c 1,12,13
 637.83984375 917.983398438 637.83984375 917.983398438 664.48046875 965.983398438 c 1,0,1
634.48046875 851.984375 m 132,-1,0
 609.48046875 851.984375 609.48046875 851.984375 592.48046875 869.984375 c 4,1,2
 574.48046875 887.984375 574.48046875 887.984375 574.48046875 911.984375 c 132,-1,3
 574.48046875 935.984375 574.48046875 935.984375 591.98046875 953.984375 c 132,-1,4
 609.48046875 971.984375 609.48046875 971.984375 633.98046875 971.984375 c 132,-1,5
 658.48046875 971.984375 658.48046875 971.984375 676.48046875 954.484375 c 132,-1,6
 694.48046875 936.984375 694.48046875 936.984375 694.48046875 911.984375 c 132,-1,7
 694.48046875 886.984375 694.48046875 886.984375 676.48046875 869.984375 c 4,8,9
 659.48046875 851.984375 659.48046875 851.984375 634.48046875 851.984375 c 132,-1,0
614.48046875 911.984375 m 29,0,-1
 654.48046875 911.984375 l 5,1,-1
 634.48046875 891.984375 l 5,2,-1
 634.48046875 931.984375 l 1029,3,-1
1133.48046875 849.984375 m 132,-1,0
 1108.48046875 849.984375 1108.48046875 849.984375 1091.48046875 867.984375 c 4,1,2
 1073.48046875 885.984375 1073.48046875 885.984375 1073.48046875 909.984375 c 132,-1,3
 1073.48046875 933.984375 1073.48046875 933.984375 1090.98046875 951.984375 c 132,-1,4
 1108.48046875 969.984375 1108.48046875 969.984375 1132.98046875 969.984375 c 132,-1,5
 1157.48046875 969.984375 1157.48046875 969.984375 1175.48046875 952.484375 c 132,-1,6
 1193.48046875 934.984375 1193.48046875 934.984375 1193.48046875 909.984375 c 132,-1,7
 1193.48046875 884.984375 1193.48046875 884.984375 1175.48046875 867.984375 c 4,8,9
 1158.48046875 849.984375 1158.48046875 849.984375 1133.48046875 849.984375 c 132,-1,0
1113.48046875 909.984375 m 29,0,-1
 1153.48046875 909.984375 l 5,1,-1
 1133.48046875 889.984375 l 5,2,-1
 1133.48046875 929.984375 l 1029,3,-1
604.294921875 839.920898438 m 1,0,1
 491.935546875 902.920898438 491.935546875 902.920898438 395.850585938 902.83984375 c 1,2,3
 269.935546875 902.920898438 269.935546875 902.920898438 165.294921875 842.920898438 c 1,4,5
 134.935546875 895.920898438 134.935546875 895.920898438 104.294921875 949.920898438 c 1,8,9
 231.935546875 1023.92089844 231.935546875 1023.92089844 395.850585938 1023.83984375 c 1,10,11
 530.935546875 1023.92089844 530.935546875 1023.92089844 665.294921875 945.920898438 c 1,12,13
 630.935546875 887.920898438 630.935546875 887.920898438 604.294921875 839.920898438 c 1,0,1
634.294921875 953.919921875 m 132,-1,0
 659.294921875 953.919921875 659.294921875 953.919921875 676.294921875 935.919921875 c 4,1,2
 694.294921875 917.919921875 694.294921875 917.919921875 694.294921875 893.919921875 c 132,-1,3
 694.294921875 869.919921875 694.294921875 869.919921875 676.794921875 851.919921875 c 132,-1,4
 659.294921875 833.919921875 659.294921875 833.919921875 634.794921875 833.919921875 c 132,-1,5
 610.294921875 833.919921875 610.294921875 833.919921875 592.294921875 851.419921875 c 132,-1,6
 574.294921875 868.919921875 574.294921875 868.919921875 574.294921875 893.919921875 c 132,-1,7
 574.294921875 918.919921875 574.294921875 918.919921875 592.294921875 935.919921875 c 4,8,9
 609.294921875 953.919921875 609.294921875 953.919921875 634.294921875 953.919921875 c 132,-1,0
654.294921875 893.919921875 m 29,0,-1
 614.294921875 893.919921875 l 5,1,-1
 634.294921875 913.919921875 l 5,2,-1
 634.294921875 873.919921875 l 1029,3,-1
135.294921875 955.919921875 m 132,-1,0
 160.294921875 955.919921875 160.294921875 955.919921875 177.294921875 937.919921875 c 4,1,2
 195.294921875 919.919921875 195.294921875 919.919921875 195.294921875 895.919921875 c 132,-1,3
 195.294921875 871.919921875 195.294921875 871.919921875 177.794921875 853.919921875 c 132,-1,4
 160.294921875 835.919921875 160.294921875 835.919921875 135.794921875 835.919921875 c 132,-1,5
 111.294921875 835.919921875 111.294921875 835.919921875 93.294921875 853.419921875 c 132,-1,6
 75.294921875 870.919921875 75.294921875 870.919921875 75.294921875 895.919921875 c 132,-1,7
 75.294921875 920.919921875 75.294921875 920.919921875 93.294921875 937.919921875 c 4,8,9
 110.294921875 955.919921875 110.294921875 955.919921875 135.294921875 955.919921875 c 132,-1,0
155.294921875 895.919921875 m 29,0,-1
 115.294921875 895.919921875 l 5,1,-1
 135.294921875 915.919921875 l 5,2,-1
 135.294921875 875.919921875 l 1029,3,-1
EndSplineSet
EndChar

StartChar: exclamdown
Encoding: 161 161 100
Width: 1233
GlyphClass: 2
Flags: W
LayerCount: 3
Fore
SplineSet
516 1239 m 1,0,-1
 516 1493 l 1,1,-1
 719 1493 l 1,2,-1
 719 1239 l 1,3,-1
 516 1239 l 1,0,-1
516 0 m 1,4,-1
 516 655 l 1,5,-1
 537 1012 l 1,6,-1
 698 1012 l 1,7,-1
 719 655 l 1,8,-1
 719 0 l 1,9,-1
 516 0 l 1,4,-1
EndSplineSet
Validated: 1
EndChar

StartChar: cent
Encoding: 162 162 101
Width: 1233
GlyphClass: 2
Flags: W
LayerCount: 3
Fore
SplineSet
1061 1077 m 1,0,-1
 1061 905 l 1,1,2
 997 943 997 943 929 967 c 0,3,4
 868 988 868 988 801 993 c 1,5,-1
 801 123 l 1,6,7
 858 127 858 127 930 150 c 0,8,9
 1002 177 1002 177 1061 213 c 1,10,-1
 1061 41 l 1,11,12
 988 10 988 10 923 -7 c 0,13,14
 856 -24 856 -24 801 -27 c 1,15,-1
 801 -313 l 1,16,-1
 698 -313 l 1,17,-1
 698 -27 l 1,18,19
 473 -4 473 -4 343 152 c 0,20,21
 213 307 213 307 213 559 c 0,22,23
 213 808 213 808 344 968 c 0,24,25
 476 1126 476 1126 698 1145 c 1,26,-1
 698 1432 l 1,27,-1
 801 1432 l 1,28,-1
 801 1145 l 1,29,30
 856 1142 856 1142 923 1125 c 0,31,32
 988 1108 988 1108 1061 1077 c 1,0,-1
698 127 m 1,33,-1
 698 991 l 1,34,35
 565 979 565 979 486 861 c 0,36,37
 406 742 406 742 406 559 c 128,-1,38
 406 376 406 376 486 258 c 0,39,40
 565 141 565 141 698 127 c 1,33,-1
EndSplineSet
Validated: 1
EndChar

StartChar: sterling
Encoding: 163 163 102
Width: 1233
GlyphClass: 2
Flags: W
LayerCount: 3
Fore
SplineSet
1092 1462 m 1,0,-1
 1092 1278 l 1,1,2
 1030 1322 1030 1322 966 1344 c 0,3,4
 904 1366 904 1366 836 1366 c 0,5,6
 702 1366 702 1366 638 1276 c 0,7,8
 575 1188 575 1188 575 995 c 2,9,-1
 575 778 l 1,10,-1
 946 778 l 1,11,-1
 946 635 l 1,12,-1
 575 635 l 1,13,-1
 575 170 l 1,14,-1
 1112 170 l 1,15,-1
 1112 0 l 1,16,-1
 139 0 l 1,17,-1
 139 170 l 1,18,-1
 375 170 l 1,19,-1
 375 635 l 1,20,-1
 176 635 l 1,21,-1
 176 778 l 1,22,-1
 375 778 l 1,23,-1
 375 1016 l 2,24,25
 375 1269 375 1269 484 1395 c 0,26,27
 595 1520 595 1520 817 1520 c 0,28,29
 880 1520 880 1520 950 1506 c 0,30,31
 1015 1492 1015 1492 1092 1462 c 1,0,-1
EndSplineSet
Validated: 1
EndChar

StartChar: currency
Encoding: 164 164 103
Width: 1233
GlyphClass: 2
Flags: W
LayerCount: 3
Fore
SplineSet
868 643 m 0,0,1
 868 734 868 734 806 794 c 0,2,3
 745 856 745 856 653 856 c 0,4,5
 562 856 562 856 500 794 c 0,6,7
 438 734 438 734 438 643 c 128,-1,8
 438 552 438 552 500 488 c 0,9,10
 564 426 564 426 653 426 c 0,11,12
 744 426 744 426 806 489 c 0,13,14
 868 553 868 553 868 643 c 0,0,1
844 924 m 1,15,-1
 1010 1090 l 1,16,-1
 1100 997 l 1,17,-1
 934 831 l 1,18,19
 965 780 965 780 978 736 c 0,20,21
 993 688 993 688 993 641 c 0,22,23
 993 591 993 591 978 546 c 0,24,25
 963 499 963 499 932 455 c 1,26,-1
 1100 289 l 1,27,-1
 1006 195 l 1,28,-1
 840 362 l 1,29,30
 794 331 794 331 748 316 c 0,31,32
 703 301 703 301 653 301 c 0,33,34
 605 301 605 301 557 316 c 0,35,36
 509 330 509 330 461 358 c 1,37,-1
 297 195 l 1,38,-1
 205 285 l 1,39,-1
 371 451 l 1,40,41
 340 501 340 501 326 548 c 0,42,43
 311 596 311 596 311 641 c 0,44,45
 311 690 311 690 326 738 c 0,46,47
 344 788 344 788 373 829 c 1,48,-1
 205 995 l 1,49,-1
 299 1090 l 1,50,-1
 465 922 l 1,51,52
 511 953 511 953 556 968 c 0,53,54
 603 983 603 983 653 983 c 0,55,56
 700 983 700 983 746 968 c 0,57,58
 792 955 792 955 844 924 c 1,15,-1
EndSplineSet
Validated: 1
EndChar

StartChar: yen
Encoding: 165 165 104
Width: 1233
GlyphClass: 2
Flags: W
LayerCount: 3
Fore
SplineSet
37 1493 m 1,0,-1
 252 1493 l 1,1,-1
 616 834 l 1,2,-1
 979 1493 l 1,3,-1
 1196 1493 l 1,4,-1
 866 932 l 1,5,-1
 1118 932 l 1,6,-1
 1118 821 l 1,7,-1
 803 821 l 1,8,-1
 717 670 l 1,9,-1
 717 635 l 1,10,-1
 1118 635 l 1,11,-1
 1118 524 l 1,12,-1
 717 524 l 1,13,-1
 717 0 l 1,14,-1
 514 0 l 1,15,-1
 514 524 l 1,16,-1
 115 524 l 1,17,-1
 115 635 l 1,18,-1
 514 635 l 1,19,-1
 514 670 l 1,20,-1
 424 821 l 1,21,-1
 115 821 l 1,22,-1
 115 932 l 1,23,-1
 358 932 l 1,24,-1
 37 1493 l 1,0,-1
EndSplineSet
Validated: 1
EndChar

StartChar: brokenbar
Encoding: 166 166 105
Width: 1233
GlyphClass: 2
Flags: W
LayerCount: 3
Fore
SplineSet
702 1432 m 1,0,-1
 702 674 l 1,1,-1
 530 674 l 1,2,-1
 530 1432 l 1,3,-1
 702 1432 l 1,0,-1
702 408 m 1,4,-1
 702 -350 l 1,5,-1
 530 -350 l 1,6,-1
 530 408 l 1,7,-1
 702 408 l 1,4,-1
EndSplineSet
Validated: 1
EndChar

StartChar: section
Encoding: 167 167 106
Width: 1233
GlyphClass: 2
Flags: W
LayerCount: 3
Fore
SplineSet
936 1462 m 1,0,-1
 936 1298 l 1,1,2
 850 1339 850 1339 782 1356 c 0,3,4
 713 1376 713 1376 653 1376 c 0,5,6
 555 1376 555 1376 502 1336 c 0,7,8
 449 1295 449 1295 449 1225 c 0,9,10
 449 1135 449 1135 654 1020 c 0,11,12
 678 1006 678 1006 694 997 c 0,13,14
 906 878 906 878 971 801 c 128,-1,15
 1036 724 1036 724 1036 623 c 0,16,17
 1036 533 1036 533 990 463 c 0,18,19
 945 392 945 392 852 340 c 1,20,21
 914 287 914 287 942 234 c 0,22,23
 971 178 971 178 971 115 c 0,24,25
 971 -27 971 -27 869 -111 c 128,-1,26
 767 -195 767 -195 594 -195 c 0,27,28
 520 -195 520 -195 444 -180 c 0,29,30
 372 -168 372 -168 279 -137 c 1,31,-1
 279 27 l 1,32,33
 359 -9 359 -9 440 -32 c 0,34,35
 518 -51 518 -51 571 -51 c 0,36,37
 673 -51 673 -51 730 -9 c 0,38,39
 786 33 786 33 786 109 c 0,40,41
 786 211 786 211 565 334 c 1,42,-1
 541 348 l 1,43,44
 330 466 330 466 263 544 c 0,45,46
 199 621 199 621 199 723 c 0,47,48
 199 816 199 816 246 886 c 0,49,50
 291 956 291 956 383 1006 c 1,51,52
 323 1049 323 1049 294 1106 c 0,53,54
 264 1162 264 1162 264 1231 c 0,55,56
 264 1362 264 1362 364 1440 c 0,57,58
 463 1520 463 1520 631 1520 c 0,59,60
 699 1520 699 1520 780 1506 c 0,61,62
 855 1491 855 1491 936 1462 c 1,0,-1
485 936 m 1,63,64
 424 891 424 891 392 846 c 0,65,66
 362 801 362 801 362 754 c 0,67,68
 362 680 362 680 432 610 c 1,69,70
 507 541 507 541 750 410 c 1,71,72
 812 456 812 456 842 500 c 0,73,74
 872 545 872 545 872 592 c 0,75,76
 872 668 872 668 800 736 c 0,77,78
 728 805 728 805 485 936 c 1,63,64
EndSplineSet
Validated: 1
EndChar

StartChar: dieresis
Encoding: 168 168 107
Width: 1233
GlyphClass: 2
Flags: W
LayerCount: 3
Fore
SplineSet
319 1552 m 1,0,-1
 522 1552 l 1,1,-1
 522 1350 l 1,2,-1
 319 1350 l 1,3,-1
 319 1552 l 1,0,-1
711 1552 m 1,4,-1
 913 1552 l 1,5,-1
 913 1350 l 1,6,-1
 711 1350 l 1,7,-1
 711 1552 l 1,4,-1
EndSplineSet
Validated: 1
EndChar

StartChar: copyright
Encoding: 169 169 108
Width: 1233
GlyphClass: 2
Flags: W
LayerCount: 3
Fore
SplineSet
722.713867188 433.66796875 m 1,4,5
 654 418 654 418 590 469.740234375 c 0,6,7
 529 520 529 520 529.5 638.240234375 c 128,-1,8
 530 757 530 757 591 827.740234375 c 0,9,10
 643 889 643 889 743.255859375 888.956054688 c 0,11,12
 869 889 869 889 896.4609375 849.12109375 c 0,13,14
 953 771 953 771 966.1796875 671.28125 c 0,15,16
 981 563 981 563 973.765625 442.740234375 c 0,0,0
 951 77 951 77 673.305664062 65.9404296875 c 0,43,44
 469 58 469 58 339 230.100585938 c 0,45,46
 214 395 214 395 214.170898438 672.990234375 c 128,-1,47
 214 953 214 953 355.24609375 1121.00976562 c 128,-1,48
 494 1286 494 1286 730.590820312 1287.73535156 c 0,49,50
 773 1288 773 1288 822.930664062 1279.18554688 c 0,51,52
 871 1271 871 1271 917.8359375 1252.68066406 c 1,53,-1
 958.875 1368.10546875 l 1,54,55
 913 1387 913 1387 852 1399.74023438 c 0,56,57
 800 1411 800 1411 750.255859375 1410 c 0,58,59
 440 1406 440 1406 265.470703125 1210.78515625 c 0,60,61
 87 1012 87 1012 86.775390625 672.990234375 c 0,62,63
 87 341 87 341 247.515625 142.03515625 c 0,64,65
 399 -46 399 -46 674 -46.259765625 c 0,66,67
 846 -46 846 -46 952 67.740234375 c 0,68,69
 1061 186 1061 186 1070.88085938 363.48046875 c 0,70,-1
 1090 696 1090 696 1002 872 c 0,22,23
 967 943 967 943 866 987 c 0,25,26
 807 1013 807 1013 727.01171875 1009.93066406 c 0,27,28
 567 1005 567 1005 499.581054688 909.475585938 c 0,29,30
 415 790 415 790 413 633.240234375 c 128,-1,31
 411 481 411 481 495 384.740234375 c 0,32,33
 603 261 603 261 765.640625 320.825195312 c 1,0,0
 747 370 747 370 722.713867188 433.66796875 c 1,4,5
EndSplineSet
Refer: 286 57346 N 1 -0 0 -1 876 1370.74 2
Refer: 286 57346 N 0.939693 0.34202 0.34202 -0.939693 667.035 413.025 2
Layer: 2
SplineSet
864 1071 m 5
 864 963 l 5
 823.333333333 983 785.333333333 996.666666667 750 1004 c 4
 716.666666667 1013.33333333 679 1018 637 1018 c 4
 559.666666667 1018 498 993.333333333 452 944 c 4
 407.333333333 893.333333333 385 825.666666667 385 741 c 4
 385 652.333333333 408.333333333 584.666666667 455 538 c 4
 502.333333333 490.666666667 569 467 655 467 c 4
 693.666666667 467 729.333333333 471.333333333 762 480 c 4
 796 488 830 500.666666667 864 518 c 5
 864 414 l 5
 826 398 789.666666667 386.666666667 755 380 c 4
 715 372.666666667 675.666666667 369 637 369 c 4
 515.666666667 369 421.333333333 402.333333333 354 469 c 4
 284.666666667 535.666666667 250 626.333333333 250 741 c 4
 250 856.333333333 284.666666667 947.666666667 354 1015 c 132
 423.333333333 1082.33333333 517.666666667 1116 637 1116 c 4
 675.666666667 1116 715 1112.33333333 755 1105 c 4
 789.666666667 1098.33333333 826 1087 864 1071 c 5
616 1255 m 4
 544.666666667 1255 479.333333333 1242.66666667 420 1218 c 4
 358.666666667 1192.66666667 303.333333333 1155.33333333 254 1106 c 4
 204 1056 166 1000.33333333 140 939 c 4
 114.666666667 877 102 811 102 741 c 4
 102 671.666666667 114.666666667 606.666666667 140 546 c 132
 165.333333333 485.333333333 203.333333333 429.666666667 254 379 c 4
 305.333333333 327.666666667 360.666666667 289.666666667 420 265 c 4
 482 239.666666667 547.333333333 227 616 227 c 4
 686 227 751.333333333 239.666666667 812 265 c 4
 872 289.666666667 927.666666667 327.666666667 979 379 c 4
 1031 431 1068.66666667 486.666666667 1092 546 c 4
 1117.33333333 604.666666667 1130 669.666666667 1130 741 c 4
 1130 811 1117.33333333 877 1092 939 c 4
 1066.66666667 999.666666667 1029 1055.33333333 979 1106 c 4
 929.666666667 1155.33333333 874.666666667 1192.66666667 814 1218 c 4
 754 1242.66666667 688 1255 616 1255 c 4
616 1358 m 4
 700 1358 778.666666667 1343 852 1313 c 4
 924.666666667 1283 991 1238 1051 1178 c 4
 1110.33333333 1117.33333333 1155.66666667 1050.33333333 1187 977 c 4
 1217.66666667 905 1233 826.333333333 1233 741 c 4
 1233 657.666666667 1218 579.666666667 1188 507 c 4
 1156.66666667 434.333333333 1111 367.666666667 1051 307 c 4
 990.333333333 247 923.666666667 201.333333333 851 170 c 4
 778.333333333 140 700 125 616 125 c 4
 533.333333333 125 455.333333333 140 382 170 c 4
 308.666666667 201.333333333 242 247 182 307 c 4
 121.333333333 367.666666667 76 434.333333333 46 507 c 4
 15.3333333333 579 0 657 0 741 c 4
 0 826.333333333 15.3333333333 905 46 977 c 4
 77.3333333333 1050.33333333 122.666666667 1117.33333333 182 1178 c 4
 242 1238 308.333333333 1283 381 1313 c 4
 454.333333333 1343 532.666666667 1358 616 1358 c 4
EndSplineSet
EndChar

StartChar: ordfeminine
Encoding: 170 170 109
Width: 1233
GlyphClass: 2
Flags: W
LayerCount: 3
Fore
SplineSet
684 1104 m 2,0,1
 539 1104 539 1104 478 1070 c 0,2,3
 416 1035 416 1035 416 958 c 0,4,5
 416 893 416 893 460 856 c 0,6,7
 502 817 502 817 575 817 c 0,8,9
 680 817 680 817 746 888 c 0,10,11
 811 961 811 961 811 1075 c 2,12,-1
 811 1104 l 1,13,-1
 684 1104 l 2,0,1
954 1165 m 2,14,-1
 954 717 l 1,15,-1
 811 717 l 1,16,-1
 811 829 l 1,17,18
 761 763 761 763 696 731 c 0,19,20
 632 698 632 698 549 698 c 0,21,22
 421 698 421 698 345 766 c 0,23,24
 270 834 270 834 270 950 c 0,25,26
 270 1079 270 1079 364 1149 c 0,27,28
 456 1219 456 1219 629 1219 c 2,29,-1
 811 1219 l 1,30,-1
 811 1223 l 2,31,32
 811 1312 811 1312 752 1359 c 0,33,34
 693 1405 693 1405 575 1405 c 0,35,36
 525 1405 525 1405 462 1388 c 0,37,38
 400 1370 400 1370 332 1337 c 1,39,-1
 332 1464 l 1,40,41
 400 1493 400 1493 468 1506 c 0,42,43
 536 1520 536 1520 598 1520 c 0,44,45
 782 1520 782 1520 868 1434 c 128,-1,46
 954 1348 954 1348 954 1165 c 2,14,-1
293 592 m 1,47,-1
 961 592 l 1,48,-1
 961 469 l 1,49,-1
 293 469 l 1,50,-1
 293 592 l 1,47,-1
EndSplineSet
Validated: 1
EndChar

StartChar: guillemotleft
Encoding: 171 171 110
Width: 1233
GlyphClass: 2
Flags: W
LayerCount: 3
Fore
SplineSet
588 1059 m 1,0,-1
 588 868 l 1,1,-1
 287 600 l 1,2,-1
 588 332 l 1,3,-1
 588 141 l 1,4,-1
 119 559 l 1,5,-1
 119 641 l 1,6,-1
 588 1059 l 1,0,-1
1042 1059 m 1,7,-1
 1042 868 l 1,8,-1
 741 600 l 1,9,-1
 1042 332 l 1,10,-1
 1042 141 l 1,11,-1
 573 559 l 1,12,-1
 573 641 l 1,13,-1
 1042 1059 l 1,7,-1
EndSplineSet
Validated: 1
EndChar

StartChar: logicalnot
Encoding: 172 172 111
Width: 1233
GlyphClass: 2
Flags: W
LayerCount: 3
Fore
SplineSet
88 862 m 1,0,-1
 1145 862 l 1,1,-1
 1145 371 l 1,2,-1
 977 371 l 1,3,-1
 977 690 l 1,4,-1
 88 690 l 1,5,-1
 88 862 l 1,0,-1
EndSplineSet
Validated: 1
EndChar

StartChar: uni00AD
Encoding: 173 173 112
Width: 1233
GlyphClass: 2
Flags: W
LayerCount: 3
Fore
SplineSet
356 643 m 1,0,-1
 877 643 l 1,1,-1
 877 479 l 1,2,-1
 356 479 l 1,3,-1
 356 643 l 1,0,-1
EndSplineSet
Validated: 1
EndChar

StartChar: registered
Encoding: 174 174 113
Width: 1233
GlyphClass: 2
Flags: W
LayerCount: 3
Fore
SplineSet
600 1100 m 2,0,1
 748 1100 748 1100 819 1051 c 0,2,3
 891 1002 891 1002 891 901 c 0,4,5
 891 830 891 830 847 784 c 0,6,7
 804 737 804 737 723 723 c 1,8,9
 742 718 742 718 771 684 c 0,10,11
 802 648 802 648 838 592 c 2,12,-1
 952 406 l 1,13,-1
 809 406 l 1,14,-1
 702 580 l 2,15,16
 651 661 651 661 622 681 c 0,17,18
 592 702 592 702 547 702 c 2,19,-1
 492 702 l 1,20,-1
 492 406 l 1,21,-1
 362 406 l 1,22,-1
 362 1100 l 1,23,-1
 600 1100 l 2,0,1
594 1016 m 2,24,-1
 492 1016 l 1,25,-1
 492 784 l 1,26,-1
 594 784 l 2,27,28
 684 784 684 784 721 811 c 128,-1,29
 758 838 758 838 758 901 c 0,30,31
 758 963 758 963 721 990 c 0,32,33
 683 1016 683 1016 594 1016 c 2,24,-1
616 1358 m 0,34,35
 742 1358 742 1358 852 1313 c 0,36,37
 961 1268 961 1268 1051 1178 c 0,38,39
 1140 1087 1140 1087 1187 977 c 0,40,41
 1233 869 1233 869 1233 741 c 0,42,43
 1233 616 1233 616 1188 507 c 0,44,45
 1141 398 1141 398 1051 307 c 0,46,47
 960 217 960 217 851 170 c 0,48,49
 742 125 742 125 616 125 c 0,50,51
 492 125 492 125 382 170 c 0,52,53
 272 217 272 217 182 307 c 0,54,55
 91 398 91 398 46 507 c 0,56,57
 0 615 0 615 0 741 c 0,58,59
 0 869 0 869 46 977 c 0,60,61
 93 1087 93 1087 182 1178 c 0,62,63
 272 1268 272 1268 381 1313 c 0,64,65
 491 1358 491 1358 616 1358 c 0,34,35
616 1255 m 0,66,67
 509 1255 509 1255 420 1218 c 0,68,69
 328 1180 328 1180 254 1106 c 0,70,71
 179 1031 179 1031 140 939 c 0,72,73
 102 846 102 846 102 741 c 0,74,75
 102 637 102 637 140 546 c 128,-1,76
 178 455 178 455 254 379 c 0,77,78
 331 302 331 302 420 265 c 0,79,80
 513 227 513 227 616 227 c 0,81,82
 721 227 721 227 812 265 c 0,83,84
 902 302 902 302 979 379 c 0,85,86
 1057 457 1057 457 1092 546 c 0,87,88
 1130 634 1130 634 1130 741 c 0,89,90
 1130 846 1130 846 1092 939 c 0,91,92
 1054 1030 1054 1030 979 1106 c 0,93,94
 905 1180 905 1180 814 1218 c 0,95,96
 724 1255 724 1255 616 1255 c 0,66,67
EndSplineSet
Validated: 1
EndChar

StartChar: macron
Encoding: 175 175 114
Width: 1233
GlyphClass: 2
Flags: W
LayerCount: 3
Fore
SplineSet
317 1526 m 1,0,-1
 915 1526 l 1,1,-1
 915 1378 l 1,2,-1
 317 1378 l 1,3,-1
 317 1526 l 1,0,-1
EndSplineSet
Validated: 1
EndChar

StartChar: degree
Encoding: 176 176 115
Width: 1233
GlyphClass: 2
Flags: W
LayerCount: 3
Fore
SplineSet
616 1520 m 0,0,1
 680 1520 680 1520 740 1496 c 0,2,3
 801 1469 801 1469 842 1425 c 0,4,5
 888 1379 888 1379 910 1323 c 0,6,7
 934 1266 934 1266 934 1200 c 0,8,9
 934 1069 934 1069 841 976 c 0,10,11
 747 885 747 885 614 885 c 0,12,13
 479 885 479 885 389 975 c 128,-1,14
 299 1065 299 1065 299 1200 c 0,15,16
 299 1333 299 1333 391 1427 c 0,17,18
 482 1520 482 1520 616 1520 c 0,0,1
616 1391 m 128,-1,20
 537 1391 537 1391 482 1336 c 0,21,22
 426 1280 426 1280 426 1200 c 128,-1,23
 426 1120 426 1120 480 1066 c 0,24,25
 536 1012 536 1012 614 1012 c 0,26,27
 695 1012 695 1012 750 1067 c 0,28,29
 807 1122 807 1122 807 1200 c 0,30,31
 807 1279 807 1279 751 1335 c 128,-1,19
 695 1391 695 1391 616 1391 c 128,-1,20
EndSplineSet
Validated: 1
EndChar

StartChar: plusminus
Encoding: 177 177 116
Width: 1233
GlyphClass: 2
Flags: W
LayerCount: 3
Fore
SplineSet
88 170 m 1,0,-1
 1145 170 l 1,1,-1
 1145 0 l 1,2,-1
 88 0 l 1,3,-1
 88 170 l 1,0,-1
700 1171 m 1,4,-1
 700 842 l 1,5,-1
 1145 842 l 1,6,-1
 1145 672 l 1,7,-1
 700 672 l 1,8,-1
 700 340 l 1,9,-1
 532 340 l 1,10,-1
 532 672 l 1,11,-1
 88 672 l 1,12,-1
 88 842 l 1,13,-1
 532 842 l 1,14,-1
 532 1171 l 1,15,-1
 700 1171 l 1,4,-1
EndSplineSet
Validated: 1
EndChar

StartChar: uni00B2
Encoding: 178 178 117
Width: 1233
GlyphClass: 2
Flags: W
LayerCount: 3
Fore
SplineSet
483 782 m 1,0,-1
 893 782 l 1,1,-1
 893 668 l 1,2,-1
 322 668 l 1,3,-1
 322 778 l 1,4,-1
 553 1004 l 2,5,6
 659 1107 659 1107 694 1162 c 0,7,8
 735 1222 735 1222 735 1274 c 0,9,10
 735 1335 735 1335 685 1373 c 128,-1,11
 635 1411 635 1411 553 1411 c 0,12,13
 504 1411 504 1411 448 1393 c 0,14,15
 391 1375 391 1375 328 1339 c 1,16,-1
 328 1464 l 1,17,18
 392 1492 392 1492 454 1506 c 256,19,20
 516 1520 516 1520 573 1520 c 0,21,22
 716 1520 716 1520 801 1454 c 0,23,24
 887 1386 887 1386 887 1280 c 0,25,26
 887 1222 887 1222 850 1164 c 0,27,28
 812 1104 812 1104 694 987 c 2,29,-1
 483 782 l 1,0,-1
EndSplineSet
Validated: 1
EndChar

StartChar: uni00B3
Encoding: 179 179 118
Width: 1233
GlyphClass: 2
Flags: W
LayerCount: 3
Fore
SplineSet
731 1120 m 1,0,1
 826 1099 826 1099 874 1045 c 0,2,3
 924 992 924 992 924 911 c 0,4,5
 924 788 924 788 829 720 c 0,6,7
 735 653 735 653 557 653 c 0,8,9
 494 653 494 653 442 664 c 0,10,11
 393 672 393 672 326 694 c 1,12,-1
 326 815 l 1,13,14
 392 789 392 789 452 775 c 0,15,16
 505 762 505 762 553 762 c 0,17,18
 653 762 653 762 713 802 c 0,19,20
 772 844 772 844 772 911 c 0,21,22
 772 986 772 986 717 1023 c 0,23,24
 661 1061 661 1061 553 1061 c 2,25,-1
 487 1061 l 1,26,-1
 487 1169 l 1,27,-1
 561 1169 l 2,28,29
 652 1169 652 1169 703 1200 c 0,30,31
 752 1233 752 1233 752 1292 c 0,32,33
 752 1347 752 1347 704 1380 c 0,34,35
 654 1411 654 1411 569 1411 c 0,36,37
 524 1411 524 1411 469 1399 c 128,-1,38
 414 1387 414 1387 354 1364 c 1,39,-1
 354 1485 l 1,40,41
 430 1503 430 1503 482 1511 c 0,42,43
 539 1520 539 1520 590 1520 c 0,44,45
 734 1520 734 1520 819 1461 c 0,46,47
 903 1402 903 1402 903 1303 c 0,48,49
 903 1232 903 1232 859 1186 c 0,50,51
 817 1140 817 1140 731 1120 c 1,0,1
EndSplineSet
Validated: 1
EndChar

StartChar: acute
Encoding: 180 180 119
Width: 1233
GlyphClass: 2
Flags: W
LayerCount: 3
Fore
SplineSet
756 1638 m 1,0,-1
 954 1638 l 1,1,-1
 629 1262 l 1,2,-1
 475 1262 l 1,3,-1
 756 1638 l 1,0,-1
EndSplineSet
Validated: 1
EndChar

StartChar: mu
Encoding: 181 181 120
Width: 1233
GlyphClass: 2
Flags: W
LayerCount: 3
Fore
SplineSet
195 -428 m 1,0,-1
 195 1120 l 1,1,-1
 379 1120 l 1,2,-1
 379 424 l 2,3,4
 379 282 379 282 439 206 c 0,5,6
 499 131 499 131 610 131 c 0,7,8
 736 131 736 131 802 216 c 0,9,10
 866 303 866 303 866 467 c 2,11,-1
 866 1120 l 1,12,-1
 1051 1120 l 1,13,-1
 1051 256 l 2,14,15
 1051 197 1051 197 1067 169 c 128,-1,16
 1083 141 1083 141 1116 141 c 0,17,18
 1123 141 1123 141 1140 146 c 0,19,20
 1154 150 1154 150 1182 164 c 1,21,-1
 1182 16 l 1,22,23
 1141 -9 1141 -9 1110 -18 c 0,24,25
 1074 -29 1074 -29 1042 -29 c 0,26,27
 981 -29 981 -29 942 10 c 0,28,29
 905 52 905 52 893 129 c 1,30,31
 846 48 846 48 780 10 c 0,32,33
 714 -29 714 -29 625 -29 c 0,34,35
 534 -29 534 -29 470 9 c 0,36,37
 406 46 406 46 362 127 c 1,38,-1
 362 -428 l 1,39,-1
 195 -428 l 1,0,-1
EndSplineSet
Validated: 1
EndChar

StartChar: paragraph
Encoding: 182 182 121
Width: 1233
GlyphClass: 2
Flags: W
LayerCount: 3
Fore
SplineSet
582 1493 m 2,0,-1
 1030 1493 l 1,1,-1
 1030 -197 l 1,2,-1
 889 -197 l 1,3,-1
 889 1370 l 1,4,-1
 698 1370 l 1,5,-1
 698 -197 l 1,6,-1
 557 -197 l 1,7,-1
 557 649 l 1,8,9
 344 665 344 665 224 776 c 0,10,11
 106 887 106 887 106 1071 c 0,12,13
 106 1261 106 1261 236 1377 c 0,14,15
 369 1493 369 1493 582 1493 c 2,0,-1
EndSplineSet
Validated: 1
EndChar

StartChar: periodcentered
Encoding: 183 183 122
Width: 1233
GlyphClass: 2
Flags: W
LayerCount: 3
Fore
SplineSet
489 864 m 1,0,-1
 741 864 l 1,1,-1
 741 559 l 1,2,-1
 489 559 l 1,3,-1
 489 864 l 1,0,-1
EndSplineSet
Validated: 1
EndChar

StartChar: cedilla
Encoding: 184 184 123
Width: 1233
GlyphClass: 2
Flags: W
LayerCount: 3
Fore
SplineSet
700 0 m 1,0,1
 756 -62 756 -62 782 -114 c 0,2,3
 809 -168 809 -168 809 -215 c 0,4,5
 809 -304 809 -304 749 -350 c 0,6,7
 689 -395 689 -395 571 -395 c 0,8,9
 527 -395 527 -395 482 -389 c 128,-1,10
 437 -383 437 -383 395 -371 c 1,11,-1
 395 -240 l 1,12,13
 434 -259 434 -259 466 -264 c 0,14,15
 501 -272 501 -272 551 -272 c 0,16,17
 608 -272 608 -272 640 -248 c 0,18,19
 670 -224 670 -224 670 -178 c 0,20,21
 670 -148 670 -148 648 -104 c 0,22,23
 624 -60 624 -60 582 0 c 1,24,-1
 700 0 l 1,0,1
EndSplineSet
Validated: 1
EndChar

StartChar: uni00B9
Encoding: 185 185 124
Width: 1233
GlyphClass: 2
Flags: W
LayerCount: 3
Fore
SplineSet
362 778 m 1,0,-1
 567 778 l 1,1,-1
 567 1389 l 1,2,-1
 344 1348 l 1,3,-1
 344 1464 l 1,4,-1
 573 1503 l 1,5,-1
 711 1503 l 1,6,-1
 711 778 l 1,7,-1
 915 778 l 1,8,-1
 915 668 l 1,9,-1
 362 668 l 1,10,-1
 362 778 l 1,0,-1
EndSplineSet
Validated: 1
EndChar

StartChar: ordmasculine
Encoding: 186 186 125
Width: 1233
GlyphClass: 2
Flags: W
LayerCount: 3
Fore
SplineSet
616 1403 m 0,0,1
 514 1403 514 1403 456 1325 c 0,2,3
 399 1247 399 1247 399 1108 c 0,4,5
 399 968 399 968 456 892 c 0,6,7
 515 815 515 815 616 815 c 0,8,9
 716 815 716 815 776 894 c 0,10,11
 834 973 834 973 834 1108 c 0,12,13
 834 1248 834 1248 776 1325 c 0,14,15
 719 1403 719 1403 616 1403 c 0,0,1
616 1520 m 128,-1,17
 786 1520 786 1520 888 1408 c 0,18,19
 989 1295 989 1295 989 1108 c 0,20,21
 989 922 989 922 888 810 c 0,22,23
 788 698 788 698 616 698 c 0,24,25
 445 698 445 698 345 810 c 0,26,27
 244 922 244 922 244 1108 c 0,28,29
 244 1296 244 1296 346 1408 c 0,30,16
 446 1520 446 1520 616 1520 c 128,-1,17
276 592 m 1,31,-1
 952 592 l 1,32,-1
 952 469 l 1,33,-1
 276 469 l 1,34,-1
 276 592 l 1,31,-1
EndSplineSet
Validated: 1
EndChar

StartChar: guillemotright
Encoding: 187 187 126
Width: 1233
GlyphClass: 2
Flags: W
LayerCount: 3
Fore
SplineSet
647 1059 m 1,0,-1
 1116 641 l 1,1,-1
 1116 559 l 1,2,-1
 647 141 l 1,3,-1
 647 332 l 1,4,-1
 948 600 l 1,5,-1
 647 868 l 1,6,-1
 647 1059 l 1,0,-1
193 1059 m 1,7,-1
 662 641 l 1,8,-1
 662 559 l 1,9,-1
 193 141 l 1,10,-1
 193 332 l 1,11,-1
 494 600 l 1,12,-1
 193 868 l 1,13,-1
 193 1059 l 1,7,-1
EndSplineSet
Validated: 1
EndChar

StartChar: onequarter
Encoding: 188 188 127
Width: 1233
GlyphClass: 2
Flags: W
LayerCount: 3
Fore
SplineSet
815 565 m 1,0,-1
 977 565 l 1,1,-1
 977 27 l 1,2,-1
 1093 27 l 1,3,-1
 1093 -84 l 1,4,-1
 977 -84 l 1,5,-1
 977 -270 l 1,6,-1
 839 -270 l 1,7,-1
 839 -84 l 1,8,-1
 452 -84 l 1,9,-1
 452 37 l 1,10,-1
 815 565 l 1,0,-1
839 440 m 1,11,-1
 565 27 l 1,12,-1
 839 27 l 1,13,-1
 839 440 l 1,11,-1
104 934 m 1,14,-1
 309 934 l 1,15,-1
 309 1545 l 1,16,-1
 86 1504 l 1,17,-1
 86 1620 l 1,18,-1
 315 1659 l 1,19,-1
 453 1659 l 1,20,-1
 453 934 l 1,21,-1
 657 934 l 1,22,-1
 657 824 l 1,23,-1
 104 824 l 1,24,-1
 104 934 l 1,14,-1
51 504 m 1,25,-1
 27 612 l 1,26,-1
 1087 874 l 1,27,-1
 1114 766 l 1,28,-1
 51 504 l 1,25,-1
EndSplineSet
Validated: 1
EndChar

StartChar: onehalf
Encoding: 189 189 128
Width: 1233
GlyphClass: 2
Flags: W
LayerCount: 3
Fore
SplineSet
104 934 m 1,0,-1
 309 934 l 1,1,-1
 309 1545 l 1,2,-1
 86 1504 l 1,3,-1
 86 1620 l 1,4,-1
 315 1659 l 1,5,-1
 453 1659 l 1,6,-1
 453 934 l 1,7,-1
 657 934 l 1,8,-1
 657 824 l 1,9,-1
 104 824 l 1,10,-1
 104 934 l 1,0,-1
51 504 m 1,11,-1
 27 612 l 1,12,-1
 1087 874 l 1,13,-1
 1114 766 l 1,14,-1
 51 504 l 1,11,-1
684 -156 m 1,15,-1
 1094 -156 l 1,16,-1
 1094 -270 l 1,17,-1
 523 -270 l 1,18,-1
 523 -160 l 1,19,-1
 754 66 l 2,20,21
 855 164 855 164 896 224 c 0,22,23
 936 287 936 287 936 336 c 0,24,25
 936 397 936 397 886 435 c 128,-1,26
 836 473 836 473 754 473 c 0,27,28
 705 473 705 473 648 455 c 128,-1,29
 591 437 591 437 529 401 c 1,30,-1
 529 526 l 1,31,32
 593 554 593 554 654 568 c 0,33,34
 718 582 718 582 774 582 c 0,35,36
 916 582 916 582 1002 516 c 0,37,38
 1088 448 1088 448 1088 342 c 0,39,40
 1088 284 1088 284 1051 226 c 0,41,42
 1014 166 1014 166 895 49 c 2,43,-1
 684 -156 l 1,15,-1
EndSplineSet
Validated: 1
EndChar

StartChar: threequarters
Encoding: 190 190 129
Width: 1233
GlyphClass: 2
Flags: W
LayerCount: 3
Fore
SplineSet
815 565 m 1,0,-1
 977 565 l 1,1,-1
 977 27 l 1,2,-1
 1093 27 l 1,3,-1
 1093 -84 l 1,4,-1
 977 -84 l 1,5,-1
 977 -270 l 1,6,-1
 839 -270 l 1,7,-1
 839 -84 l 1,8,-1
 452 -84 l 1,9,-1
 452 37 l 1,10,-1
 815 565 l 1,0,-1
839 440 m 1,11,-1
 565 27 l 1,12,-1
 839 27 l 1,13,-1
 839 440 l 1,11,-1
504 1276 m 1,14,15
 597 1255 597 1255 648 1201 c 0,16,17
 697 1146 697 1146 697 1067 c 0,18,19
 697 944 697 944 602 876 c 0,20,21
 508 809 508 809 330 809 c 0,22,23
 267 809 267 809 215 820 c 0,24,25
 166 828 166 828 99 850 c 1,26,-1
 99 971 l 1,27,28
 164 946 164 946 224 931 c 0,29,30
 279 918 279 918 326 918 c 0,31,32
 426 918 426 918 486 958 c 0,33,34
 545 1000 545 1000 545 1067 c 0,35,36
 545 1142 545 1142 490 1179 c 0,37,38
 434 1217 434 1217 326 1217 c 2,39,-1
 260 1217 l 1,40,-1
 260 1325 l 1,41,-1
 334 1325 l 2,42,43
 425 1325 425 1325 476 1356 c 0,44,45
 525 1389 525 1389 525 1448 c 0,46,47
 525 1503 525 1503 477 1536 c 0,48,49
 427 1567 427 1567 342 1567 c 0,50,51
 298 1567 298 1567 242 1555 c 0,52,53
 187 1543 187 1543 127 1520 c 1,54,-1
 127 1641 l 1,55,56
 200 1659 200 1659 254 1667 c 0,57,58
 314 1676 314 1676 363 1676 c 0,59,60
 507 1676 507 1676 592 1617 c 0,61,62
 676 1558 676 1558 676 1459 c 0,63,64
 676 1388 676 1388 632 1342 c 0,65,66
 590 1296 590 1296 504 1276 c 1,14,15
51 504 m 1,67,-1
 27 612 l 1,68,-1
 1087 874 l 1,69,-1
 1114 766 l 1,70,-1
 51 504 l 1,67,-1
EndSplineSet
Validated: 1
EndChar

StartChar: divide
Encoding: 247 247 134
Width: 1233
GlyphClass: 2
Flags: W
LayerCount: 3
Fore
SplineSet
494 395 m 1,0,-1
 739 395 l 1,1,-1
 739 150 l 1,2,-1
 494 150 l 1,3,-1
 494 395 l 1,0,-1
494 1135 m 1,4,-1
 739 1135 l 1,5,-1
 739 889 l 1,6,-1
 494 889 l 1,7,-1
 494 1135 l 1,4,-1
88 727 m 1,8,-1
 1145 727 l 1,9,-1
 1145 557 l 1,10,-1
 88 557 l 1,11,-1
 88 727 l 1,8,-1
EndSplineSet
Validated: 1
EndChar

StartChar: aogonek
Encoding: 261 261 136
Width: 857
VWidth: 0
GlyphClass: 2
Flags: W
LayerCount: 3
Fore
SplineSet
257.739257812 1199 m 1,0,1
 120.739257812 970 120.739257812 970 121.739257812 669 c 1,2,3
 121.739257812 609.87109375 121.739257812 609.87109375 121.942382812 609.079101562 c 2,4,5
 122.739257812 321 122.739257812 321 254.739257812 91 c 1,6,7
 148.739257812 28 148.739257812 28 148.739257812 28 c 1,10,11
 0.7392578125 285 0.7392578125 285 0.2607421875 611.038085938 c 1,12,13
 -0.2607421875 661.970703125 -0.2607421875 661.970703125 0.2607421875 664.038085938 c 2,14,15
 0.7392578125 1002 0.7392578125 1002 150.739257812 1261 c 1,16,17
 257.739257812 1199 257.739257812 1199 257.739257812 1199 c 1,0,1
142.260742188 60.0380859375 m 132,-1,0
 142.260742188 85.0380859375 142.260742188 85.0380859375 160.260742188 102.038085938 c 4,1,2
 178.260742188 120.038085938 178.260742188 120.038085938 202.260742188 120.038085938 c 132,-1,3
 226.260742188 120.038085938 226.260742188 120.038085938 244.260742188 102.538085938 c 132,-1,4
 262.260742188 85.0380859375 262.260742188 85.0380859375 262.260742188 60.5380859375 c 132,-1,5
 262.260742188 36.0380859375 262.260742188 36.0380859375 244.760742188 18.0380859375 c 132,-1,6
 227.260742188 0.0380859375 227.260742188 0.0380859375 202.260742188 0.0380859375 c 132,-1,7
 177.260742188 0.0380859375 177.260742188 0.0380859375 160.260742188 18.0380859375 c 4,8,9
 142.260742188 35.0380859375 142.260742188 35.0380859375 142.260742188 60.0380859375 c 132,-1,0
202.260742188 80.0380859375 m 29,0,-1
 202.260742188 40.0380859375 l 5,1,-1
 182.260742188 60.0380859375 l 5,2,-1
 222.260742188 60.0380859375 l 1029,3,-1
143.260742188 1230.04003906 m 132,-1,0
 143.260742188 1255.04003906 143.260742188 1255.04003906 161.260742188 1272.04003906 c 4,1,2
 179.260742188 1290.04003906 179.260742188 1290.04003906 203.260742188 1290.04003906 c 132,-1,3
 227.260742188 1290.04003906 227.260742188 1290.04003906 245.260742188 1272.54003906 c 132,-1,4
 263.260742188 1255.04003906 263.260742188 1255.04003906 263.260742188 1230.54003906 c 132,-1,5
 263.260742188 1206.04003906 263.260742188 1206.04003906 245.760742188 1188.04003906 c 132,-1,6
 228.260742188 1170.04003906 228.260742188 1170.04003906 203.260742188 1170.04003906 c 132,-1,7
 178.260742188 1170.04003906 178.260742188 1170.04003906 161.260742188 1188.04003906 c 4,8,9
 143.260742188 1205.04003906 143.260742188 1205.04003906 143.260742188 1230.04003906 c 132,-1,0
203.260742188 1250.04003906 m 29,0,-1
 203.260742188 1210.04003906 l 5,1,-1
 183.260742188 1230.04003906 l 5,2,-1
 223.260742188 1230.04003906 l 1029,3,-1
EndSplineSet
EndChar

StartChar: cacute
Encoding: 263 263 138
Width: 551
VWidth: 0
GlyphClass: 3
Flags: W
LayerCount: 3
Fore
SplineSet
465 -108 m 1,0,-1
 382 33 l 1,1,2
 627 198 627 198 580.5 551.5 c 0,3,4
 546 818 546 818 477.5 888 c 0,5,6
 322 1043 322 1043 206 952 c 0,7,8
 170 924 170 924 133 788 c 1,9,-1
 -27 896 l 1,10,11
 0 1040 0 1040 117 1110 c 0,12,13
 362 1258 362 1258 586 1009 c 0,14,15
 720 859 720 859 762 553 c 0,16,17
 820 134 820 134 465 -108 c 1,0,-1
EndSplineSet
Validated: 33
LCarets2: 1 0
EndChar

StartChar: ccaron
Encoding: 269 269 140
Width: 67
VWidth: 3070
GlyphClass: 3
Flags: W
LayerCount: 3
Fore
SplineSet
120 740 m 5,0,-1
 120 60 l 1,1,2
 60 60 60 60 0 60 c 1,5,-1
 0 740 l 5,6,7
 60 740 60 740 120 740 c 5,0,-1
0 60 m 1025
0 60 m 132,-1,0
 0 85 0 85 18 102 c 4,1,2
 36 120 36 120 60 120 c 132,-1,3
 84 120 84 120 102 102.5 c 132,-1,4
 120 85 120 85 120 60.5 c 132,-1,5
 120 36 120 36 102.5 18 c 132,-1,6
 85 0 85 0 60 0 c 132,-1,7
 35 0 35 0 18 18 c 4,8,9
 0 35 0 35 0 60 c 132,-1,0
60 80 m 29,0,-1
 60 40 l 5,1,-1
 40 60 l 5,2,-1
 80 60 l 1029,3,-1
0 740 m 132,-1,0
 0 765 0 765 18 782 c 4,1,2
 36 800 36 800 60 800 c 132,-1,3
 84 800 84 800 102 782.5 c 132,-1,4
 120 765 120 765 120 740.5 c 132,-1,5
 120 716 120 716 102.5 698 c 132,-1,6
 85 680 85 680 60 680 c 132,-1,7
 35 680 35 680 18 698 c 4,8,9
 0 715 0 715 0 740 c 132,-1,0
60 760 m 29,0,-1
 60 720 l 5,1,-1
 40 740 l 5,2,-1
 80 740 l 1029,3,-1
0.775390625 -99 m 1,0,1
 -46.224609375 -147 -46.224609375 -147 -93.224609375 -195 c 0,2,3
 -211.224609375 -313 -211.224609375 -313 -208.224609375 -373 c 0,0,0
 -202.224609375 -484 -202.224609375 -484 -113.224609375 -490 c 0,4,5
 0.775390625 -497 0.775390625 -497 0.775390625 -322 c 0,6,7
 0.775390625 -206 0.775390625 -206 0.775390625 -99 c 1,0,1
2.7841796875 64 m 1,10,11
 2.7841796875 64 2.7841796875 64 120.775390625 45 c 5,14,-1
 120.775390625 -325 l 2,15,16
 120.775390625 -612 120.775390625 -612 -110.224609375 -610 c 0,17,18
 -215.224609375 -609 -215.224609375 -609 -277.224609375 -521 c 0,0,0
 -379.224609375 -374 -379.224609375 -374 -274.224609375 -218 c 0,0,0
 -252.224609375 -185 -252.224609375 -185 -187.224609375 -119 c 0,19,20
 -119.224609375 -50 -119.224609375 -50 2.7841796875 64 c 1,10,11
60.775390625 24 m 25,0,-1
 60.775390625 64 l 25,1,-1
 80.775390625 44 l 25,2,-1
 40.775390625 44 l 1049,3,-1
60.275390625 -16 m 128,-1,5
 33.775390625 -16 33.775390625 -16 17.775390625 0 c 0,6,7
 0.775390625 17 0.775390625 17 0.775390625 44 c 0,7,8
 0.775390625 74 0.775390625 74 17.8095703125 90 c 0,9,10
 32.775390625 104 32.775390625 104 60.775390625 104 c 128,-1,11
 88.775390625 104 88.775390625 104 103.741210938 90 c 0,12,13
 120.775390625 74 120.775390625 74 120.775390625 44 c 0,14,15
 120.775390625 18 120.775390625 18 102.775390625 0 c 0,16,17
 86.775390625 -16 86.775390625 -16 60.275390625 -16 c 128,-1,5
60.775390625 19 m 25,0,-1
 60.775390625 59 l 25,1,-1
 80.775390625 39 l 25,2,-1
 40.775390625 39 l 1049,3,-1
60.275390625 -21 m 128,-1,5
 33.775390625 -21 33.775390625 -21 17.775390625 -5 c 0,6,7
 0.775390625 12 0.775390625 12 0.775390625 39 c 0,7,8
 0.775390625 69 0.775390625 69 17.8095703125 85 c 0,9,10
 32.775390625 99 32.775390625 99 60.775390625 99 c 128,-1,11
 88.775390625 99 88.775390625 99 103.741210938 85 c 0,12,13
 120.775390625 69 120.775390625 69 120.775390625 39 c 0,14,15
 120.775390625 13 120.775390625 13 102.775390625 -5 c 0,16,17
 86.775390625 -21 86.775390625 -21 60.275390625 -21 c 128,-1,5
EndSplineSet
LCarets2: 1 0
EndChar

StartChar: dcaron
Encoding: 271 271 142
Width: 60
VWidth: 3070
GlyphClass: 3
Flags: W
LayerCount: 3
Fore
SplineSet
120 1740 m 5,0,-1
 120 60 l 1,1,2
 60 60 60 60 0 60 c 1,5,-1
 0 1740 l 5,6,7
 0 1740 0 1740 120 1740 c 5,0,-1
0 60 m 1025
0 60 m 132,-1,0
 0 85 0 85 18 102 c 4,1,2
 36 120 36 120 60 120 c 132,-1,3
 84 120 84 120 102 102.5 c 132,-1,4
 120 85 120 85 120 60.5 c 132,-1,5
 120 36 120 36 102.5 18 c 132,-1,6
 85 0 85 0 60 0 c 132,-1,7
 35 0 35 0 18 18 c 4,8,9
 0 35 0 35 0 60 c 132,-1,0
60 80 m 29,0,-1
 60 40 l 5,1,-1
 40 60 l 5,2,-1
 80 60 l 1029,3,-1
0 1740 m 132,-1,0
 0 1765 0 1765 18 1782 c 4,1,2
 36 1800 36 1800 60 1800 c 132,-1,3
 84 1800 84 1800 102 1782.5 c 132,-1,4
 120 1765 120 1765 120 1740.5 c 132,-1,5
 120 1716 120 1716 102.5 1698 c 132,-1,6
 85 1680 85 1680 60 1680 c 132,-1,7
 35 1680 35 1680 18 1698 c 4,8,9
 0 1715 0 1715 0 1740 c 132,-1,0
60 1760 m 29,0,-1
 60 1720 l 5,1,-1
 40 1740 l 5,2,-1
 80 1740 l 1029,3,-1
0.775390625 -103 m 1,0,1
 -46.224609375 -151 -46.224609375 -151 -93.224609375 -199 c 0,2,3
 -211.224609375 -317 -211.224609375 -317 -208.224609375 -377 c 0,0,0
 -202.224609375 -488 -202.224609375 -488 -113.224609375 -494 c 0,4,5
 0.775390625 -501 0.775390625 -501 0.775390625 -326 c 0,6,7
 0.775390625 -210 0.775390625 -210 0.775390625 -103 c 1,0,1
2.7841796875 60 m 1,10,11
 2.7841796875 60 2.7841796875 60 120.775390625 41 c 5,14,-1
 120.775390625 -329 l 2,15,16
 120.775390625 -616 120.775390625 -616 -110.224609375 -614 c 0,17,18
 -215.224609375 -613 -215.224609375 -613 -277.224609375 -525 c 0,0,0
 -379.224609375 -378 -379.224609375 -378 -274.224609375 -222 c 0,0,0
 -252.224609375 -189 -252.224609375 -189 -187.224609375 -123 c 0,19,20
 -119.224609375 -54 -119.224609375 -54 2.7841796875 60 c 1,10,11
60.775390625 20 m 25,0,-1
 60.775390625 60 l 25,1,-1
 80.775390625 40 l 25,2,-1
 40.775390625 40 l 1049,3,-1
60.275390625 -20 m 128,-1,5
 33.775390625 -20 33.775390625 -20 17.775390625 -4 c 0,6,7
 0.775390625 13 0.775390625 13 0.775390625 40 c 0,7,8
 0.775390625 70 0.775390625 70 17.8095703125 86 c 0,9,10
 32.775390625 100 32.775390625 100 60.775390625 100 c 128,-1,11
 88.775390625 100 88.775390625 100 103.741210938 86 c 0,12,13
 120.775390625 70 120.775390625 70 120.775390625 40 c 0,14,15
 120.775390625 14 120.775390625 14 102.775390625 -4 c 0,16,17
 86.775390625 -20 86.775390625 -20 60.275390625 -20 c 128,-1,5
60.775390625 15 m 25,0,-1
 60.775390625 55 l 25,1,-1
 80.775390625 35 l 25,2,-1
 40.775390625 35 l 1049,3,-1
60.275390625 -25 m 128,-1,5
 33.775390625 -25 33.775390625 -25 17.775390625 -9 c 0,6,7
 0.775390625 8 0.775390625 8 0.775390625 35 c 0,7,8
 0.775390625 65 0.775390625 65 17.8095703125 81 c 0,9,10
 32.775390625 95 32.775390625 95 60.775390625 95 c 128,-1,11
 88.775390625 95 88.775390625 95 103.741210938 81 c 0,12,13
 120.775390625 65 120.775390625 65 120.775390625 35 c 0,14,15
 120.775390625 9 120.775390625 9 102.775390625 -9 c 0,16,17
 86.775390625 -25 86.775390625 -25 60.275390625 -25 c 128,-1,5
EndSplineSet
LCarets2: 1 28
EndChar

StartChar: eogonek
Encoding: 281 281 144
Width: 1005
VWidth: 0
GlyphClass: 2
Flags: W
LayerCount: 3
Fore
SplineSet
370.35546875 25.0712890625 m 1,0,-1
 91.4208984375 0.66796875 l 1,1,2
 86.1923828125 60.439453125 86.1923828125 60.439453125 80.962890625 120.2109375 c 1,5,-1
 359.897460938 144.615234375 l 1,6,7
 365.126953125 84.8427734375 365.126953125 84.8427734375 370.35546875 25.0712890625 c 1,0,-1
80.962890625 120.2109375 m 1025
80.962890625 120.2109375 m 132,-1,0
 105.8671875 122.390625 105.8671875 122.390625 124.372070312 105.940429688 c 4,1,2
 143.872070312 89.578125 143.872070312 89.578125 145.963867188 65.6689453125 c 132,-1,3
 148.055664062 41.7607421875 148.055664062 41.7607421875 132.190429688 22.3037109375 c 132,-1,4
 116.326171875 2.8466796875 116.326171875 2.8466796875 91.9189453125 0.7119140625 c 132,-1,5
 67.5126953125 -1.423828125 67.5126953125 -1.423828125 48.0556640625 14.4404296875 c 132,-1,6
 28.599609375 30.3056640625 28.599609375 30.3056640625 26.419921875 55.2099609375 c 132,-1,7
 24.2412109375 80.115234375 24.2412109375 80.115234375 40.69140625 98.619140625 c 4,8,9
 56.0576171875 118.032226562 56.0576171875 118.032226562 80.962890625 120.2109375 c 132,-1,0
106.116210938 62.1826171875 m 29,0,-1
 66.267578125 58.6962890625 l 5,1,-1
 84.44921875 80.36328125 l 5,2,-1
 87.935546875 40.515625 l 1029,3,-1
359.897460938 144.615234375 m 132,-1,0
 384.801757812 146.793945312 384.801757812 146.793945312 403.306640625 130.34375 c 4,1,2
 422.806640625 113.981445312 422.806640625 113.981445312 424.8984375 90.072265625 c 132,-1,3
 426.990234375 66.1640625 426.990234375 66.1640625 411.125 46.70703125 c 132,-1,4
 395.260742188 27.25 395.260742188 27.25 370.853515625 25.115234375 c 132,-1,5
 346.447265625 22.9794921875 346.447265625 22.9794921875 326.990234375 38.8447265625 c 132,-1,6
 307.534179688 54.708984375 307.534179688 54.708984375 305.354492188 79.6142578125 c 132,-1,7
 303.17578125 104.518554688 303.17578125 104.518554688 319.625976562 123.022460938 c 4,8,9
 334.9921875 142.436523438 334.9921875 142.436523438 359.897460938 144.615234375 c 132,-1,0
385.05078125 86.5859375 m 29,0,-1
 345.203125 83.1005859375 l 5,1,-1
 363.383789062 104.767578125 l 5,2,-1
 366.870117188 64.9189453125 l 1029,3,-1
EndSplineSet
EndChar

StartChar: lslash
Encoding: 322 322 146
Width: 78
GlyphClass: 2
Flags: W
LayerCount: 3
Fore
SplineSet
218 44 m 1,0,-1
 -67 44 l 1,1,2
 -58 51 -58 51 -43.5 63 c 128,-1,3
 -29 75 -29 75 1.5 100 c 128,-1,4
 32 125 32 125 52 142 c 128,-1,5
 72 159 72 159 71 160 c 1,6,-1
 218 44 l 1,0,-1
75 133 m 0,7,8
 135 133 135 133 185 86 c 0,9,10
 242 34 242 34 242 -50 c 0,11,12
 242 -92 242 -92 225 -130 c 128,-1,13
 208 -168 208 -168 186 -186 c 0,14,15
 166 -202 166 -202 153 -210 c 128,-1,16
 140 -218 140 -218 119 -225.5 c 128,-1,17
 98 -233 98 -233 75 -233 c 0,18,19
 20 -233 20 -233 -36 -186 c 0,20,21
 -60 -166 -60 -166 -75.5 -129.5 c 128,-1,22
 -91 -93 -91 -93 -91 -50 c 0,23,24
 -91 36 -91 36 -36 86 c 0,25,26
 16 133 16 133 75 133 c 0,7,8
EndSplineSet
Validated: 5
EndChar

StartChar: sacute
Encoding: 347 347 150
Width: 538
VWidth: 0
GlyphClass: 3
Flags: W
LayerCount: 3
Fore
SplineSet
423 1140 m 5,0,-1
 423 60 l 1,1,2
 363 60 363 60 303 60 c 1,5,-1
 303 1140 l 5,6,7
 363 1140 363 1140 423 1140 c 5,0,-1
303 60 m 1025
303 60 m 132,-1,0
 303 85 303 85 321 102 c 4,1,2
 339 120 339 120 363 120 c 132,-1,3
 387 120 387 120 405 102.5 c 132,-1,4
 423 85 423 85 423 60.5 c 132,-1,5
 423 36 423 36 405.5 18 c 132,-1,6
 388 0 388 0 363 0 c 132,-1,7
 338 0 338 0 321 18 c 4,8,9
 303 35 303 35 303 60 c 132,-1,0
363 80 m 29,0,-1
 363 40 l 5,1,-1
 343 60 l 5,2,-1
 383 60 l 1029,3,-1
303 1140 m 132,-1,0
 303 1165 303 1165 321 1182 c 4,1,2
 339 1200 339 1200 363 1200 c 132,-1,3
 387 1200 387 1200 405 1182.5 c 132,-1,4
 423 1165 423 1165 423 1140.5 c 132,-1,5
 423 1116 423 1116 405.5 1098 c 132,-1,6
 388 1080 388 1080 363 1080 c 132,-1,7
 338 1080 338 1080 321 1098 c 4,8,9
 303 1115 303 1115 303 1140 c 132,-1,0
363 1160 m 29,0,-1
 363 1120 l 5,1,-1
 343 1140 l 5,2,-1
 383 1140 l 1029,3,-1
423 1311 m 5,0,-1
 423 231 l 1,1,2
 363 231 363 231 303 231 c 1,5,-1
 303 1311 l 5,6,7
 363 1311 363 1311 423 1311 c 5,0,-1
303 231 m 1025
303 231 m 132,-1,0
 303 256 303 256 321 273 c 4,1,2
 339 291 339 291 363 291 c 132,-1,3
 387 291 387 291 405 273.5 c 132,-1,4
 423 256 423 256 423 231.5 c 132,-1,5
 423 207 423 207 405.5 189 c 132,-1,6
 388 171 388 171 363 171 c 132,-1,7
 338 171 338 171 321 189 c 4,8,9
 303 206 303 206 303 231 c 132,-1,0
363 251 m 29,0,-1
 363 211 l 5,1,-1
 343 231 l 5,2,-1
 383 231 l 1029,3,-1
303 1311 m 132,-1,0
 303 1336 303 1336 321 1353 c 4,1,2
 339 1371 339 1371 363 1371 c 132,-1,3
 387 1371 387 1371 405 1353.5 c 132,-1,4
 423 1336 423 1336 423 1311.5 c 132,-1,5
 423 1287 423 1287 405.5 1269 c 132,-1,6
 388 1251 388 1251 363 1251 c 132,-1,7
 338 1251 338 1251 321 1269 c 4,8,9
 303 1286 303 1286 303 1311 c 132,-1,0
363 1331 m 29,0,-1
 363 1291 l 5,1,-1
 343 1311 l 5,2,-1
 383 1311 l 1029,3,-1
406.137695312 45.4287109375 m 1,0,1
 466.311523438 45.5068359375 466.311523438 45.5068359375 526.138671875 45.4287109375 c 1,4,5
 526.138671875 32.4287109375 526.138671875 32.4287109375 526.138671875 32.4287109375 c 1,6,7
 525.000976562 -400.677734375 525.000976562 -400.677734375 182.500976562 -744.071289062 c 0,8,9
 175.690429688 -751.403320312 175.690429688 -751.403320312 168.358398438 -758.213867188 c 1,10,-1
 83.505859375 -673.361328125 l 1,11,12
 85.8876953125 -671.5 85.8876953125 -671.5 97.6484375 -659.21875 c 0,13,14
 404.79296875 -352.594726562 404.79296875 -352.594726562 406.137695312 31.4296875 c 1,15,16
 406.20703125 44.7998046875 406.20703125 44.7998046875 406.137695312 45.4287109375 c 1,0,1
140.07421875 -701.64453125 m 25,0,-1
 111.7890625 -729.928710938 l 25,1,-1
 111.7890625 -701.64453125 l 25,2,-1
 140.07421875 -729.928710938 l 1049,3,-1
168.711914062 -673.713867188 m 128,-1,5
 187.450195312 -692.452148438 187.450195312 -692.452148438 187.450195312 -715.080078125 c 0,6,7
 187.450195312 -739.12109375 187.450195312 -739.12109375 168.358398438 -758.212890625 c 0,7,8
 147.14453125 -779.426757812 147.14453125 -779.426757812 123.786132812 -778.6953125 c 0,9,10
 103.3046875 -778.01171875 103.3046875 -778.01171875 83.5048828125 -758.212890625 c 128,-1,11
 63.7060546875 -738.4140625 63.7060546875 -738.4140625 63.0234375 -717.932617188 c 0,12,13
 62.2919921875 -694.573242188 62.2919921875 -694.573242188 83.5048828125 -673.360351562 c 0,14,15
 101.889648438 -654.975585938 101.889648438 -654.975585938 127.345703125 -654.975585938 c 0,16,17
 149.973632812 -654.975585938 149.973632812 -654.975585938 168.711914062 -673.713867188 c 128,-1,5
486.13671875 45.4287109375 m 25,0,-1
 446.13671875 45.4287109375 l 25,1,-1
 466.13671875 65.4287109375 l 25,2,-1
 466.13671875 25.4287109375 l 1049,3,-1
526.13671875 44.9287109375 m 128,-1,5
 526.13671875 18.4287109375 526.13671875 18.4287109375 510.137695312 2.4287109375 c 0,6,7
 493.13671875 -14.5712890625 493.13671875 -14.5712890625 466.13671875 -14.5712890625 c 0,7,8
 436.137695312 -14.5712890625 436.137695312 -14.5712890625 420.137695312 2.462890625 c 0,9,10
 406.137695312 17.4287109375 406.137695312 17.4287109375 406.137695312 45.4287109375 c 128,-1,11
 406.137695312 73.427734375 406.137695312 73.427734375 420.137695312 88.39453125 c 0,12,13
 436.137695312 105.428710938 436.137695312 105.428710938 466.13671875 105.428710938 c 0,14,15
 492.13671875 105.428710938 492.13671875 105.428710938 510.137695312 87.427734375 c 0,16,17
 526.13671875 71.4287109375 526.13671875 71.4287109375 526.13671875 44.9287109375 c 128,-1,5
EndSplineSet
EndChar

StartChar: scaron
Encoding: 353 353 152
Width: 259
VWidth: 3070
GlyphClass: 3
Flags: W
LayerCount: 3
Fore
SplineSet
362 1654 m 5,0,-1
 362 -26 l 1,1,2
 302 -26 302 -26 242 -26 c 1,5,-1
 242 1654 l 5,6,7
 242 1654 242 1654 362 1654 c 5,0,-1
242 -26 m 1025
242 -26 m 132,-1,0
 242 -1 242 -1 260 16 c 4,1,2
 278 34 278 34 302 34 c 132,-1,3
 326 34 326 34 344 16.5 c 132,-1,4
 362 -1 362 -1 362 -25.5 c 132,-1,5
 362 -50 362 -50 344.5 -68 c 132,-1,6
 327 -86 327 -86 302 -86 c 132,-1,7
 277 -86 277 -86 260 -68 c 4,8,9
 242 -51 242 -51 242 -26 c 132,-1,0
302 -6 m 29,0,-1
 302 -46 l 5,1,-1
 282 -26 l 5,2,-1
 322 -26 l 1029,3,-1
242 1654 m 132,-1,0
 242 1679 242 1679 260 1696 c 4,1,2
 278 1714 278 1714 302 1714 c 132,-1,3
 326 1714 326 1714 344 1696.5 c 132,-1,4
 362 1679 362 1679 362 1654.5 c 132,-1,5
 362 1630 362 1630 344.5 1612 c 132,-1,6
 327 1594 327 1594 302 1594 c 132,-1,7
 277 1594 277 1594 260 1612 c 4,8,9
 242 1629 242 1629 242 1654 c 132,-1,0
302 1674 m 29,0,-1
 302 1634 l 5,1,-1
 282 1654 l 5,2,-1
 322 1654 l 1029,3,-1
-100.991210938 127 m 1,0,1
 -71.9912109375 126 -71.9912109375 126 -42.9912109375 126 c 1,2,3
 -12.9912109375 126 -12.9912109375 126 17.0087890625 126 c 1,4,5
 17.0087890625 -280 17.0087890625 -280 17.0087890625 -456 c 1,6,7
 1.0087890625 -743 1.0087890625 -743 -217.491210938 -729 c 0,8,9
 -356.991210938 -720 -356.991210938 -720 -402.991210938 -612 c 0,0,0
 -498.991210938 -389 -498.991210938 -389 -367.991210938 -174 c 0,10,11
 -288.991210938 -44 -288.991210938 -44 -100.991210938 127 c 1,0,1
-102.991210938 -43 m 1,13,14
 -212.991210938 -151 -212.991210938 -151 -258.991210938 -230 c 0,15,16
 -338.874023438 -368.516601562 -338.874023438 -368.516601562 -307.52734375 -512 c 0,0,0
 -286.991210938 -606 -286.991210938 -606 -216.991210938 -606 c 0,17,18
 -102.991210938 -606 -102.991210938 -606 -102.991210938 -456 c 0,19,20
 -102.991210938 -338 -102.991210938 -338 -102.991210938 -43 c 1,13,14
-42.9912109375 86 m 25,0,-1
 -42.9912109375 126 l 25,1,-1
 -22.9912109375 106 l 25,2,-1
 -62.9912109375 106 l 1049,3,-1
-43.4912109375 46 m 128,-1,5
 -69.9912109375 46 -69.9912109375 46 -85.9912109375 62 c 0,6,7
 -102.991210938 79 -102.991210938 79 -102.991210938 106 c 0,7,8
 -102.991210938 136 -102.991210938 136 -85.95703125 152 c 0,9,10
 -70.9912109375 166 -70.9912109375 166 -42.9912109375 166 c 128,-1,11
 -14.9912109375 166 -14.9912109375 166 -0.025390625 152 c 0,12,13
 17.0087890625 136 17.0087890625 136 17.0087890625 106 c 0,14,15
 17.0087890625 80 17.0087890625 80 -0.9912109375 62 c 0,16,17
 -16.9912109375 46 -16.9912109375 46 -43.4912109375 46 c 128,-1,5
-42.9912109375 90 m 25,0,-1
 -42.9912109375 130 l 25,1,-1
 -22.9912109375 110 l 25,2,-1
 -62.9912109375 110 l 1049,3,-1
-43.4912109375 50 m 128,-1,5
 -69.9912109375 50 -69.9912109375 50 -85.9912109375 66 c 0,6,7
 -102.991210938 83 -102.991210938 83 -102.991210938 110 c 0,7,8
 -102.991210938 140 -102.991210938 140 -85.95703125 156 c 0,9,10
 -70.9912109375 170 -70.9912109375 170 -42.9912109375 170 c 128,-1,11
 -14.9912109375 170 -14.9912109375 170 -0.025390625 156 c 0,12,13
 17.0087890625 140 17.0087890625 140 17.0087890625 110 c 0,14,15
 17.0087890625 84 17.0087890625 84 -0.9912109375 66 c 0,16,17
 -16.9912109375 50 -16.9912109375 50 -43.4912109375 50 c 128,-1,5
EndSplineSet
LCarets2: 1 210
EndChar

StartChar: zacute
Encoding: 378 378 154
Width: 300
VWidth: 0
GlyphClass: 3
Flags: W
LayerCount: 3
Fore
SplineSet
-3 903 m 1,0,-1
 -3 1101 l 1,1,2
 48 1087 48 1087 95.5 1063 c 128,-1,3
 143 1039 143 1039 180.5 1009 c 128,-1,4
 218 979 218 979 249.5 949.5 c 128,-1,5
 281 920 281 920 307.5 886.5 c 128,-1,6
 334 853 334 853 349.5 831 c 128,-1,7
 365 809 365 809 380.5 784.5 c 128,-1,8
 396 760 396 760 398 758 c 0,9,10
 437 703 437 703 453.5 576 c 128,-1,11
 470 449 470 449 456.5 311 c 128,-1,12
 443 173 443 173 402 94 c 0,13,14
 378 48 378 48 365.5 25 c 128,-1,15
 353 2 353 2 320.5 -52.5 c 128,-1,16
 288 -107 288 -107 257 -144.5 c 128,-1,17
 226 -182 226 -182 182.5 -229.5 c 128,-1,18
 139 -277 139 -277 85.5 -315.5 c 128,-1,19
 32 -354 32 -354 -27 -383 c 1,20,-1
 -103 -256 l 1,21,22
 -34 -229 -34 -229 28.5 -178 c 128,-1,23
 91 -127 91 -127 137 -65.5 c 128,-1,24
 183 -4 183 -4 215.5 55.5 c 128,-1,25
 248 115 248 115 268 172 c 0,26,27
 379 484 379 484 254 708 c 0,28,29
 151 893 151 893 -3 903 c 1,0,-1
EndSplineSet
Validated: 33
EndChar

StartChar: zcaron
Encoding: 382 382 158
Width: 748
VWidth: 3070
GlyphClass: 2
Flags: W
LayerCount: 3
Fore
SplineSet
436 1650 m 5,0,-1
 436 -30 l 1,1,2
 376 -30 376 -30 316 -30 c 1,5,-1
 316 1650 l 5,6,7
 316 1650 316 1650 436 1650 c 5,0,-1
316 -30 m 1025
316 -30 m 132,-1,0
 316 -5 316 -5 334 12 c 4,1,2
 352 30 352 30 376 30 c 132,-1,3
 400 30 400 30 418 12.5 c 132,-1,4
 436 -5 436 -5 436 -29.5 c 132,-1,5
 436 -54 436 -54 418.5 -72 c 132,-1,6
 401 -90 401 -90 376 -90 c 132,-1,7
 351 -90 351 -90 334 -72 c 4,8,9
 316 -55 316 -55 316 -30 c 132,-1,0
376 -10 m 29,0,-1
 376 -50 l 5,1,-1
 356 -30 l 5,2,-1
 396 -30 l 1029,3,-1
316 1650 m 132,-1,0
 316 1675 316 1675 334 1692 c 4,1,2
 352 1710 352 1710 376 1710 c 132,-1,3
 400 1710 400 1710 418 1692.5 c 132,-1,4
 436 1675 436 1675 436 1650.5 c 132,-1,5
 436 1626 436 1626 418.5 1608 c 132,-1,6
 401 1590 401 1590 376 1590 c 132,-1,7
 351 1590 351 1590 334 1608 c 4,8,9
 316 1625 316 1625 316 1650 c 132,-1,0
376 1670 m 29,0,-1
 376 1630 l 5,1,-1
 356 1650 l 5,2,-1
 396 1650 l 1029,3,-1
316.775390625 -21 m 1,0,1
 269.775390625 -69 269.775390625 -69 222.775390625 -117 c 0,2,3
 104.775390625 -235 104.775390625 -235 107.775390625 -295 c 0,0,0
 113.775390625 -406 113.775390625 -406 202.775390625 -412 c 0,4,5
 316.775390625 -419 316.775390625 -419 316.775390625 -244 c 0,6,7
 316.775390625 -128 316.775390625 -128 316.775390625 -21 c 1,0,1
318.784179688 142 m 1,10,11
 318.784179688 142 318.784179688 142 436.775390625 123 c 5,14,-1
 436.775390625 -247 l 2,15,16
 436.775390625 -534 436.775390625 -534 205.775390625 -532 c 0,17,18
 100.775390625 -531 100.775390625 -531 38.775390625 -443 c 0,0,0
 -63.224609375 -296 -63.224609375 -296 41.775390625 -140 c 0,0,0
 63.775390625 -107 63.775390625 -107 128.775390625 -41 c 0,19,20
 196.775390625 28 196.775390625 28 318.784179688 142 c 1,10,11
376.775390625 102 m 25,0,-1
 376.775390625 142 l 25,1,-1
 396.775390625 122 l 25,2,-1
 356.775390625 122 l 1049,3,-1
376.275390625 62 m 128,-1,5
 349.775390625 62 349.775390625 62 333.775390625 78 c 0,6,7
 316.775390625 95 316.775390625 95 316.775390625 122 c 0,7,8
 316.775390625 152 316.775390625 152 333.809570312 168 c 0,9,10
 348.775390625 182 348.775390625 182 376.775390625 182 c 128,-1,11
 404.775390625 182 404.775390625 182 419.741210938 168 c 0,12,13
 436.775390625 152 436.775390625 152 436.775390625 122 c 0,14,15
 436.775390625 96 436.775390625 96 418.775390625 78 c 0,16,17
 402.775390625 62 402.775390625 62 376.275390625 62 c 128,-1,5
376.775390625 97 m 25,0,-1
 376.775390625 137 l 25,1,-1
 396.775390625 117 l 25,2,-1
 356.775390625 117 l 1049,3,-1
376.275390625 57 m 128,-1,5
 349.775390625 57 349.775390625 57 333.775390625 73 c 0,6,7
 316.775390625 90 316.775390625 90 316.775390625 117 c 0,7,8
 316.775390625 147 316.775390625 147 333.809570312 163 c 0,9,10
 348.775390625 177 348.775390625 177 376.775390625 177 c 128,-1,11
 404.775390625 177 404.775390625 177 419.741210938 163 c 0,12,13
 436.775390625 147 436.775390625 147 436.775390625 117 c 0,14,15
 436.775390625 91 436.775390625 91 418.775390625 73 c 0,16,17
 402.775390625 57 402.775390625 57 376.275390625 57 c 128,-1,5
EndSplineSet
LCarets2: 1 548
EndChar

StartChar: uni02B9
Encoding: 697 697 161
Width: 1233
GlyphClass: 2
Flags: W
LayerCount: 3
Fore
SplineSet
492 1140 m 1,0,-1
 557 1638 l 1,1,-1
 747 1638 l 1,2,-1
 637 1140 l 1,3,-1
 492 1140 l 1,0,-1
EndSplineSet
Validated: 1
EndChar

StartChar: uni02BB
Encoding: 699 699 162
Width: 1233
GlyphClass: 2
Flags: W
LayerCount: 3
Fore
SplineSet
715 967 m 1,0,-1
 463 967 l 1,1,-1
 463 1174 l 1,2,-1
 659 1556 l 1,3,-1
 813 1556 l 1,4,-1
 715 1174 l 1,5,-1
 715 967 l 1,0,-1
EndSplineSet
Validated: 1
EndChar

StartChar: afii57929
Encoding: 700 700 163
Width: 1233
GlyphClass: 2
Flags: W
LayerCount: 3
Fore
SplineSet
561 1556 m 1,0,-1
 813 1556 l 1,1,-1
 813 1350 l 1,2,-1
 616 967 l 1,3,-1
 463 967 l 1,4,-1
 561 1350 l 1,5,-1
 561 1556 l 1,0,-1
EndSplineSet
Validated: 1
EndChar

StartChar: afii64937
Encoding: 701 701 164
Width: 1233
GlyphClass: 2
Flags: W
LayerCount: 3
Fore
SplineSet
496 1475 m 2,0,-1
 496 1729 l 1,1,-1
 737 1729 l 1,2,-1
 737 1475 l 1,3,-1
 625 1475 l 1,4,5
 625 1341 625 1341 737 1341 c 1,6,-1
 737 1218 l 1,7,8
 496 1218 496 1218 496 1475 c 2,0,-1
EndSplineSet
Validated: 1
EndChar

StartChar: uni02BE
Encoding: 702 702 165
Width: 1233
GlyphClass: 2
Flags: W
LayerCount: 3
Fore
SplineSet
480 1007 m 1,0,-1
 480 1130 l 1,1,2
 544 1130 544 1130 588 1174 c 128,-1,3
 632 1218 632 1218 632 1282 c 0,4,5
 632 1345 632 1345 588 1389 c 128,-1,6
 544 1433 544 1433 480 1433 c 1,7,-1
 480 1556 l 1,8,9
 594 1556 594 1556 674 1476 c 128,-1,10
 754 1396 754 1396 754 1282 c 0,11,12
 754 1167 754 1167 674 1087 c 128,-1,13
 594 1007 594 1007 480 1007 c 1,0,-1
EndSplineSet
Validated: 1
EndChar

StartChar: uni02BF
Encoding: 703 703 166
Width: 1233
GlyphClass: 2
Flags: W
LayerCount: 3
Fore
SplineSet
754 1007 m 1,0,1
 638 1007 638 1007 558 1087 c 0,2,3
 480 1166 480 1166 480 1282 c 0,4,5
 480 1396 480 1396 558 1476 c 0,6,7
 638 1556 638 1556 754 1556 c 1,8,-1
 754 1433 l 1,9,10
 690 1433 690 1433 646 1389 c 128,-1,11
 602 1345 602 1345 602 1282 c 0,12,13
 602 1218 602 1218 646 1174 c 128,-1,14
 690 1130 690 1130 754 1130 c 1,15,-1
 754 1007 l 1,0,1
EndSplineSet
Validated: 1
EndChar

StartChar: uni02C0
Encoding: 704 704 167
Width: 1233
GlyphClass: 2
Flags: W
LayerCount: 3
Fore
SplineSet
509 1357 m 1,0,-1
 549 1357 l 2,1,2
 670 1357 670 1357 724 1421 c 0,3,4
 760 1463 760 1463 760 1518 c 0,5,6
 760 1593 760 1593 724 1629 c 0,7,8
 663 1693 663 1693 549 1693 c 0,9,10
 498 1693 498 1693 449 1681 c 256,11,12
 400 1669 400 1669 350 1645 c 1,13,-1
 350 1741 l 1,14,15
 400 1761 400 1761 449 1770 c 0,16,17
 498 1780 498 1780 554 1780 c 0,18,19
 727 1780 727 1780 814 1692 c 0,20,21
 883 1622 883 1622 883 1518 c 0,22,23
 883 1424 883 1424 815 1359 c 0,24,25
 745 1292 745 1292 637 1275 c 1,26,-1
 637 910 l 1,27,-1
 510 910 l 1,28,-1
 509 1357 l 1,0,-1
EndSplineSet
Validated: 1
EndChar

StartChar: uni02C1
Encoding: 705 705 168
Width: 1233
GlyphClass: 2
Flags: W
LayerCount: 3
Fore
SplineSet
723 1357 m 1,0,-1
 723 910 l 1,1,-1
 596 910 l 1,2,-1
 596 1275 l 1,3,4
 488 1292 488 1292 418 1359 c 0,5,6
 350 1424 350 1424 350 1518 c 0,7,8
 350 1622 350 1622 420 1692 c 0,9,10
 505 1780 505 1780 679 1780 c 0,11,12
 735 1780 735 1780 784 1770 c 0,13,14
 833 1761 833 1761 883 1741 c 1,15,-1
 883 1645 l 1,16,17
 834 1669 834 1669 784 1681 c 256,18,19
 734 1693 734 1693 684 1693 c 0,20,21
 570 1693 570 1693 509 1629 c 0,22,23
 473 1593 473 1593 473 1518 c 0,24,25
 473 1463 473 1463 509 1421 c 0,26,27
 563 1357 563 1357 684 1357 c 2,28,-1
 723 1357 l 1,0,-1
EndSplineSet
Validated: 1
EndChar

StartChar: circumflex
Encoding: 710 710 169
Width: 639
GlyphClass: 2
Flags: W
LayerCount: 3
Fore
SplineSet
267 2428 m 5,0,-1
 371 2428 l 5,1,-1
 614 2092 l 5,2,-1
 510 2032 l 5,3,-1
 319 2303 l 5,4,-1
 114 2022 l 5,5,-1
 10 2082 l 5,6,-1
 267 2428 l 5,0,-1
EndSplineSet
Refer: 286 57346 S 1 0 0 1 259 2334 2
Refer: 286 57346 S 0.866025 0.5 -0.5 0.866025 539.909 1979.88 2
Refer: 286 57346 S 0.866025 -0.5 0.5 0.866025 -19.8324 2029.88 2
EndChar

StartChar: caron
Encoding: 711 711 170
Width: 1233
GlyphClass: 2
Flags: W
LayerCount: 3
Fore
SplineSet
543 1262 m 1,0,-1
 297 1638 l 1,1,-1
 436 1638 l 1,2,-1
 616 1393 l 1,3,-1
 797 1638 l 1,4,-1
 936 1638 l 1,5,-1
 690 1262 l 1,6,-1
 543 1262 l 1,0,-1
EndSplineSet
Validated: 1
EndChar

StartChar: uni02C8
Encoding: 712 712 171
Width: 1233
GlyphClass: 2
Flags: W
LayerCount: 3
Fore
SplineSet
684 1554 m 1,0,-1
 684 999 l 1,1,-1
 548 999 l 1,2,-1
 548 1554 l 1,3,-1
 684 1554 l 1,0,-1
EndSplineSet
Validated: 1
EndChar

StartChar: uni02C9
Encoding: 713 713 172
Width: 1233
GlyphClass: 2
Flags: W
LayerCount: 3
Fore
SplineSet
317 1526 m 1,0,-1
 915 1526 l 1,1,-1
 915 1378 l 1,2,-1
 317 1378 l 1,3,-1
 317 1526 l 1,0,-1
EndSplineSet
Validated: 1
EndChar

StartChar: uni02CC
Encoding: 716 716 173
Width: 1233
GlyphClass: 2
Flags: W
LayerCount: 3
Fore
SplineSet
684 252 m 1,0,-1
 684 -303 l 1,1,-1
 548 -303 l 1,2,-1
 548 252 l 1,3,-1
 684 252 l 1,0,-1
EndSplineSet
Validated: 1
EndChar

StartChar: uni02CD
Encoding: 717 717 174
Width: 1233
GlyphClass: 2
Flags: W
LayerCount: 3
Fore
SplineSet
318 -209 m 1,0,-1
 916 -209 l 1,1,-1
 916 -357 l 1,2,-1
 318 -357 l 1,3,-1
 318 -209 l 1,0,-1
EndSplineSet
Validated: 1
EndChar

StartChar: uni02D0
Encoding: 720 720 175
Width: 1233
GlyphClass: 2
Flags: W
LayerCount: 3
Fore
SplineSet
616 729 m 1,0,-1
 438 1059 l 1,1,-1
 795 1059 l 1,2,-1
 616 729 l 1,0,-1
616 330 m 1,3,-1
 795 0 l 1,4,-1
 438 0 l 1,5,-1
 616 330 l 1,3,-1
EndSplineSet
Validated: 1
EndChar

StartChar: uni02D1
Encoding: 721 721 176
Width: 1233
GlyphClass: 2
Flags: W
LayerCount: 3
Fore
SplineSet
616 729 m 1,0,-1
 438 1059 l 1,1,-1
 795 1059 l 1,2,-1
 616 729 l 1,0,-1
EndSplineSet
Validated: 1
EndChar

StartChar: uni02D2
Encoding: 722 722 177
Width: 1233
GlyphClass: 2
Flags: W
LayerCount: 3
Fore
SplineSet
480 510 m 5,0,-1
 480 633 l 5,1,2
 544 633 544 633 588 677 c 132,-1,3
 632 721 632 721 632 785 c 4,4,5
 632 848 632 848 588 892 c 132,-1,6
 544 936 544 936 480 936 c 5,7,-1
 480 1059 l 5,8,9
 594 1059 594 1059 674 979 c 132,-1,10
 754 899 754 899 754 785 c 4,11,12
 754 670 754 670 674 590 c 132,-1,13
 594 510 594 510 480 510 c 5,0,-1
EndSplineSet
Validated: 1
EndChar

StartChar: uni02D3
Encoding: 723 723 178
Width: 1233
GlyphClass: 2
Flags: W
LayerCount: 3
Fore
SplineSet
754 510 m 1,0,1
 638 510 638 510 558 590 c 0,2,3
 480 670 480 670 480 785 c 256,4,5
 480 900 480 900 558 979 c 0,6,7
 638 1059 638 1059 754 1059 c 1,8,-1
 754 936 l 1,9,10
 690 936 690 936 646 892 c 128,-1,11
 602 848 602 848 602 785 c 0,12,13
 602 721 602 721 646 677 c 128,-1,14
 690 633 690 633 754 633 c 1,15,-1
 754 510 l 1,0,1
EndSplineSet
Validated: 1
EndChar

StartChar: uni02D6
Encoding: 726 726 179
Width: 1233
GlyphClass: 2
Flags: W
LayerCount: 3
Fore
SplineSet
542 629 m 1,0,-1
 542 853 l 1,1,-1
 692 853 l 1,2,-1
 692 629 l 1,3,-1
 916 629 l 1,4,-1
 916 479 l 1,5,-1
 692 479 l 1,6,-1
 692 255 l 1,7,-1
 542 255 l 1,8,-1
 542 479 l 1,9,-1
 318 479 l 1,10,-1
 318 629 l 1,11,-1
 542 629 l 1,0,-1
EndSplineSet
Validated: 1
EndChar

StartChar: uni02D7
Encoding: 727 727 180
Width: 1233
GlyphClass: 2
Flags: W
LayerCount: 3
Fore
SplineSet
842 479 m 1,0,-1
 392 479 l 1,1,-1
 392 629 l 1,2,-1
 842 629 l 1,3,-1
 842 479 l 1,0,-1
EndSplineSet
Validated: 1
EndChar

StartChar: breve
Encoding: 728 728 181
Width: 1233
GlyphClass: 2
Flags: W
LayerCount: 3
Fore
SplineSet
303 1608 m 1,0,-1
 422 1608 l 1,1,2
 432 1533 432 1533 481 1495 c 0,3,4
 528 1458 528 1458 616 1458 c 0,5,6
 702 1458 702 1458 749 1495 c 0,7,8
 798 1533 798 1533 811 1608 c 1,9,-1
 930 1608 l 1,10,11
 919 1465 919 1465 840 1393 c 0,12,13
 760 1321 760 1321 616 1321 c 128,-1,14
 472 1321 472 1321 393 1393 c 128,-1,15
 314 1465 314 1465 303 1608 c 1,0,-1
EndSplineSet
Validated: 1
EndChar

StartChar: dotaccent
Encoding: 729 729 182
Width: 1233
GlyphClass: 2
Flags: W
LayerCount: 3
Fore
SplineSet
513 1552 m 1,0,-1
 718 1552 l 1,1,-1
 718 1348 l 1,2,-1
 513 1348 l 1,3,-1
 513 1552 l 1,0,-1
EndSplineSet
Validated: 1
EndChar

StartChar: ring
Encoding: 730 730 183
Width: 1233
GlyphClass: 2
Flags: W
LayerCount: 3
Fore
SplineSet
891 1524 m 0,0,1
 891 1410 891 1410 812 1329 c 0,2,3
 730 1249 730 1249 616 1249 c 0,4,5
 500 1249 500 1249 422 1329 c 0,6,7
 342 1408 342 1408 342 1524 c 0,8,9
 342 1641 342 1641 422 1718 c 1,10,11
 499 1798 499 1798 616 1798 c 0,12,13
 732 1798 732 1798 812 1718 c 0,14,15
 891 1639 891 1639 891 1524 c 0,0,1
768 1524 m 0,16,17
 768 1587 768 1587 724 1631 c 128,-1,18
 680 1675 680 1675 616 1675 c 0,19,20
 554 1675 554 1675 508 1632 c 1,21,22
 465 1586 465 1586 465 1524 c 0,23,24
 465 1459 465 1459 508 1416 c 0,25,26
 552 1372 552 1372 616 1372 c 128,-1,27
 680 1372 680 1372 724 1416 c 128,-1,28
 768 1460 768 1460 768 1524 c 0,16,17
EndSplineSet
Validated: 1
EndChar

StartChar: ogonek
Encoding: 731 731 184
Width: 1233
GlyphClass: 2
Flags: W
LayerCount: 3
Fore
SplineSet
528 0 m 1,0,-1
 647 0 l 1,1,2
 604 -59 604 -59 580 -105 c 0,3,4
 559 -148 559 -148 559 -180 c 0,5,6
 559 -226 559 -226 586 -249 c 0,7,8
 615 -272 615 -272 668 -272 c 0,9,10
 703 -272 703 -272 731 -264 c 0,11,12
 757 -259 757 -259 793 -242 c 1,13,-1
 793 -375 l 1,14,15
 756 -386 756 -386 721 -390 c 0,16,17
 683 -395 683 -395 657 -395 c 0,18,19
 536 -395 536 -395 478 -352 c 0,20,21
 420 -307 420 -307 420 -215 c 0,22,23
 420 -169 420 -169 446 -114 c 0,24,25
 476 -58 476 -58 528 0 c 1,0,-1
EndSplineSet
Validated: 1
EndChar

StartChar: tilde
Encoding: 732 732 185
Width: 1233
GlyphClass: 2
Flags: W
LayerCount: 3
Fore
SplineSet
612 1370 m 2,0,-1
 555 1425 l 2,1,2
 534 1444 534 1444 518 1454 c 0,3,4
 501 1464 501 1464 487 1464 c 0,5,6
 449 1464 449 1464 431 1427 c 0,7,8
 412 1388 412 1388 411 1309 c 1,9,-1
 287 1309 l 1,10,11
 289 1444 289 1444 339 1517 c 0,12,13
 390 1591 390 1591 481 1591 c 0,14,15
 519 1591 519 1591 552 1577 c 0,16,17
 582 1564 582 1564 621 1530 c 2,18,-1
 678 1475 l 2,19,20
 701 1453 701 1453 716 1446 c 0,21,22
 730 1436 730 1436 745 1436 c 0,23,24
 784 1436 784 1436 802 1473 c 0,25,26
 819 1509 819 1509 821 1591 c 1,27,-1
 946 1591 l 1,28,29
 944 1456 944 1456 894 1383 c 0,30,31
 843 1309 843 1309 752 1309 c 0,32,33
 714 1309 714 1309 681 1323 c 0,34,35
 651 1336 651 1336 612 1370 c 2,0,-1
EndSplineSet
Validated: 1
EndChar

StartChar: hungarumlaut
Encoding: 733 733 186
Width: 1233
GlyphClass: 2
Flags: W
LayerCount: 3
Fore
SplineSet
535 1638 m 1,0,-1
 705 1638 l 1,1,-1
 481 1262 l 1,2,-1
 344 1262 l 1,3,-1
 535 1638 l 1,0,-1
868 1638 m 1,4,-1
 1047 1638 l 1,5,-1
 799 1262 l 1,6,-1
 664 1262 l 1,7,-1
 868 1638 l 1,4,-1
EndSplineSet
Validated: 1
EndChar

StartChar: uni02DE
Encoding: 734 734 187
Width: 1233
GlyphClass: 2
Flags: W
LayerCount: 3
Fore
SplineSet
-351 868 m 1,0,-1
 268 1032 l 1,1,-1
 452 1032 l 1,2,-1
 452 884 l 2,3,4
 452 732 452 732 490 682 c 0,5,6
 528 634 528 634 633 634 c 2,7,-1
 883 634 l 1,8,-1
 883 478 l 1,9,-1
 612 478 l 2,10,11
 437 478 437 478 350 574 c 0,12,13
 268 663 268 663 268 864 c 1,14,-1
 -350 702 l 1,15,-1
 -351 868 l 1,0,-1
EndSplineSet
Validated: 1
EndChar

StartChar: uni02E0
Encoding: 736 736 188
Width: 1233
GlyphClass: 2
Flags: W
LayerCount: 3
Fore
SplineSet
693 988 m 1,0,1
 871 740 871 740 871 559 c 0,2,3
 871 430 871 430 629 427 c 0,4,5
 364 424 364 424 362 559 c 0,6,7
 361 749 361 749 543 992 c 1,8,-1
 293 1295 l 1,9,-1
 429 1295 l 1,10,-1
 620 1071 l 1,11,-1
 804 1295 l 1,12,-1
 940 1295 l 1,13,-1
 693 988 l 1,0,1
616 921 m 1,14,15
 477 748 477 748 480 595 c 0,16,17
 482 518 482 518 616 518 c 0,18,19
 744 518 744 518 744 595 c 0,20,21
 745 734 745 734 616 921 c 1,14,15
EndSplineSet
Validated: 33
EndChar

StartChar: uni02E1
Encoding: 737 737 189
Width: 1233
GlyphClass: 2
Flags: W
LayerCount: 3
Fore
SplineSet
644 895 m 2,0,1
 644 825 644 825 672 790 c 0,2,3
 701 755 701 755 756 755 c 2,4,-1
 892 755 l 1,5,-1
 892 668 l 1,6,-1
 746 668 l 2,7,8
 642 668 642 668 585 728 c 0,9,10
 528 787 528 787 528 895 c 2,11,-1
 528 1465 l 1,12,-1
 342 1465 l 1,13,-1
 342 1546 l 1,14,-1
 644 1546 l 1,15,-1
 644 895 l 2,0,1
EndSplineSet
Validated: 1
EndChar

StartChar: uni02E2
Encoding: 738 738 190
Width: 1233
GlyphClass: 2
Flags: W
LayerCount: 3
Fore
SplineSet
848 1293 m 1,0,-1
 848 1196 l 1,1,2
 798 1218 798 1218 746 1229 c 0,3,4
 691 1240 691 1240 637 1240 c 0,5,6
 550 1240 550 1240 507 1216 c 0,7,8
 464 1194 464 1194 464 1146 c 0,9,10
 464 1109 464 1109 495 1090 c 0,11,12
 527 1069 527 1069 619 1051 c 2,13,-1
 659 1043 l 2,14,15
 785 1019 785 1019 834 977 c 0,16,17
 886 934 886 934 886 857 c 0,18,19
 886 770 886 770 808 719 c 0,20,21
 732 668 732 668 594 668 c 0,22,23
 536 668 536 668 476 678 c 0,24,25
 403 691 403 691 347 707 c 1,26,-1
 347 814 l 1,27,28
 412 784 412 784 474 769 c 256,29,30
 536 754 536 754 597 754 c 0,31,32
 680 754 680 754 723 779 c 0,33,34
 767 805 767 805 767 849 c 0,35,36
 767 891 767 891 735 914 c 0,37,38
 704 935 704 935 596 957 c 2,39,-1
 555 965 l 2,40,41
 448 986 448 986 400 1028 c 0,42,43
 352 1068 352 1068 352 1142 c 0,44,45
 352 1229 352 1229 422 1278 c 0,46,47
 493 1327 493 1327 623 1327 c 0,48,49
 687 1327 687 1327 744 1318 c 0,50,51
 796 1311 796 1311 848 1293 c 1,0,-1
EndSplineSet
Validated: 1
EndChar

StartChar: uni02E3
Encoding: 739 739 191
Width: 1233
GlyphClass: 2
Flags: W
LayerCount: 3
Fore
SplineSet
945 1295 m 1,0,-1
 690 990 l 1,1,-1
 959 668 l 1,2,-1
 822 668 l 1,3,-1
 616 914 l 1,4,-1
 411 668 l 1,5,-1
 274 668 l 1,6,-1
 548 996 l 1,7,-1
 298 1295 l 1,8,-1
 434 1295 l 1,9,-1
 622 1072 l 1,10,-1
 809 1295 l 1,11,-1
 945 1295 l 1,0,-1
EndSplineSet
Validated: 1
EndChar

StartChar: uni02E4
Encoding: 740 740 192
Width: 1233
GlyphClass: 2
Flags: W
LayerCount: 3
Fore
SplineSet
723 1115 m 1,0,-1
 723 668 l 1,1,-1
 596 668 l 1,2,-1
 596 1033 l 1,3,4
 488 1050 488 1050 418 1117 c 0,5,6
 350 1182 350 1182 350 1276 c 0,7,8
 350 1380 350 1380 420 1450 c 0,9,10
 505 1538 505 1538 679 1538 c 0,11,12
 735 1538 735 1538 784 1528 c 0,13,14
 833 1519 833 1519 883 1499 c 1,15,-1
 883 1403 l 1,16,17
 834 1427 834 1427 784 1439 c 256,18,19
 734 1451 734 1451 684 1451 c 0,20,21
 570 1451 570 1451 509 1387 c 0,22,23
 473 1351 473 1351 473 1276 c 0,24,25
 473 1221 473 1221 509 1179 c 0,26,27
 563 1115 563 1115 684 1115 c 2,28,-1
 723 1115 l 1,0,-1
EndSplineSet
Validated: 1
EndChar

StartChar: uni02E5
Encoding: 741 741 193
Width: 1233
GlyphClass: 2
Flags: W
LayerCount: 3
Fore
SplineSet
797 0 m 1,0,-1
 797 1232 l 1,1,-1
 300 1232 l 1,2,-1
 300 1368 l 1,3,-1
 933 1368 l 1,4,-1
 933 0 l 1,5,-1
 797 0 l 1,0,-1
EndSplineSet
Validated: 1
EndChar

StartChar: uni02E6
Encoding: 742 742 194
Width: 1233
GlyphClass: 2
Flags: W
LayerCount: 3
Fore
SplineSet
797 0 m 1,0,-1
 797 924 l 1,1,-1
 300 924 l 1,2,-1
 300 1060 l 1,3,-1
 797 1060 l 1,4,-1
 797 1368 l 1,5,-1
 933 1368 l 1,6,-1
 933 0 l 1,7,-1
 797 0 l 1,0,-1
EndSplineSet
Validated: 1
EndChar

StartChar: uni02E7
Encoding: 743 743 195
Width: 1233
GlyphClass: 2
Flags: W
LayerCount: 3
Fore
SplineSet
797 752 m 1,0,-1
 797 1368 l 1,1,-1
 933 1368 l 1,2,-1
 933 0 l 1,3,-1
 797 0 l 1,4,-1
 797 616 l 1,5,-1
 300 616 l 1,6,-1
 300 752 l 1,7,-1
 797 752 l 1,0,-1
EndSplineSet
Validated: 1
EndChar

StartChar: uni02E8
Encoding: 744 744 196
Width: 1233
GlyphClass: 2
Flags: W
LayerCount: 3
Fore
SplineSet
797 444 m 1,0,-1
 797 1368 l 1,1,-1
 933 1368 l 1,2,-1
 933 0 l 1,3,-1
 797 0 l 1,4,-1
 797 308 l 1,5,-1
 300 308 l 1,6,-1
 300 444 l 1,7,-1
 797 444 l 1,0,-1
EndSplineSet
Validated: 1
EndChar

StartChar: uni02E9
Encoding: 745 745 197
Width: 1233
GlyphClass: 2
Flags: W
LayerCount: 3
Fore
SplineSet
797 136 m 1,0,-1
 797 1368 l 1,1,-1
 933 1368 l 1,2,-1
 933 0 l 1,3,-1
 300 0 l 1,4,-1
 300 136 l 1,5,-1
 797 136 l 1,0,-1
EndSplineSet
Validated: 1
EndChar

StartChar: uni02EE
Encoding: 750 750 198
Width: 1233
GlyphClass: 2
Flags: W
LayerCount: 3
Fore
SplineSet
768 1556 m 1,0,-1
 1020 1556 l 1,1,-1
 1020 1350 l 1,2,-1
 823 967 l 1,3,-1
 670 967 l 1,4,-1
 768 1350 l 1,5,-1
 768 1556 l 1,0,-1
309 1556 m 1,6,-1
 561 1556 l 1,7,-1
 561 1350 l 1,8,-1
 365 967 l 1,9,-1
 211 967 l 1,10,-1
 309 1350 l 1,11,-1
 309 1556 l 1,6,-1
EndSplineSet
Validated: 1
EndChar

StartChar: uni02F3
Encoding: 755 755 199
Width: 1233
GlyphClass: 2
Flags: W
LayerCount: 3
Fore
SplineSet
836 -282 m 128,-1,1
 836 -374 836 -374 772 -438 c 0,2,3
 709 -502 709 -502 616 -502 c 0,4,5
 524 -502 524 -502 460 -438 c 0,6,7
 397 -374 397 -374 397 -282 c 128,-1,8
 397 -190 397 -190 460 -126 c 0,9,10
 524 -63 524 -63 616 -63 c 0,11,12
 709 -63 709 -63 772 -126 c 0,13,0
 836 -190 836 -190 836 -282 c 128,-1,1
738 -282 m 0,14,15
 738 -232 738 -232 702 -196 c 0,16,17
 667 -161 667 -161 616 -161 c 128,-1,18
 565 -161 565 -161 530 -196 c 128,-1,19
 495 -231 495 -231 495 -282 c 0,20,21
 495 -334 495 -334 530 -369 c 128,-1,22
 565 -404 565 -404 616 -404 c 0,23,24
 668 -404 668 -404 702 -368 c 0,25,26
 738 -334 738 -334 738 -282 c 0,14,15
EndSplineSet
Validated: 1
EndChar

StartChar: gravecomb
Encoding: 768 768 200
Width: 1233
GlyphClass: 2
Flags: W
LayerCount: 3
Fore
SplineSet
477 1638 m 1,0,-1
 758 1262 l 1,1,-1
 604 1262 l 1,2,-1
 279 1638 l 1,3,-1
 477 1638 l 1,0,-1
EndSplineSet
Validated: 1
EndChar

StartChar: acutecomb
Encoding: 769 769 201
Width: 1233
GlyphClass: 2
Flags: W
LayerCount: 3
Fore
SplineSet
756 1638 m 1,0,-1
 954 1638 l 1,1,-1
 629 1262 l 1,2,-1
 475 1262 l 1,3,-1
 756 1638 l 1,0,-1
EndSplineSet
Validated: 1
EndChar

StartChar: uni0302
Encoding: 770 770 202
Width: 1233
GlyphClass: 2
Flags: W
LayerCount: 3
Fore
SplineSet
543 1638 m 1,0,-1
 690 1638 l 1,1,-1
 936 1262 l 1,2,-1
 797 1262 l 1,3,-1
 616 1507 l 1,4,-1
 436 1262 l 1,5,-1
 297 1262 l 1,6,-1
 543 1638 l 1,0,-1
EndSplineSet
Validated: 1
EndChar

